SplineFontDB: 3.2
FontName: IRTehran
FullName: IRTehran
FamilyName: IRTehran
Weight: Book
Copyright: Copyright (c) 2022, Information Technology Organization of Iran (ito.gov.ir)
Version: 1.001
ItalicAngle: 0
UnderlinePosition: -100
UnderlineWidth: 60
Ascent: 1638
Descent: 410
InvalidEm: 0
sfntRevision: 0x00010042
LayerCount: 2
Layer: 0 1 "Back" 1
Layer: 1 1 "Fore" 0
XUID: [1021 420 722297922 7084104]
StyleMap: 0x0040
FSType: 0
OS2Version: 3
OS2_WeightWidthSlopeOnly: 0
OS2_UseTypoMetrics: 0
CreationTime: 1356353895
ModificationTime: 1662631025
PfmFamily: 17
TTFWeight: 400
TTFWidth: 5
LineGap: 100
VLineGap: 0
Panose: 2 0 5 3 0 0 0 2 0 2
OS2TypoAscent: 2208
OS2TypoAOffset: 0
OS2TypoDescent: -1334
OS2TypoDOffset: 0
OS2TypoLinegap: 1500
OS2WinAscent: 2208
OS2WinAOffset: 0
OS2WinDescent: 1334
OS2WinDOffset: 0
HheadAscent: 2208
HheadAOffset: 0
HheadDescent: -1334
HheadDOffset: 0
OS2SubXSize: 1434
OS2SubYSize: 1331
OS2SubXOff: 0
OS2SubYOff: 293
OS2SupXSize: 1434
OS2SupYSize: 1331
OS2SupXOff: 0
OS2SupYOff: 930
OS2StrikeYSize: 50
OS2StrikeYPos: 250
OS2CapHeight: 2221
OS2XHeight: 597
OS2FamilyClass: 2048
OS2Vendor: 'PARS'
OS2CodePages: 20000041.00000000
OS2UnicodeRanges: 00002003.00000000.00000000.00000000
Lookup: 1 1 0 "'isol' Isolated Forms in Arabic lookup 0" { "'isol' Isolated Forms in Arabic lookup 0 subtable"  } ['isol' ('arab' <'dflt' > ) ]
Lookup: 1 1 0 "'init' Initial Forms in Arabic lookup 1" { "'init' Initial Forms in Arabic lookup 1 subtable"  } ['init' ('arab' <'dflt' > ) ]
Lookup: 1 1 0 "'fina' Terminal Forms in Arabic lookup 2" { "'fina' Terminal Forms in Arabic lookup 2 subtable"  } ['fina' ('arab' <'dflt' > ) ]
Lookup: 1 1 0 "'medi' Medial Forms in Arabic lookup 3" { "'medi' Medial Forms in Arabic lookup 3 subtable"  } ['medi' ('arab' <'dflt' > ) ]
Lookup: 4 1 0 "'ccmp' Glyph Composition/Decomposition in Arabic lookup 4" { "'ccmp' Glyph Composition/Decomposition in Arabic lookup 4 subtable"  } ['ccmp' ('arab' <'dflt' > ) ]

StartChar: quotedbl
Encoding: 34 34 4
Width: 765
Flags: W
LayerCount: 2
Fore
SplineSet
169 1375 m 1,0,-1
 296 1375 l 1,1,-1
 269 974 l 1,2,-1
 184 974 l 1,3,-1
 169 1375 l 1,0,-1
434 1375 m 1,4,-1
 560 1375 l 1,5,-1
 533 974 l 1,6,-1
 449 974 l 1,7,-1
 434 1375 l 1,4,-1
EndSplineSet
EndChar

StartChar: quotesingle
Encoding: 39 39 5
Width: 414
Flags: W
LayerCount: 2
Fore
SplineSet
147 1375 m 1,0,-1
 273 1375 l 1,1,-1
 246 974 l 1,2,-1
 162 974 l 1,3,-1
 147 1375 l 1,0,-1
EndSplineSet
EndChar

StartChar: asterisk
Encoding: 42 42 6
Width: 1126
Flags: W
LayerCount: 2
Fore
SplineSet
568 347 m 1,0,-1
 574 687 l 1,1,-1
 355 467 l 1,2,-1
 250 467 l 1,3,-1
 527 746 l 1,4,-1
 203 746 l 1,5,-1
 223 839 l 1,6,-1
 547 839 l 1,7,-1
 277 1104 l 1,8,-1
 370 1104 l 1,9,-1
 579 899 l 1,10,-1
 585 1199 l 1,11,-1
 704 1239 l 1,12,-1
 699 912 l 1,13,-1
 905 1104 l 1,14,-1
 1013 1104 l 1,15,-1
 730 839 l 1,16,-1
 1065 839 l 1,17,-1
 1043 746 l 1,18,-1
 729 746 l 1,19,-1
 1002 467 l 1,20,-1
 910 467 l 1,21,-1
 696 687 l 1,22,-1
 688 386 l 1,23,-1
 568 347 l 1,0,-1
EndSplineSet
EndChar

StartChar: plus
Encoding: 43 43 7
Width: 1105
GlyphClass: 2
Flags: W
LayerCount: 2
Fore
SplineSet
493 74 m 1,0,-1
 493 476 l 1,1,-1
 90 476 l 1,2,-1
 90 590 l 1,3,-1
 493 590 l 1,4,-1
 493 990 l 1,5,-1
 606 990 l 1,6,-1
 606 590 l 1,7,-1
 1008 592 l 1,8,-1
 1007 476 l 1,9,-1
 608 476 l 1,10,-1
 608 74 l 1,11,-1
 493 74 l 1,0,-1
EndSplineSet
EndChar

StartChar: hyphen
Encoding: 45 45 8
Width: 1187
Flags: W
LayerCount: 2
Fore
SplineSet
1002 410 m 1,0,-1
 163 410 l 1,1,-1
 163 564 l 1,2,-1
 1002 564 l 1,3,-1
 1002 410 l 1,0,-1
EndSplineSet
EndChar

StartChar: period
Encoding: 46 46 9
Width: 455
GlyphClass: 2
Flags: W
LayerCount: 2
Fore
SplineSet
382 129 m 0,0,1
 382 74 382 74 345 36.5 c 128,-1,2
 308 -1 308 -1 253 -1 c 256,3,4
 198 -1 198 -1 160.5 36.5 c 128,-1,5
 123 74 123 74 123 129 c 0,6,7
 123 183 123 183 161 221 c 128,-1,8
 199 259 199 259 253 259 c 256,9,10
 307 259 307 259 344.5 221 c 128,-1,11
 382 183 382 183 382 129 c 0,0,1
EndSplineSet
EndChar

StartChar: slash
Encoding: 47 47 10
Width: 630
Flags: W
LayerCount: 2
Fore
SplineSet
565 1044 m 1,0,-1
 228 -158 l 1,1,-1
 115 -158 l 1,2,-1
 451 1044 l 1,3,-1
 565 1044 l 1,0,-1
EndSplineSet
EndChar

StartChar: less
Encoding: 60 60 11
Width: 992
Flags: W
LayerCount: 2
Fore
SplineSet
54 407 m 1,0,-1
 54 473 l 1,1,-1
 938 862 l 1,2,-1
 938 734 l 1,3,-1
 268 440 l 1,4,-1
 938 146 l 1,5,-1
 938 19 l 1,6,-1
 54 407 l 1,0,-1
EndSplineSet
EndChar

StartChar: equal
Encoding: 61 61 12
Width: 969
Flags: W
LayerCount: 2
Fore
SplineSet
840 224 m 1,0,-1
 118 224 l 1,1,-1
 118 326 l 1,2,-1
 840 326 l 1,3,-1
 840 224 l 1,0,-1
840 462 m 1,4,-1
 118 462 l 1,5,-1
 118 564 l 1,6,-1
 840 564 l 1,7,-1
 840 462 l 1,4,-1
EndSplineSet
EndChar

StartChar: greater
Encoding: 62 62 13
Width: 992
Flags: W
LayerCount: 2
Fore
SplineSet
54 19 m 1,0,-1
 54 146 l 1,1,-1
 724 440 l 1,2,-1
 54 734 l 1,3,-1
 54 862 l 1,4,-1
 938 473 l 1,5,-1
 938 407 l 1,6,-1
 54 19 l 1,0,-1
EndSplineSet
EndChar

StartChar: bracketleft
Encoding: 91 91 14
Width: 646
GlyphClass: 2
Flags: W
LayerCount: 2
Fore
SplineSet
562 -232 m 1,0,-1
 190 -232 l 1,1,-1
 190 1687 l 1,2,-1
 562 1687 l 1,3,-1
 562 1590 l 1,4,-1
 329 1590 l 1,5,-1
 329 -136 l 1,6,-1
 562 -136 l 1,7,-1
 562 -232 l 1,0,-1
EndSplineSet
EndChar

StartChar: bracketright
Encoding: 93 93 15
Width: 646
GlyphClass: 2
Flags: W
LayerCount: 2
Fore
SplineSet
211 -136 m 1,0,-1
 444 -136 l 1,1,-1
 444 1590 l 1,2,-1
 211 1590 l 1,3,-1
 211 1687 l 1,4,-1
 583 1687 l 1,5,-1
 583 -232 l 1,6,-1
 211 -232 l 1,7,-1
 211 -136 l 1,0,-1
EndSplineSet
EndChar

StartChar: grave
Encoding: 96 96 16
Width: 557
Flags: W
LayerCount: 2
Fore
SplineSet
338 847 m 1,0,-1
 80 1009 l 2,1,2
 58 1025 58 1025 45 1043 c 128,-1,3
 32 1061 32 1061 32 1081 c 0,4,5
 32 1105 32 1105 47 1119.5 c 128,-1,6
 62 1134 62 1134 89 1134 c 0,7,8
 107 1134 107 1134 121.5 1125 c 128,-1,9
 136 1116 136 1116 159 1094 c 2,10,-1
 405 847 l 1,11,-1
 338 847 l 1,0,-1
EndSplineSet
EndChar

StartChar: braceleft
Encoding: 123 123 17
Width: 830
GlyphClass: 2
Flags: W
LayerCount: 2
Fore
SplineSet
710 -345 m 1,0,-1
 710 -373 l 1,1,2
 569 -354 569 -354 481 -259 c 128,-1,3
 393 -164 393 -164 393 -49 c 0,4,5
 393 12 393 12 412.5 93.5 c 128,-1,6
 432 175 432 175 432 219 c 0,7,8
 432 279 432 279 380.5 332.5 c 128,-1,9
 329 386 329 386 239 397 c 1,10,-1
 239 432 l 1,11,12
 329 444 329 444 380.5 496 c 128,-1,13
 432 548 432 548 432 611 c 0,14,15
 432 655 432 655 412.5 735 c 128,-1,16
 393 815 393 815 393 876 c 0,17,18
 393 992 393 992 481 1087.5 c 128,-1,19
 569 1183 569 1183 710 1202 c 1,20,-1
 710 1172 l 1,21,22
 612 1148 612 1148 565.5 1095 c 128,-1,23
 519 1042 519 1042 519 977 c 0,24,25
 519 927 519 927 538.5 845 c 128,-1,26
 558 763 558 763 558 707 c 0,27,28
 558 621 558 621 495.5 541 c 128,-1,29
 433 461 433 461 308 416 c 1,30,31
 430 372 430 372 494 290 c 128,-1,32
 558 208 558 208 558 123 c 0,33,34
 558 65 558 65 538.5 -16.5 c 128,-1,35
 519 -98 519 -98 519 -148 c 0,36,37
 519 -212 519 -212 565.5 -265.5 c 128,-1,38
 612 -319 612 -319 710 -345 c 1,0,-1
EndSplineSet
EndChar

StartChar: bar
Encoding: 124 124 18
Width: 347
Flags: W
LayerCount: 2
Fore
SplineSet
206 1202 m 1,0,-1
 206 -373 l 1,1,-1
 136 -373 l 1,2,-1
 136 1202 l 1,3,-1
 206 1202 l 1,0,-1
EndSplineSet
EndChar

StartChar: asciitilde
Encoding: 126 126 19
Width: 936
Flags: W
LayerCount: 2
Fore
SplineSet
880 570 m 1,0,-1
 919 570 l 1,1,2
 915 461 915 461 855.5 398.5 c 128,-1,3
 796 336 796 336 711 336 c 0,4,5
 673 336 673 336 628 349 c 128,-1,6
 583 362 583 362 396 439 c 0,7,8
 266 492 266 492 211 492 c 0,9,10
 152 492 152 492 111.5 456 c 128,-1,11
 71 420 71 420 54 338 c 1,12,-1
 17 338 l 1,13,14
 22 452 22 452 79.5 512 c 128,-1,15
 137 572 137 572 214 572 c 0,16,17
 252 572 252 572 290 561 c 0,18,19
 378 536 378 536 521.5 474.5 c 128,-1,20
 665 413 665 413 724 413 c 0,21,22
 787 413 787 413 830 453.5 c 128,-1,23
 873 494 873 494 880 570 c 1,0,-1
EndSplineSet
EndChar

StartChar: agrave
Encoding: 224 224 20
Width: 1075
Flags: W
LayerCount: 2
Fore
SplineSet
741 331 m 1,0,1
 720 266 720 266 690.5 213 c 128,-1,2
 661 160 661 160 626 114 c 0,3,4
 519 -19 519 -19 400 -19 c 0,5,6
 208 -19 208 -19 159 214 c 0,7,8
 133 334 133 334 157 451 c 128,-1,9
 181 568 181 568 252 683 c 0,10,11
 325 801 325 801 433 860 c 128,-1,12
 541 919 541 919 684 919 c 0,13,14
 712 919 712 919 746 918.5 c 128,-1,15
 780 918 780 918 815.5 916 c 128,-1,16
 851 914 851 914 886 912 c 128,-1,17
 921 910 921 910 952 908 c 1,18,-1
 946 646 l 1,19,-1
 946 647 l 1,20,-1
 950 254 l 2,21,22
 952 209 952 209 954.5 179.5 c 128,-1,23
 957 150 957 150 958 139 c 0,24,25
 961 114 961 114 985 114 c 0,26,27
 1053 114 1053 114 1214 346 c 1,28,-1
 1218 179 l 1,29,30
 1073 -19 1073 -19 925 -19 c 0,31,32
 785 -19 785 -19 753 126 c 0,33,34
 749 146 749 146 747 182 c 128,-1,35
 745 218 745 218 745 264 c 2,36,-1
 741 331 l 1,0,1
737 758 m 1,37,38
 688 775 688 775 647 783.5 c 128,-1,39
 606 792 606 792 561 792 c 0,40,41
 497 792 497 792 453.5 749.5 c 128,-1,42
 410 707 410 707 387 625 c 0,43,44
 362 522 362 522 357 425 c 128,-1,45
 352 328 352 328 368 248 c 0,46,47
 388 146 388 146 437 146 c 0,48,49
 493 146 493 146 589 280 c 0,50,51
 637 352 637 352 674 430 c 128,-1,52
 711 508 711 508 739 599 c 1,53,-1
 737 758 l 1,37,38
627 502 m 1,54,-1
 369 664 l 2,55,56
 347 680 347 680 334 698 c 128,-1,57
 321 716 321 716 321 736 c 0,58,59
 321 760 321 760 336 774.5 c 128,-1,60
 351 789 351 789 378 789 c 0,61,62
 396 789 396 789 410.5 780 c 128,-1,63
 425 771 425 771 448 749 c 2,64,-1
 694 502 l 1,65,-1
 627 502 l 1,54,-1
EndSplineSet
EndChar

StartChar: ocircumflex.001
Encoding: 65539 -1 26
Width: 1112
Flags: W
LayerCount: 2
Fore
SplineSet
416 -19 m 0,0,1
 301 -19 301 -19 205 70 c 0,2,3
 110 160 110 160 85 288 c 0,4,5
 32 528 32 528 170 726 c 0,6,7
 307 928 307 928 522 928 c 0,8,9
 643 928 643 928 742 842 c 1,10,11
 837 753 837 753 864 626 c 0,12,13
 890 499 890 499 869 388.5 c 128,-1,14
 848 278 848 278 781 179 c 0,15,16
 711 79 711 79 619.5 30 c 128,-1,17
 528 -19 528 -19 416 -19 c 0,0,1
483 98 m 0,18,19
 536 98 536 98 573.5 133 c 128,-1,20
 611 168 611 168 637 236 c 0,21,22
 665 310 665 310 668.5 393.5 c 128,-1,23
 672 477 672 477 652 574 c 0,24,25
 602 813 602 813 466 813 c 0,26,27
 365 813 365 813 313 670 c 0,28,29
 284 595 284 595 281 510.5 c 128,-1,30
 278 426 278 426 298 332 c 0,31,32
 324 213 324 213 370 155.5 c 128,-1,33
 416 98 416 98 483 98 c 0,18,19
EndSplineSet
EndChar

StartChar: dagger
Encoding: 8224 8224 30
Width: 932
Flags: W
LayerCount: 2
Fore
SplineSet
347 -231 m 1,0,-1
 567 622 l 1,1,-1
 248 592 l 1,2,-1
 297 700 l 1,3,-1
 576 668 l 1,4,-1
 607 1066 l 1,5,-1
 755 1093 l 1,6,-1
 621 668 l 1,7,-1
 941 700 l 1,8,-1
 895 592 l 1,9,-1
 612 622 l 1,10,-1
 496 -213 l 1,11,-1
 347 -231 l 1,0,-1
EndSplineSet
EndChar

StartChar: degree
Encoding: 176 176 31
Width: 409
Flags: W
LayerCount: 2
Fore
SplineSet
395 844 m 0,0,1
 344 844 344 844 307.5 880 c 128,-1,2
 271 916 271 916 271 968 c 0,3,4
 271 1021 271 1021 307.5 1057 c 128,-1,5
 344 1093 344 1093 395 1093 c 0,6,7
 447 1093 447 1093 483 1057 c 128,-1,8
 519 1021 519 1021 519 968 c 0,9,10
 519 916 519 916 483 880 c 128,-1,11
 447 844 447 844 395 844 c 0,0,1
395 888 m 256,12,13
 427 888 427 888 450.5 912 c 128,-1,14
 474 936 474 936 474 968 c 256,15,16
 474 1000 474 1000 450.5 1024 c 128,-1,17
 427 1048 427 1048 395 1048 c 256,18,19
 363 1048 363 1048 339 1024 c 128,-1,20
 315 1000 315 1000 315 968 c 256,21,22
 315 936 315 936 339 912 c 128,-1,23
 363 888 363 888 395 888 c 256,12,13
EndSplineSet
EndChar

StartChar: bullet
Encoding: 8226 8226 32
Width: 931
Flags: W
LayerCount: 2
Fore
SplineSet
817 662 m 256,0,1
 817 517 817 517 713.5 414 c 128,-1,2
 610 311 610 311 465 311 c 256,3,4
 320 311 320 311 217 414 c 128,-1,5
 114 517 114 517 114 662 c 256,6,7
 114 807 114 807 217 910 c 128,-1,8
 320 1013 320 1013 465 1013 c 256,9,10
 610 1013 610 1013 713.5 910 c 128,-1,11
 817 807 817 807 817 662 c 256,0,1
EndSplineSet
EndChar

StartChar: registered
Encoding: 174 174 33
Width: 897
Flags: W
LayerCount: 2
Fore
SplineSet
580 445 m 0,0,1
 448 445 448 445 354.5 538.5 c 128,-1,2
 261 632 261 632 261 764 c 256,3,4
 261 896 261 896 354.5 990 c 128,-1,5
 448 1084 448 1084 580 1084 c 0,6,7
 714 1084 714 1084 807 990 c 128,-1,8
 900 896 900 896 900 764 c 256,9,10
 900 632 900 632 806.5 538.5 c 128,-1,11
 713 445 713 445 580 445 c 0,0,1
580 484 m 0,12,13
 695 484 695 484 777.5 567 c 128,-1,14
 860 650 860 650 860 764 c 256,15,16
 860 878 860 878 777.5 961 c 128,-1,17
 695 1044 695 1044 580 1044 c 0,18,19
 466 1044 466 1044 383.5 961 c 128,-1,20
 301 878 301 878 301 764 c 256,21,22
 301 650 301 650 383.5 567 c 128,-1,23
 466 484 466 484 580 484 c 0,12,13
529 737 m 1,24,-1
 501 596 l 1,25,-1
 394 596 l 1,26,-1
 403 639 l 1,27,-1
 456 639 l 1,28,-1
 511 915 l 1,29,-1
 458 915 l 1,30,-1
 466 959 l 1,31,-1
 598 959 l 2,32,33
 751 959 751 959 751 875 c 0,34,35
 751 800 751 800 650 750 c 1,36,-1
 685 639 l 1,37,-1
 747 639 l 1,38,-1
 738 596 l 1,39,-1
 641 596 l 1,40,-1
 591 737 l 1,41,-1
 529 737 l 1,24,-1
538 782 m 1,42,-1
 574 782 l 2,43,44
 697 782 697 782 697 866 c 0,45,46
 697 915 697 915 607 915 c 2,47,-1
 564 915 l 1,48,-1
 538 782 l 1,42,-1
EndSplineSet
EndChar

StartChar: copyright
Encoding: 169 169 34
Width: 1244
Flags: W
LayerCount: 2
Fore
SplineSet
725 -27 m 0,0,1
 495 -27 495 -27 330.5 137 c 128,-1,2
 166 301 166 301 166 533 c 256,3,4
 166 765 166 765 330.5 929 c 128,-1,5
 495 1093 495 1093 725 1093 c 0,6,7
 958 1093 958 1093 1122 929 c 128,-1,8
 1286 765 1286 765 1286 533 c 256,9,10
 1286 301 1286 301 1122 137 c 128,-1,11
 958 -27 958 -27 725 -27 c 0,0,1
725 18 m 0,12,13
 939 18 939 18 1090 169 c 128,-1,14
 1241 320 1241 320 1241 533 c 256,15,16
 1241 746 1241 746 1090 897 c 128,-1,17
 939 1048 939 1048 725 1048 c 0,18,19
 513 1048 513 1048 362 897 c 128,-1,20
 211 746 211 746 211 533 c 256,21,22
 211 320 211 320 362 169 c 128,-1,23
 513 18 513 18 725 18 c 0,12,13
890 246 m 1,24,25
 785 213 785 213 704 213 c 0,26,27
 580 213 580 213 508 279.5 c 128,-1,28
 436 346 436 346 436 462 c 0,29,30
 436 625 436 625 541 734.5 c 128,-1,31
 646 844 646 844 805 844 c 0,32,33
 896 844 896 844 1003 814 c 1,34,-1
 967 675 l 1,35,-1
 915 684 l 1,36,-1
 923 766 l 1,37,38
 854 798 854 798 792 798 c 0,39,40
 688 798 688 798 616 700 c 128,-1,41
 544 602 544 602 544 462 c 0,42,43
 544 271 544 271 722 271 c 0,44,45
 823 271 823 271 902 307 c 1,46,-1
 890 246 l 1,24,25
EndSplineSet
EndChar

StartChar: trademark
Encoding: 8482 8482 35
Width: 1333
Flags: W
LayerCount: 2
Fore
SplineSet
440 1021 m 1,0,-1
 307 1021 l 1,1,-1
 288 923 l 1,2,-1
 225 923 l 1,3,-1
 254 1066 l 1,4,-1
 751 1066 l 1,5,-1
 723 923 l 1,6,-1
 661 923 l 1,7,-1
 679 1021 l 1,8,-1
 546 1021 l 1,9,-1
 456 569 l 1,10,-1
 554 569 l 1,11,-1
 545 524 l 1,12,-1
 243 524 l 1,13,-1
 253 569 l 1,14,-1
 350 569 l 1,15,-1
 440 1021 l 1,0,-1
1011 569 m 1,16,-1
 942 956 l 1,17,-1
 857 524 l 1,18,-1
 688 524 l 1,19,-1
 697 569 l 1,20,-1
 794 569 l 1,21,-1
 884 1021 l 1,22,-1
 787 1021 l 1,23,-1
 796 1066 l 1,24,-1
 1036 1066 l 1,25,-1
 1092 747 l 1,26,-1
 1265 1066 l 1,27,-1
 1481 1066 l 1,28,-1
 1473 1021 l 1,29,-1
 1375 1021 l 1,30,-1
 1285 569 l 1,31,-1
 1383 569 l 1,32,-1
 1373 524 l 1,33,-1
 1178 524 l 1,34,-1
 1270 985 l 1,35,-1
 1041 569 l 1,36,-1
 1011 569 l 1,16,-1
EndSplineSet
EndChar

StartChar: logicalnot
Encoding: 172 172 39
Width: 932
Flags: W
LayerCount: 2
Fore
SplineSet
177 510 m 1,0,-1
 193 590 l 1,1,-1
 975 590 l 1,2,-1
 906 248 l 1,3,-1
 814 248 l 1,4,-1
 866 510 l 1,5,-1
 177 510 l 1,0,-1
EndSplineSet
EndChar

StartChar: florin
Encoding: 402 402 40
Width: 679
Flags: W
LayerCount: 2
Fore
SplineSet
158 -231 m 1,0,-1
 210 -18 l 1,1,-1
 286 364 l 1,2,-1
 108 364 l 1,3,-1
 117 409 l 1,4,-1
 294 409 l 1,5,-1
 298 427 l 2,6,7
 330 586 330 586 463 692.5 c 128,-1,8
 596 799 596 799 761 799 c 0,9,10
 818 799 818 799 860 784 c 1,11,-1
 764 678 l 1,12,13
 712 729 712 729 643 729 c 0,14,15
 500 729 500 729 457 512 c 2,16,-1
 436 409 l 1,17,-1
 623 409 l 1,18,-1
 614 364 l 1,19,-1
 427 364 l 1,20,-1
 313 -213 l 1,21,-1
 158 -231 l 1,0,-1
EndSplineSet
EndChar

StartChar: ellipsis
Encoding: 8230 8230 41
Width: 1827
Flags: W
LayerCount: 2
Fore
SplineSet
758 113 m 0,0,1
 758 144 758 144 809.5 245.5 c 128,-1,2
 861 347 861 347 876 355 c 0,3,4
 907 369 907 369 964.5 307.5 c 128,-1,5
 1022 246 1022 246 1026 211 c 1,6,7
 1026 166 1026 166 977.5 79.5 c 128,-1,8
 929 -7 929 -7 908 -7 c 0,9,10
 899 -7 899 -7 851 26.5 c 128,-1,11
 803 60 803 60 778 79 c 0,12,13
 758 96 758 96 758 113 c 0,0,1
1308 113 m 0,14,15
 1308 144 1308 144 1359 245.5 c 128,-1,16
 1410 347 1410 347 1426 355 c 0,17,18
 1457 369 1457 369 1514.5 307.5 c 128,-1,19
 1572 246 1572 246 1575 211 c 0,20,21
 1575 166 1575 166 1527 79.5 c 128,-1,22
 1479 -7 1479 -7 1458 -7 c 0,23,24
 1449 -7 1449 -7 1401 26.5 c 128,-1,25
 1353 60 1353 60 1328 79 c 0,26,27
 1308 96 1308 96 1308 113 c 0,14,15
211 113 m 0,28,29
 211 144 211 144 262 245.5 c 128,-1,30
 313 347 313 347 329 355 c 0,31,32
 360 369 360 369 417.5 307.5 c 128,-1,33
 475 246 475 246 478 211 c 0,34,35
 478 166 478 166 430 79.5 c 128,-1,36
 382 -7 382 -7 361 -7 c 0,37,38
 352 -7 352 -7 304 26.5 c 128,-1,39
 256 60 256 60 231 79 c 0,40,41
 211 96 211 96 211 113 c 0,28,29
EndSplineSet
EndChar

StartChar: endash
Encoding: 8211 8211 42
Width: 434
Flags: W
LayerCount: 2
Fore
SplineSet
434 154 m 1,0,-1
 0 154 l 1,1,-1
 0 234 l 1,2,-1
 434 234 l 1,3,-1
 434 154 l 1,0,-1
EndSplineSet
EndChar

StartChar: emdash
Encoding: 8212 8212 43
Width: 1862
Flags: W
LayerCount: 2
Fore
SplineSet
1866 572 m 1,0,-1
 -4 572 l 1,1,-1
 -4 732 l 1,2,-1
 1866 732 l 1,3,-1
 1866 572 l 1,0,-1
EndSplineSet
EndChar

StartChar: quotedblleft
Encoding: 8220 8220 44
Width: 613
Flags: W
LayerCount: 2
Fore
SplineSet
340 1193 m 0,0,1
 341 1258 341 1258 385 1321.5 c 128,-1,2
 429 1385 429 1385 483 1411 c 1,3,-1
 514 1353 l 1,4,5
 498 1344 498 1344 476 1320 c 128,-1,6
 454 1296 454 1296 444 1258 c 1,7,8
 510 1230 510 1230 507 1175 c 0,9,10
 507 1159 507 1159 500.5 1144.5 c 128,-1,11
 494 1130 494 1130 483.5 1119 c 128,-1,12
 473 1108 473 1108 458 1101.5 c 128,-1,13
 443 1095 443 1095 427 1095 c 0,14,15
 406 1095 406 1095 390 1103.5 c 128,-1,16
 374 1112 374 1112 363 1125.5 c 128,-1,17
 352 1139 352 1139 346 1157 c 128,-1,18
 340 1175 340 1175 340 1193 c 0,0,1
121 1193 m 0,19,20
 122 1258 122 1258 166 1321.5 c 128,-1,21
 210 1385 210 1385 265 1411 c 1,22,-1
 296 1353 l 1,23,24
 280 1344 280 1344 258 1320 c 128,-1,25
 236 1296 236 1296 226 1258 c 1,26,27
 292 1230 292 1230 289 1175 c 0,28,29
 289 1159 289 1159 282.5 1144.5 c 128,-1,30
 276 1130 276 1130 265 1119 c 128,-1,31
 254 1108 254 1108 239 1101.5 c 128,-1,32
 224 1095 224 1095 208 1095 c 0,33,34
 188 1095 188 1095 171.5 1103.5 c 128,-1,35
 155 1112 155 1112 144 1125.5 c 128,-1,36
 133 1139 133 1139 127 1157 c 128,-1,37
 121 1175 121 1175 121 1193 c 0,19,20
EndSplineSet
EndChar

StartChar: quotedblright
Encoding: 8221 8221 45
Width: 597
Flags: W
LayerCount: 2
Fore
SplineSet
295 1323 m 0,0,1
 294 1258 294 1258 250 1194.5 c 128,-1,2
 206 1131 206 1131 152 1105 c 1,3,-1
 121 1163 l 1,4,5
 137 1172 137 1172 159 1196 c 128,-1,6
 181 1220 181 1220 191 1258 c 1,7,8
 125 1286 125 1286 128 1341 c 0,9,10
 128 1357 128 1357 134.5 1371.5 c 128,-1,11
 141 1386 141 1386 151.5 1397 c 128,-1,12
 162 1408 162 1408 176.5 1414.5 c 128,-1,13
 191 1421 191 1421 208 1421 c 0,14,15
 229 1421 229 1421 245 1412.5 c 128,-1,16
 261 1404 261 1404 272 1390.5 c 128,-1,17
 283 1377 283 1377 289 1359 c 128,-1,18
 295 1341 295 1341 295 1323 c 0,0,1
514 1323 m 0,19,20
 513 1258 513 1258 469 1194.5 c 128,-1,21
 425 1131 425 1131 370 1105 c 1,22,-1
 339 1163 l 1,23,24
 355 1172 355 1172 377 1196 c 128,-1,25
 399 1220 399 1220 409 1258 c 1,26,27
 343 1286 343 1286 346 1341 c 0,28,29
 346 1357 346 1357 352.5 1371.5 c 128,-1,30
 359 1386 359 1386 370 1397 c 128,-1,31
 381 1408 381 1408 395.5 1414.5 c 128,-1,32
 410 1421 410 1421 427 1421 c 0,33,34
 447 1421 447 1421 463 1412.5 c 128,-1,35
 479 1404 479 1404 490.5 1390.5 c 128,-1,36
 502 1377 502 1377 508 1359 c 128,-1,37
 514 1341 514 1341 514 1323 c 0,19,20
EndSplineSet
EndChar

StartChar: divide
Encoding: 247 247 46
Width: 964
Flags: W
LayerCount: 2
Fore
SplineSet
477 648 m 0,0,1
 440 648 440 648 414.5 674 c 128,-1,2
 389 700 389 700 389 736 c 0,3,4
 389 773 389 773 414.5 799 c 128,-1,5
 440 825 440 825 477 825 c 0,6,7
 513 825 513 825 539 799 c 128,-1,8
 565 773 565 773 565 736 c 0,9,10
 565 700 565 700 539 674 c 128,-1,11
 513 648 513 648 477 648 c 0,0,1
477 46 m 0,12,13
 440 46 440 46 414.5 71.5 c 128,-1,14
 389 97 389 97 389 134 c 0,15,16
 389 170 389 170 414.5 196 c 128,-1,17
 440 222 440 222 477 222 c 0,18,19
 513 222 513 222 539 196 c 128,-1,20
 565 170 565 170 565 134 c 0,21,22
 565 97 565 97 539 71.5 c 128,-1,23
 513 46 513 46 477 46 c 0,12,13
889 377 m 1,24,-1
 86 377 l 1,25,-1
 86 491 l 1,26,-1
 889 491 l 1,27,-1
 889 377 l 1,24,-1
EndSplineSet
EndChar

StartChar: lozenge
Encoding: 9674 9674 47
Width: 1118
Flags: W
LayerCount: 2
Fore
SplineSet
1003 699 m 1,0,-1
 560 197 l 1,1,-1
 117 699 l 1,2,-1
 560 1202 l 1,3,-1
 1003 699 l 1,0,-1
848 699 m 1,4,-1
 560 1036 l 1,5,-1
 271 699 l 1,6,-1
 560 364 l 1,7,-1
 848 699 l 1,4,-1
EndSplineSet
EndChar

StartChar: fraction
Encoding: 8260 8260 48
Width: 742
Flags: W
LayerCount: 2
Fore
SplineSet
740 1101 m 1,0,-1
 101 -82 l 1,1,-1
 -9 -82 l 1,2,-1
 629 1101 l 1,3,-1
 740 1101 l 1,0,-1
EndSplineSet
EndChar

StartChar: guilsinglleft
Encoding: 8249 8249 49
Width: 1117
Flags: W
LayerCount: 2
Fore
SplineSet
955 58 m 1,0,-1
 150 444 l 1,1,-1
 150 534 l 1,2,-1
 955 918 l 1,3,-1
 955 784 l 1,4,-1
 331 489 l 1,5,-1
 955 192 l 1,6,-1
 955 58 l 1,0,-1
EndSplineSet
EndChar

StartChar: daggerdbl
Encoding: 8225 8225 52
Width: 932
Flags: W
LayerCount: 2
Fore
SplineSet
349 -231 m 1,0,-1
 481 185 l 1,1,-1
 161 154 l 1,2,-1
 211 261 l 1,3,-1
 490 229 l 1,4,-1
 567 616 l 1,5,-1
 247 586 l 1,6,-1
 297 693 l 1,7,-1
 575 661 l 1,8,-1
 608 1066 l 1,9,-1
 758 1093 l 1,10,-1
 620 661 l 1,11,-1
 940 693 l 1,12,-1
 889 586 l 1,13,-1
 611 616 l 1,14,-1
 535 229 l 1,15,-1
 855 261 l 1,16,-1
 804 154 l 1,17,-1
 525 185 l 1,18,-1
 499 -213 l 1,19,-1
 349 -231 l 1,0,-1
EndSplineSet
EndChar

StartChar: middot.001
Encoding: 8729 8729 53
Width: 620
Flags: W
LayerCount: 2
Fore
SplineSet
429 516 m 1,0,-1
 190 516 l 1,1,-1
 190 789 l 1,2,-1
 429 789 l 1,3,-1
 429 516 l 1,0,-1
EndSplineSet
EndChar

StartChar: quotesinglbase
Encoding: 8218 8218 54
Width: 418
Flags: W
LayerCount: 2
Fore
SplineSet
103 128 m 1,0,-1
 247 231 l 1,1,-1
 353 90 l 1,2,3
 345 -56 345 -56 262.5 -134.5 c 128,-1,4
 180 -213 180 -213 36 -213 c 1,5,-1
 76 -168 l 1,6,7
 189 -158 189 -158 211 -18 c 1,8,-1
 103 128 l 1,0,-1
EndSplineSet
EndChar

StartChar: quotedblbase
Encoding: 8222 8222 55
Width: 684
Flags: W
LayerCount: 2
Fore
SplineSet
91 92 m 1,0,-1
 204 178 l 1,1,-1
 292 64 l 1,2,3
 270 -213 270 -213 31 -213 c 1,4,-1
 60 -168 l 1,5,6
 166 -148 166 -148 179 -16 c 1,7,-1
 91 92 l 1,0,-1
401 92 m 1,8,-1
 516 178 l 1,9,-1
 602 64 l 1,10,11
 581 -213 581 -213 341 -213 c 1,12,-1
 372 -168 l 1,13,14
 476 -148 476 -148 490 -16 c 1,15,-1
 401 92 l 1,8,-1
EndSplineSet
EndChar

StartChar: perthousand
Encoding: 8240 8240 56
Width: 1571
Flags: W
LayerCount: 2
Fore
SplineSet
385 533 m 0,0,1
 304 533 304 533 254.5 584.5 c 128,-1,2
 205 636 205 636 205 722 c 0,3,4
 205 865 205 865 286.5 965.5 c 128,-1,5
 368 1066 368 1066 483 1066 c 0,6,7
 567 1066 567 1066 617.5 1014.5 c 128,-1,8
 668 963 668 963 668 877 c 0,9,10
 668 733 668 733 585.5 633 c 128,-1,11
 503 533 503 533 385 533 c 0,0,1
311 715 m 0,12,13
 311 578 311 578 398 578 c 0,14,15
 463 578 463 578 517 671.5 c 128,-1,16
 571 765 571 765 571 881 c 0,17,18
 571 1022 571 1022 483 1022 c 0,19,20
 416 1022 416 1022 363.5 928 c 128,-1,21
 311 834 311 834 311 715 c 0,12,13
850 0 m 0,22,23
 769 0 769 0 719.5 51.5 c 128,-1,24
 670 103 670 103 670 189 c 0,25,26
 670 331 670 331 751 432 c 128,-1,27
 832 533 832 533 947 533 c 0,28,29
 1031 533 1031 533 1081.5 481.5 c 128,-1,30
 1132 430 1132 430 1132 344 c 0,31,32
 1132 200 1132 200 1049.5 100 c 128,-1,33
 967 0 967 0 850 0 c 0,22,23
776 182 m 0,34,35
 776 44 776 44 862 44 c 0,36,37
 929 44 929 44 982 138 c 128,-1,38
 1035 232 1035 232 1035 348 c 0,39,40
 1035 490 1035 490 948 490 c 0,41,42
 880 490 880 490 828 395.5 c 128,-1,43
 776 301 776 301 776 182 c 0,34,35
131 -27 m 1,44,-1
 1111 1093 l 1,45,-1
 1206 1093 l 1,46,-1
 225 -27 l 1,47,-1
 131 -27 l 1,44,-1
1376 0 m 0,48,49
 1294 0 1294 0 1244.5 51.5 c 128,-1,50
 1195 103 1195 103 1195 189 c 0,51,52
 1195 331 1195 331 1276.5 432 c 128,-1,53
 1358 533 1358 533 1473 533 c 0,54,55
 1557 533 1557 533 1607.5 481.5 c 128,-1,56
 1658 430 1658 430 1658 344 c 0,57,58
 1658 200 1658 200 1575.5 100 c 128,-1,59
 1493 0 1493 0 1376 0 c 0,48,49
1301 183 m 0,60,61
 1301 44 1301 44 1389 44 c 0,62,63
 1453 44 1453 44 1507 138 c 128,-1,64
 1561 232 1561 232 1561 347 c 0,65,66
 1561 490 1561 490 1473 490 c 0,67,68
 1406 490 1406 490 1353.5 395.5 c 128,-1,69
 1301 301 1301 301 1301 183 c 0,60,61
EndSplineSet
EndChar

StartChar: multiply
Encoding: 215 215 60
Width: 825
Flags: W
LayerCount: 2
Fore
SplineSet
695 99 m 1,0,-1
 411 383 l 1,1,-1
 126 98 l 1,2,-1
 45 179 l 1,3,-1
 330 464 l 1,4,-1
 47 747 l 1,5,-1
 127 827 l 1,6,-1
 410 543 l 1,7,-1
 693 829 l 1,8,-1
 774 747 l 1,9,-1
 492 465 l 1,10,-1
 776 180 l 1,11,-1
 695 99 l 1,0,-1
EndSplineSet
EndChar

StartChar: macron
Encoding: 175 175 61
Width: 1118
Flags: W
LayerCount: 2
Fore
SplineSet
1134 1259 m 1,0,-1
 -16 1259 l 1,1,-1
 -16 1389 l 1,2,-1
 1134 1389 l 1,3,-1
 1134 1259 l 1,0,-1
EndSplineSet
EndChar

StartChar: periodcentered
Encoding: 183 183 62
Width: 724
Flags: W
LayerCount: 2
Fore
SplineSet
482 832 m 1,0,-1
 243 832 l 1,1,-1
 243 1117 l 1,2,-1
 482 1117 l 1,3,-1
 482 832 l 1,0,-1
EndSplineSet
EndChar

StartChar: H22073
Encoding: 9633 9633 63
Width: 1237
Flags: W
LayerCount: 2
Fore
SplineSet
146 944 m 1,0,-1
 1090 944 l 1,1,-1
 1090 0 l 1,2,-1
 146 0 l 1,3,-1
 146 944 l 1,0,-1
222 868 m 1,4,-1
 222 76 l 1,5,-1
 1014 76 l 1,6,-1
 1014 868 l 1,7,-1
 222 868 l 1,4,-1
EndSplineSet
EndChar

StartChar: H18543
Encoding: 9642 9642 64
Width: 1089
Flags: W
LayerCount: 2
Fore
SplineSet
886 894 m 1,0,-1
 886 200 l 1,1,-1
 192 200 l 1,2,-1
 192 894 l 1,3,-1
 886 894 l 1,0,-1
EndSplineSet
EndChar

StartChar: H18551
Encoding: 9643 9643 65
Width: 1089
Flags: W
LayerCount: 2
Fore
SplineSet
888 930 m 1,0,-1
 888 235 l 1,1,-1
 193 235 l 1,2,-1
 193 930 l 1,3,-1
 888 930 l 1,0,-1
774 816 m 1,4,-1
 307 816 l 1,5,-1
 307 349 l 1,6,-1
 774 349 l 1,7,-1
 774 816 l 1,4,-1
EndSplineSet
EndChar

StartChar: H18533
Encoding: 9679 9679 66
Width: 1339
Flags: W
LayerCount: 2
Fore
SplineSet
204 775 m 0,0,1
 204 976 204 976 345 1117 c 128,-1,2
 486 1258 486 1258 685 1258 c 0,3,4
 885 1258 885 1258 1026 1117 c 128,-1,5
 1167 976 1167 976 1167 775 c 0,6,7
 1167 577 1167 577 1026 436 c 128,-1,8
 885 295 885 295 685 295 c 0,9,10
 486 295 486 295 345 436 c 128,-1,11
 204 577 204 577 204 775 c 0,0,1
EndSplineSet
EndChar

StartChar: openbullet
Encoding: 9702 9702 67
Width: 1089
Flags: W
LayerCount: 2
Fore
SplineSet
544 1392 m 0,0,1
 700 1392 700 1392 810.5 1281.5 c 128,-1,2
 921 1171 921 1171 921 1015 c 256,3,4
 921 859 921 859 810.5 749 c 128,-1,5
 700 639 700 639 544 639 c 256,6,7
 388 639 388 639 278 749 c 128,-1,8
 168 859 168 859 168 1015 c 256,9,10
 168 1171 168 1171 277.5 1281.5 c 128,-1,11
 387 1392 387 1392 544 1392 c 0,0,1
544 1278 m 0,12,13
 435 1278 435 1278 358.5 1200.5 c 128,-1,14
 282 1123 282 1123 282 1015 c 0,15,16
 282 906 282 906 359 829.5 c 128,-1,17
 436 753 436 753 544 753 c 256,18,19
 652 753 652 753 729.5 829.5 c 128,-1,20
 807 906 807 906 807 1015 c 0,21,22
 807 1123 807 1123 730.5 1200.5 c 128,-1,23
 654 1278 654 1278 544 1278 c 0,12,13
EndSplineSet
EndChar

StartChar: uniFFFC
Encoding: 65532 65532 68
Width: 2048
Flags: W
LayerCount: 2
Fore
SplineSet
2048 1150 m 1,0,-1
 1948 1150 l 1,1,-1
 1948 1373 l 1,2,-1
 1725 1373 l 1,3,-1
 1725 1473 l 1,4,-1
 2048 1473 l 1,5,-1
 2048 1150 l 1,0,-1
1473 1373 m 1,6,-1
 1150 1373 l 1,7,-1
 1150 1473 l 1,8,-1
 1473 1473 l 1,9,-1
 1473 1373 l 1,6,-1
2048 575 m 1,10,-1
 1948 575 l 1,11,-1
 1948 898 l 1,12,-1
 2048 898 l 1,13,-1
 2048 575 l 1,10,-1
1782 611 m 2,14,15
 1782 370 1782 370 1571 370 c 0,16,17
 1485 370 1485 370 1433 415 c 1,18,-1
 1506 494 l 1,19,20
 1531 468 1531 468 1571 468 c 0,21,22
 1666 468 1666 468 1666 606 c 2,23,-1
 1666 1090 l 1,24,-1
 1782 1090 l 1,25,-1
 1782 611 l 2,14,15
898 1373 m 1,26,-1
 575 1373 l 1,27,-1
 575 1473 l 1,28,-1
 898 1473 l 1,29,-1
 898 1373 l 1,26,-1
2048 0 m 1,30,-1
 1725 0 l 1,31,-1
 1725 100 l 1,32,-1
 1948 100 l 1,33,-1
 1948 323 l 1,34,-1
 2048 323 l 1,35,-1
 2048 0 l 1,30,-1
1423 591 m 0,36,37
 1423 382 1423 382 1149 382 c 2,38,-1
 909 382 l 1,39,-1
 909 1090 l 1,40,-1
 1144 1090 l 2,41,42
 1393 1090 1393 1090 1393 904 c 0,43,44
 1393 813 1393 813 1304 759 c 1,45,46
 1423 713 1423 713 1423 591 c 0,36,37
323 1373 m 1,47,-1
 100 1373 l 1,48,-1
 100 1150 l 1,49,-1
 0 1150 l 1,50,-1
 0 1473 l 1,51,-1
 323 1473 l 1,52,-1
 323 1373 l 1,47,-1
1473 0 m 1,53,-1
 1150 0 l 1,54,-1
 1150 100 l 1,55,-1
 1473 100 l 1,56,-1
 1473 0 l 1,53,-1
854 735 m 0,57,58
 854 562 854 562 772 466 c 128,-1,59
 690 370 690 370 537 370 c 256,60,61
 384 370 384 370 303.5 466 c 128,-1,62
 223 562 223 562 223 735 c 0,63,64
 223 910 223 910 303.5 1006 c 128,-1,65
 384 1102 384 1102 537 1102 c 256,66,67
 690 1102 690 1102 772 1006 c 128,-1,68
 854 910 854 910 854 735 c 0,57,58
100 575 m 1,69,-1
 0 575 l 1,70,-1
 0 898 l 1,71,-1
 100 898 l 1,72,-1
 100 575 l 1,69,-1
898 0 m 1,73,-1
 575 0 l 1,74,-1
 575 100 l 1,75,-1
 898 100 l 1,76,-1
 898 0 l 1,73,-1
323 0 m 1,77,-1
 0 0 l 1,78,-1
 0 323 l 1,79,-1
 100 323 l 1,80,-1
 100 100 l 1,81,-1
 323 100 l 1,82,-1
 323 0 l 1,77,-1
1277 893 m 0,83,84
 1277 992 1277 992 1114 992 c 2,85,-1
 1025 992 l 1,86,-1
 1025 798 l 1,87,-1
 1126 798 l 2,88,89
 1277 798 1277 798 1277 893 c 0,83,84
1307 591 m 0,90,91
 1307 700 1307 700 1136 700 c 2,92,-1
 1025 700 l 1,93,-1
 1025 480 l 1,94,-1
 1149 480 l 2,95,96
 1307 480 1307 480 1307 591 c 0,90,91
738 735 m 0,97,98
 738 1004 738 1004 537 1004 c 0,99,100
 339 1004 339 1004 339 735 c 0,101,102
 339 468 339 468 537 468 c 0,103,104
 738 468 738 468 738 735 c 0,97,98
EndSplineSet
EndChar

StartChar: zerowidthnonjoiner
Encoding: 8204 8204 88
Width: 0
GlyphClass: 2
Flags: W
LayerCount: 2
Fore
SplineSet
36 1289 m 1,0,-1
 36 -275 l 1,1,-1
 -36 -275 l 1,2,-1
 -36 1289 l 1,3,-1
 36 1289 l 1,0,-1
EndSplineSet
EndChar

StartChar: zerowidthjoiner
Encoding: 8205 8205 89
Width: 0
GlyphClass: 2
Flags: W
LayerCount: 2
Fore
SplineSet
36 -275 m 1,0,-1
 -36 -275 l 1,1,-1
 -36 1114 l 1,2,-1
 -170 978 l 1,3,-1
 -219 1027 l 1,4,-1
 -48 1196 l 1,5,-1
 -219 1364 l 1,6,-1
 -170 1413 l 1,7,-1
 0 1242 l 1,8,-1
 170 1413 l 1,9,-1
 219 1364 l 1,10,-1
 48 1196 l 1,11,-1
 219 1027 l 1,12,-1
 170 978 l 1,13,-1
 36 1114 l 1,14,-1
 36 -275 l 1,0,-1
EndSplineSet
EndChar

StartChar: lefttorightmark
Encoding: 8206 8206 90
Width: 0
GlyphClass: 2
Flags: W
LayerCount: 2
Fore
SplineSet
430 1198 m 1,0,-1
 213 984 l 1,1,-1
 164 1033 l 1,2,-1
 301 1163 l 1,3,-1
 35 1163 l 1,4,-1
 35 -275 l 1,5,-1
 -36 -275 l 1,6,-1
 -36 1234 l 1,7,-1
 301 1234 l 1,8,-1
 164 1364 l 1,9,-1
 213 1413 l 1,10,-1
 430 1198 l 1,0,-1
EndSplineSet
EndChar

StartChar: righttoleftmark
Encoding: 8207 8207 91
Width: 0
GlyphClass: 2
Flags: W
LayerCount: 2
Fore
SplineSet
35 -275 m 1,0,-1
 -36 -275 l 1,1,-1
 -36 1163 l 1,2,-1
 -302 1163 l 1,3,-1
 -165 1033 l 1,4,-1
 -214 984 l 1,5,-1
 -431 1198 l 1,6,-1
 -214 1413 l 1,7,-1
 -165 1364 l 1,8,-1
 -302 1234 l 1,9,-1
 35 1234 l 1,10,-1
 35 -275 l 1,0,-1
EndSplineSet
EndChar

StartChar: afii57388.001
Encoding: 1644 1644 92
Width: 353
GlyphClass: 2
Flags: W
LayerCount: 2
Fore
SplineSet
210 654 m 0,0,1
 200 627 200 627 185 603 c 0,2,3
 180 597 180 597 173.5 593.5 c 128,-1,4
 167 590 167 590 162 590 c 128,-1,5
 157 590 157 590 154.5 593 c 128,-1,6
 152 596 152 596 155 603 c 0,7,8
 187 660 187 660 202.5 713.5 c 128,-1,9
 218 767 218 767 218 800 c 1,10,11
 194 806 194 806 179 816 c 128,-1,12
 164 826 164 826 155 837.5 c 128,-1,13
 146 849 146 849 143 859 c 128,-1,14
 140 869 140 869 140 874 c 0,15,16
 140 890 140 890 145.5 907 c 128,-1,17
 151 924 151 924 160.5 937.5 c 128,-1,18
 170 951 170 951 183.5 959.5 c 128,-1,19
 197 968 197 968 213 968 c 0,20,21
 272 968 272 968 272 874 c 0,22,23
 272 859 272 859 268 835 c 128,-1,24
 264 811 264 811 256 781.5 c 128,-1,25
 248 752 248 752 236.5 719.5 c 128,-1,26
 225 687 225 687 210 654 c 0,0,1
EndSplineSet
EndChar

StartChar: afii57409
Encoding: 1569 1569 93
Width: 766
GlyphClass: 2
Flags: W
AnchorPoint: "Anchor-3" 390 -390 basechar 0
AnchorPoint: "Anchor-2" 420 570 basechar 0
LayerCount: 2
Fore
SplineSet
672 132 m 0,0,1
 672 66 672 66 549 49 c 0,2,3
 357 25 357 25 287 -7 c 1,4,-1
 235 -7 l 1,5,-1
 235 20 l 1,6,-1
 307 70 l 2,7,8
 322 80 322 80 351 97 c 1,9,-1
 304 185 l 2,10,11
 279 230 279 230 279 262 c 0,12,13
 279 312 279 312 363 382 c 0,14,15
 442 449 442 449 494 449 c 0,16,17
 521 449 521 449 560 415 c 128,-1,18
 599 381 599 381 599 354 c 0,19,20
 599 335 599 335 556 246 c 1,21,22
 528 263 528 263 470 309 c 1,23,-1
 406 309 l 1,24,25
 395 294 395 294 395 279 c 0,26,27
 395 193 395 193 493 165 c 0,28,29
 543 151 543 151 662 151 c 1,30,31
 662 147 662 147 667 140.5 c 128,-1,32
 672 134 672 134 672 132 c 0,0,1
EndSplineSet
EndChar

StartChar: afii57440
Encoding: 1600 1600 94
Width: 678
GlyphClass: 2
Flags: W
LayerCount: 2
Fore
SplineSet
698 0 m 1,0,-1
 -22 0 l 1,1,-1
 -22 203 l 1,2,-1
 698 203 l 1,3,-1
 698 0 l 1,0,-1
EndSplineSet
EndChar

StartChar: afii57453
Encoding: 1613 1613 95
Width: 0
GlyphClass: 4
Flags: W
AnchorPoint: "Anchor-3" 0 0 mark 0
AnchorPoint: "Anchor-1" 0 0 mark 0
LayerCount: 2
Fore
SplineSet
-206 84 m 0,0,1
 -191 101 -191 101 -160 120 c 0,2,3
 -151 125 -151 125 -133 134 c 2,4,-1
 233 299 l 1,5,-1
 227 258 l 2,6,7
 221 210 221 210 188 185 c 1,8,-1
 -235 6 l 1,9,10
 -230 28 -230 28 -227 37 c 0,11,12
 -217 74 -217 74 -206 84 c 0,0,1
-206 -96 m 0,13,14
 -191 -79 -191 -79 -160 -60 c 0,15,16
 -151 -55 -151 -55 -133 -46 c 2,17,-1
 233 119 l 1,18,-1
 227 78 l 2,19,20
 221 30 221 30 188 5 c 1,21,-1
 -235 -174 l 1,22,23
 -230 -152 -230 -152 -227 -143 c 0,24,25
 -217 -106 -217 -106 -206 -96 c 0,13,14
EndSplineSet
EndChar

StartChar: afii57381
Encoding: 1642 1642 96
Width: 955
GlyphClass: 2
Flags: W
LayerCount: 2
Fore
SplineSet
194 916 m 0,0,1
 95 916 95 916 95 1012 c 0,2,3
 95 1118 95 1118 199 1118 c 0,4,5
 295 1118 295 1118 295 1012 c 0,6,7
 295 916 295 916 194 916 c 0,0,1
685 991 m 2,8,-1
 578 713 l 2,9,10
 521 559 521 559 512 530 c 0,11,12
 449 379 449 379 395 224 c 0,13,14
 290 -74 290 -74 251 -74 c 0,15,16
 233 -74 233 -74 164 -34 c 1,17,-1
 641 1208 l 1,18,19
 683 1194 683 1194 706 1187 c 0,20,21
 739 1174 739 1174 739 1146 c 0,22,23
 739 1135 739 1135 685 991 c 2,8,-1
760 47 m 0,24,25
 727 18 727 18 697 18 c 0,26,27
 654 18 654 18 618 59 c 0,28,29
 589 92 589 92 589 120 c 0,30,31
 589 162 589 162 616.5 191.5 c 128,-1,32
 644 221 644 221 686 221 c 0,33,34
 798 221 798 221 798 125 c 0,35,36
 798 80 798 80 760 47 c 0,24,25
EndSplineSet
EndChar

StartChar: afii57461
Encoding: 1643 1643 97
Width: 536
GlyphClass: 2
Flags: W
LayerCount: 2
Fore
SplineSet
518 521 m 1,0,-1
 115 -382 l 1,1,-1
 19 -352 l 1,2,-1
 425 551 l 1,3,-1
 518 521 l 1,0,-1
EndSplineSet
EndChar

StartChar: afii63167
Encoding: 1645 1645 98
Width: 1118
GlyphClass: 2
Flags: W
LayerCount: 2
Fore
SplineSet
694 729 m 1,0,-1
 1057 733 l 1,1,-1
 1057 610 l 1,2,-1
 702 612 l 1,3,-1
 971 352 l 1,4,-1
 883 264 l 1,5,-1
 616 539 l 1,6,-1
 623 168 l 1,7,-1
 498 168 l 1,8,-1
 502 539 l 1,9,-1
 236 264 l 1,10,-1
 147 352 l 1,11,-1
 422 614 l 1,12,-1
 63 610 l 1,13,-1
 63 733 l 1,14,-1
 420 729 l 1,15,-1
 170 975 l 1,16,-1
 258 1065 l 1,17,-1
 502 817 l 1,18,-1
 498 1176 l 1,19,-1
 623 1176 l 1,20,-1
 616 813 l 1,21,-1
 860 1065 l 1,22,-1
 948 975 l 1,23,-1
 694 729 l 1,0,-1
EndSplineSet
EndChar

StartChar: afii57459
Encoding: 65543 -1 99
Width: 626
GlyphClass: 2
Flags: W
LayerCount: 2
Fore
SplineSet
577 470 m 0,0,1
 577 192 577 192 461 84 c 0,2,3
 368 0 368 0 160 0 c 2,4,-1
 -24 0 l 1,5,-1
 -24 203 l 1,6,-1
 59 203 l 2,7,8
 490 203 490 203 490 372 c 0,9,10
 490 382 490 382 482 398 c 0,11,12
 475 409 475 409 469 419 c 1,13,-1
 438 419 l 1,14,15
 384 360 384 360 339 342 c 0,16,17
 312 332 312 332 260 332 c 0,18,19
 175 332 175 332 154 364 c 0,20,21
 136 389 136 389 136 487 c 0,22,23
 136 578 136 578 186 715 c 0,24,25
 246 878 246 878 319 878 c 0,26,27
 407 878 407 878 496 715 c 0,28,29
 577 570 577 570 577 470 c 0,0,1
365 574 m 0,30,31
 365 592 365 592 338.5 618 c 128,-1,32
 312 644 312 644 295 644 c 0,33,34
 283 644 283 644 258 601 c 0,35,36
 253 592 253 592 234 556 c 1,37,38
 240 539 240 539 260.5 527 c 128,-1,39
 281 515 281 515 295 515 c 0,40,41
 311 515 311 515 338 538 c 128,-1,42
 365 561 365 561 365 574 c 0,30,31
EndSplineSet
EndChar

StartChar: afii57543
Encoding: 65544 -1 100
Width: 633
Flags: W
LayerCount: 2
Fore
SplineSet
671 0 m 1,0,-1
 538 0 l 2,1,2
 447 0 447 0 335 139 c 1,3,4
 154 0 154 0 88 0 c 2,5,-1
 -15 0 l 1,6,-1
 -15 203 l 1,7,-1
 111 203 l 2,8,9
 174 203 174 203 267 284 c 128,-1,10
 360 365 360 365 377 365 c 1,11,12
 374 365 374 365 420 284 c 128,-1,13
 466 203 466 203 547 203 c 2,14,-1
 671 203 l 1,15,-1
 671 0 l 1,0,-1
EndSplineSet
EndChar

StartChar: afii57534
Encoding: 1749 1749 101
Width: 624
GlyphClass: 2
Flags: W
LayerCount: 2
Fore
SplineSet
575 284 m 0,0,1
 575 0 575 0 311 0 c 0,2,3
 94 0 94 0 94 220 c 0,4,5
 94 255 94 255 123 356 c 0,6,7
 214 665 214 665 330 665 c 0,8,9
 356 665 356 665 403 638 c 0,10,11
 575 538 575 538 575 284 c 0,0,1
470 237 m 1,12,13
 431 367 431 367 382 396 c 0,14,15
 343 420 343 420 305 420 c 1,16,17
 242 406 242 406 223 256 c 1,18,19
 253 217 253 217 346 216 c 0,20,21
 398 217 398 217 470 237 c 1,12,13
EndSplineSet
EndChar

StartChar: afii64240
Encoding: 65546 -1 103
Width: 524
Flags: W
LayerCount: 2
Fore
SplineSet
385 162 m 0,0,1
 385 153 385 153 346 81 c 0,2,3
 304 3 304 3 283 3 c 0,4,5
 274 3 274 3 202 52.5 c 128,-1,6
 130 102 130 102 130 115 c 1,7,8
 153 185 153 185 225 293 c 1,9,10
 241 281 241 281 349 207 c 0,11,12
 385 181 385 181 385 162 c 0,0,1
EndSplineSet
EndChar

StartChar: afii64241
Encoding: 65547 -1 104
Width: 665
Flags: W
LayerCount: 2
Fore
SplineSet
542 193 m 0,0,1
 542 188 542 188 511 133 c 0,2,3
 476 70 476 70 448 36 c 1,4,5
 399 71 399 71 372 88 c 2,6,-1
 316 122 l 1,7,8
 297 98 297 98 294 95 c 0,9,10
 266 60 266 60 242 7 c 1,11,12
 188 34 188 34 157 50 c 0,13,14
 71 98 71 98 71 122 c 0,15,16
 71 141 71 141 127 225 c 0,17,18
 158 273 158 273 172 273 c 0,19,20
 188 273 188 273 230 235 c 128,-1,21
 272 197 272 197 297 197 c 0,22,23
 319 197 319 197 379 315 c 1,24,25
 437 283 437 283 461 267 c 0,26,27
 542 216 542 216 542 193 c 0,0,1
EndSplineSet
EndChar

StartChar: afii63954
Encoding: 65548 -1 105
Width: 608
Flags: W
LayerCount: 2
Fore
SplineSet
374 455 m 0,0,1
 374 445 374 445 335 374 c 0,2,3
 293 295 293 295 272 295 c 0,4,5
 263 295 263 295 191 345 c 128,-1,6
 119 395 119 395 119 406 c 0,7,8
 141 477 141 477 214 585 c 1,9,10
 230 574 230 574 337 498 c 0,11,12
 374 473 374 473 374 455 c 0,0,1
545 190 m 0,13,14
 545 185 545 185 514 130 c 0,15,16
 479 67 479 67 451 34 c 1,17,18
 402 69 402 69 375 85 c 2,19,-1
 319 119 l 1,20,21
 304 109 304 109 286.5 83 c 128,-1,22
 269 57 269 57 245 4 c 1,23,24
 190 31 190 31 160 48 c 0,25,26
 74 95 74 95 74 119 c 0,27,28
 74 139 74 139 130 224 c 0,29,30
 161 270 161 270 175 270 c 0,31,32
 190 270 190 270 232 232.5 c 128,-1,33
 274 195 274 195 300 195 c 0,34,35
 323 195 323 195 382 312 c 1,36,37
 440 280 440 280 463 265 c 0,38,39
 545 213 545 213 545 190 c 0,13,14
EndSplineSet
EndChar

StartChar: afii57382
Encoding: 65549 -1 106
Width: 594
Flags: W
LayerCount: 2
Fore
SplineSet
469 -442 m 0,0,1
 469 -452 469 -452 431 -524 c 0,2,3
 389 -602 389 -602 368 -602 c 0,4,5
 360 -602 360 -602 287 -552.5 c 128,-1,6
 214 -503 214 -503 214 -491 c 0,7,8
 238 -420 238 -420 309 -312 c 1,9,10
 326 -325 326 -325 433 -399 c 0,11,12
 469 -424 469 -424 469 -442 c 0,0,1
524 -127 m 0,13,14
 524 -133 524 -133 494 -188 c 0,15,16
 458 -251 458 -251 430 -284 c 1,17,18
 381 -249 381 -249 354 -232 c 2,19,-1
 298 -199 l 1,20,21
 279 -223 279 -223 276 -225 c 0,22,23
 248 -262 248 -262 224 -315 c 1,24,25
 169 -288 169 -288 140 -272 c 0,26,27
 53 -223 53 -223 53 -199 c 0,28,29
 53 -179 53 -179 109 -95 c 0,30,31
 140 -48 140 -48 154 -48 c 0,32,33
 169 -48 169 -48 211 -85.5 c 128,-1,34
 253 -123 253 -123 279 -123 c 0,35,36
 302 -123 302 -123 361 -7 c 1,37,38
 419 -38 419 -38 442 -53 c 0,39,40
 524 -105 524 -105 524 -127 c 0,13,14
EndSplineSet
EndChar

StartChar: afii64242
Encoding: 65550 -1 107
Width: 524
Flags: W
LayerCount: 2
Fore
SplineSet
475 340 m 0,0,1
 475 0 475 0 123 0 c 2,2,-1
 -27 0 l 1,3,-1
 -27 203 l 1,4,-1
 57 203 l 2,5,6
 207 203 207 203 259 213 c 0,7,8
 365 231 365 231 365 293 c 0,9,10
 365 328 365 328 329.5 387.5 c 128,-1,11
 294 447 294 447 294 470 c 1,12,13
 311 532 311 532 378 630 c 1,14,15
 424 588 424 588 444 540 c 0,16,17
 475 458 475 458 475 340 c 0,0,1
EndSplineSet
EndChar

StartChar: afii57373
Encoding: 65551 -1 112
Width: 514
Flags: W
LayerCount: 2
Fore
SplineSet
385 473 m 1,0,1
 350 461 350 461 257 444.5 c 128,-1,2
 164 428 164 428 102 409 c 1,3,-1
 45 421 l 1,4,5
 130 480 130 480 154 493 c 1,6,-1
 115 564 l 2,7,8
 95 602 95 602 95 627 c 0,9,10
 95 669 95 669 161.5 725 c 128,-1,11
 228 781 228 781 270 781 c 0,12,13
 291 781 291 781 323.5 752.5 c 128,-1,14
 356 724 356 724 356 703 c 0,15,16
 356 686 356 686 321 615 c 1,17,18
 288 700 288 700 199 668 c 1,19,20
 190 654 190 654 190 641 c 0,21,22
 190 571 190 571 270 549 c 0,23,24
 309 538 309 538 407 538 c 1,25,26
 407 535 407 535 385 473 c 1,0,1
EndSplineSet
EndChar

StartChar: afii57374
Encoding: 65552 -1 113
Width: 830
GlyphClass: 2
Flags: W
LayerCount: 2
Fore
SplineSet
871 0 m 1,0,-1
 699 0 l 2,1,2
 637 0 637 0 591 15 c 0,3,4
 570 21 570 21 522 42 c 2,5,-1
 374 108 l 1,6,7
 217 0 217 0 122 0 c 2,8,-1
 -28 0 l 1,9,-1
 -28 203 l 1,10,-1
 22 203 l 2,11,12
 50 203 50 203 120 214 c 0,13,14
 199 225 199 225 209 237 c 1,15,16
 221 286 221 286 249 382 c 0,17,18
 300 545 300 545 375 655 c 0,19,20
 476 802 476 802 596 802 c 0,21,22
 713 802 713 802 713 561 c 0,23,24
 713 448 713 448 672 365 c 0,25,26
 622 262 622 262 615 216 c 1,27,28
 643 202 643 202 707 202 c 0,29,30
 718 202 718 202 739 203 c 0,31,32
 762 203 762 203 771 203 c 2,33,-1
 871 203 l 1,34,-1
 871 0 l 1,0,-1
594 433 m 0,35,36
 594 475 594 475 565 510.5 c 128,-1,37
 536 546 536 546 496 546 c 0,38,39
 451 546 451 546 402 510 c 0,40,41
 349 472 349 472 349 428 c 0,42,43
 349 398 349 398 398 365 c 0,44,45
 442 335 442 335 476 335 c 0,46,47
 512 335 512 335 553 366.5 c 128,-1,48
 594 398 594 398 594 433 c 0,35,36
EndSplineSet
EndChar

StartChar: afii57375
Encoding: 1619 1619 114
Width: 706
GlyphClass: 2
Flags: W
LayerCount: 2
Fore
SplineSet
636 1742 m 0,0,1
 636 1596 636 1596 465 1596 c 0,2,3
 393 1596 393 1596 181 1641 c 1,4,5
 139 1641 139 1641 69 1586 c 0,6,7
 42 1567 42 1567 32 1584.5 c 128,-1,8
 22 1602 22 1602 24 1617 c 0,9,10
 24 1653 24 1653 63 1697 c 0,11,12
 116 1756 116 1756 202 1756 c 0,13,14
 245 1756 245 1756 329 1735 c 128,-1,15
 413 1714 413 1714 461.5 1710.5 c 128,-1,16
 510 1707 510 1707 542 1718 c 0,17,18
 585 1736 585 1736 624 1778 c 1,19,20
 636 1750 636 1750 636 1742 c 0,0,1
EndSplineSet
EndChar

StartChar: afii57391
Encoding: 59450 59450 115
Width: 1024
GlyphClass: 2
Flags: W
LayerCount: 2
Fore
SplineSet
1024 0 m 1,0,-1
 -70 0 l 1,1,-1
 -70 188 l 1,2,-1
 1024 188 l 1,3,-1
 1024 0 l 1,0,-1
EndSplineSet
EndChar

StartChar: afii57471
Encoding: 65553 -1 116
Width: 2041
Flags: W
LayerCount: 2
Fore
SplineSet
2089 0 m 1,0,-1
 1971 0 l 2,1,2
 1896 0 1896 0 1866 18 c 0,3,4
 1831 41 1831 41 1765 139 c 1,5,6
 1555 35 1555 35 1540 28 c 0,7,8
 1404 -32 1404 -32 1303 -52 c 0,9,10
 1176 -77 1176 -77 965 -77 c 0,11,12
 689 -77 689 -77 510 -3 c 0,13,14
 255 101 255 101 255 336 c 0,15,16
 255 379 255 379 294 487 c 0,17,18
 340 617 340 617 396 671 c 1,19,20
 406 662 406 662 409 658 c 0,21,22
 414 650 414 650 414 634 c 0,23,24
 414 617 414 617 394 562 c 128,-1,25
 374 507 374 507 374 475 c 0,26,27
 374 293 374 293 620 203 c 0,28,29
 797 139 797 139 1016 139 c 0,30,31
 1320 139 1320 139 1512 197 c 0,32,33
 1651 239 1651 239 1721 307 c 1,34,35
 1721 307 1721 307 1775 365 c 1,36,37
 1785 365 1785 365 1847.5 284 c 128,-1,38
 1910 203 1910 203 1961 203 c 2,39,-1
 2089 203 l 1,40,-1
 2089 0 l 1,0,-1
EndSplineSet
EndChar

StartChar: afii52258
Encoding: 65554 -1 117
Width: 2234
GlyphClass: 2
Flags: W
LayerCount: 2
Fore
SplineSet
2278 0 m 1,0,-1
 2062 0 l 2,1,2
 1953 0 1953 0 1788 77 c 0,3,4
 1774 83 1774 83 1732 104 c 1,5,6
 1718 104 1718 104 1659 71 c 0,7,8
 1487 -22 1487 -22 1184 -22 c 2,9,-1
 896 -22 l 2,10,11
 736 -22 736 -22 637 -6 c 0,12,13
 276 59 276 59 276 368 c 0,14,15
 276 538 276 538 382 671 c 1,16,17
 424 671 424 671 424 634 c 0,18,19
 424 624 424 624 403 567.5 c 128,-1,20
 382 511 382 511 382 470 c 0,21,22
 382 330 382 330 511 256 c 0,23,24
 616 193 616 193 767 193 c 0,25,26
 805 193 805 193 916 193 c 2,27,-1
 1128 192 l 2,28,29
 1168 192 1168 192 1175 193 c 2,30,-1
 1299 193 l 2,31,32
 1466 193 1466 193 1504 210 c 0,33,34
 1572 241 1572 241 1592 377 c 0,35,36
 1602 451 1602 451 1676 561 c 0,37,38
 1739 654 1739 654 1807 720 c 0,39,40
 1896 802 1896 802 1957 802 c 0,41,42
 2073 802 2073 802 2073 561 c 0,43,44
 2073 440 2073 440 2041 370 c 2,45,-1
 1978 237 l 1,46,47
 2033 203 2033 203 2085 203 c 2,48,-1
 2278 203 l 1,49,-1
 2278 0 l 1,0,-1
1953 431 m 0,50,51
 1953 546 1953 546 1855 546 c 0,52,53
 1816 546 1816 546 1763.5 505.5 c 128,-1,54
 1711 465 1711 465 1711 427 c 0,55,56
 1711 398 1711 398 1753 365 c 128,-1,57
 1795 332 1795 332 1826 332 c 0,58,59
 1873 332 1873 332 1913 359 c 128,-1,60
 1953 386 1953 386 1953 431 c 0,50,51
EndSplineSet
EndChar

StartChar: afii62889
Encoding: 65555 -1 123
Width: 1494
Flags: W
LayerCount: 2
Fore
SplineSet
1169 218 m 1,0,-1
 1169 255 l 1,1,-1
 1140 297 l 2,2,3
 1112 333 1112 333 1074 333 c 0,4,5
 1044 333 1044 333 1025 312 c 2,6,-1
 1001 281 l 1,7,8
 1049 251 1049 251 1060 246 c 2,9,-1
 1131 218 l 1,10,-1
 1169 218 l 1,0,-1
1533 0 m 1,11,-1
 1310 -1 l 1,12,13
 1281 -48 1281 -48 1228 -141 c 1,14,15
 1131 -332 1131 -332 959 -437.5 c 128,-1,16
 787 -543 787 -543 573 -543 c 0,17,18
 417 -543 417 -543 306.5 -432.5 c 128,-1,19
 196 -322 196 -322 196 -167 c 0,20,21
 196 -67 196 -67 260 74 c 0,22,23
 332 228 332 228 413 256 c 1,24,25
 416 249 416 249 420 237 c 1,26,27
 280 10 280 10 280 -87 c 0,28,29
 280 -130 280 -130 312 -182 c 0,30,31
 409 -342 409 -342 645 -342 c 0,32,33
 816 -342 816 -342 960 -270 c 0,34,35
 1124 -189 1124 -189 1183 -45 c 1,36,-1
 1193 -10 l 1,37,38
 1086 0 1086 0 980 11 c 1,39,40
 861 42 861 42 861 172 c 1,41,42
 876 223 876 223 895 273 c 0,43,44
 1000 567 1000 567 1120 567 c 0,45,46
 1219 567 1219 567 1260 466 c 0,47,48
 1294 377 1294 377 1358 209 c 1,49,50
 1460 196 1460 196 1533 203 c 1,51,-1
 1533 0 l 1,11,-1
EndSplineSet
EndChar

StartChar: afii62887
Encoding: 65556 -1 124
Width: 1942
Flags: W
LayerCount: 2
Fore
SplineSet
1893 550 m 0,0,1
 1893 165 1893 165 1278 39 c 0,2,3
 1078 -1 1078 -1 878 -1 c 0,4,5
 510 -1 510 -1 340 136 c 0,6,7
 234 223 234 223 234 354 c 0,8,9
 234 479 234 479 363 669 c 1,10,-1
 393 669 l 1,11,-1
 393 619 l 1,12,-1
 367 563 l 2,13,14
 351 526 351 526 351 494 c 0,15,16
 351 337 351 337 612 269 c 0,17,18
 777 225 777 225 994 225 c 0,19,20
 1154 224 1154 224 1379 281 c 1,21,22
 1798 379 1798 379 1798 454 c 0,23,24
 1798 466 1798 466 1746 557 c 0,25,26
 1721 599 1721 599 1721 633 c 0,27,28
 1721 686 1721 686 1798 822 c 1,29,30
 1893 732 1893 732 1893 550 c 0,0,1
EndSplineSet
EndChar

StartChar: afii62888
Encoding: 1697 1697 125
Width: 1978
GlyphClass: 2
Flags: W
LayerCount: 2
Fore
SplineSet
1929 445 m 0,0,1
 1929 71 1929 71 1490 13 c 0,2,3
 1365 -4 1365 -4 1099 -4 c 0,4,5
 846 -4 846 -4 707 13 c 0,6,7
 238 73 238 73 238 386 c 0,8,9
 238 463 238 463 276 560 c 0,10,11
 314 664 314 664 367 713 c 1,12,13
 374 708 374 708 390.5 700.5 c 128,-1,14
 407 693 407 693 407 682 c 1,15,16
 356 595 356 595 356 501 c 0,17,18
 356 290 356 290 679 228 c 0,19,20
 777 209 777 209 868 209 c 2,21,-1
 1480 209 l 2,22,23
 1574 209 1574 209 1728 276 c 0,24,25
 1842 325 1842 325 1842 386 c 0,26,27
 1842 406 1842 406 1834 423 c 0,28,29
 1827 433 1827 433 1821 445 c 1,30,31
 1805 440 1805 440 1740 388 c 0,32,33
 1693 350 1693 350 1624 350 c 0,34,35
 1480 350 1480 350 1480 489 c 0,36,37
 1480 601 1480 601 1555 767 c 0,38,39
 1614 896 1614 896 1688 896 c 0,40,41
 1737 896 1737 896 1802 815 c 0,42,43
 1852 752 1852 752 1880 690 c 0,44,45
 1929 577 1929 577 1929 445 c 0,0,1
1704 574 m 1,46,-1
 1704 617 l 1,47,-1
 1679 638 l 2,48,49
 1665 650 1665 650 1652 661 c 1,50,51
 1632 640 1632 640 1623 620 c 2,52,-1
 1610 594 l 1,53,-1
 1610 563 l 1,54,55
 1632 553 1632 553 1641 553 c 0,56,57
 1649 553 1649 553 1667 560 c 0,58,59
 1697 571 1697 571 1704 574 c 1,46,-1
EndSplineSet
Substitution2: "'medi' Medial Forms in Arabic lookup 3 subtable" afii57374
Substitution2: "'fina' Terminal Forms in Arabic lookup 2 subtable" afii52258
Substitution2: "'init' Initial Forms in Arabic lookup 1 subtable" afii57459
EndChar

StartChar: afii57567
Encoding: 1705 1705 132
Width: 1687
GlyphClass: 2
Flags: W
AnchorPoint: "Anchor-3" 750 -600 basechar 0
AnchorPoint: "Anchor-2" 615 1290 basechar 0
LayerCount: 2
Fore
SplineSet
1145 265 m 0,0,1
 1177 273 1177 273 1229 312 c 0,2,3
 1287 358 1287 358 1287 389 c 0,4,5
 1287 494 1287 494 1184 564 c 0,6,7
 1019 673 1019 673 937 727 c 1,8,9
 804 825 804 825 804 949 c 0,10,11
 804 1071 804 1071 984 1189 c 0,12,13
 1126 1280 1126 1280 1351 1361 c 2,14,-1
 1630 1457 l 2,15,16
 1630 1453 1630 1453 1634 1446 c 128,-1,17
 1638 1439 1638 1439 1638 1436 c 0,18,19
 1638 1317 1638 1317 1511 1249 c 0,20,21
 1460 1221 1460 1221 1217 1140 c 0,22,23
 1004 1070 1004 1070 890 986 c 1,24,25
 910 953 910 953 1050 868 c 0,26,27
 1204 773 1204 773 1274 694 c 0,28,29
 1390 566 1390 566 1390 398 c 0,30,31
 1390 245 1390 245 1306 147 c 0,32,33
 1231 57 1231 57 1071 29 c 0,34,35
 937 6 937 6 619 6 c 0,36,37
 553 6 553 6 469 15 c 0,38,39
 207 42 207 42 207 111 c 1,40,41
 220 171 220 171 225 195 c 0,42,43
 244 279 244 279 252 294 c 1,44,45
 277 284 277 284 308 277 c 0,46,47
 484 230 484 230 808 230 c 0,48,49
 1015 230 1015 230 1145 265 c 0,0,1
EndSplineSet
Substitution2: "'medi' Medial Forms in Arabic lookup 3 subtable" afii52306
Substitution2: "'fina' Terminal Forms in Arabic lookup 2 subtable" afii62964
Substitution2: "'init' Initial Forms in Arabic lookup 1 subtable" afii52305
EndChar

StartChar: afii62964
Encoding: 64399 64399 133
Width: 1964
GlyphClass: 2
Flags: W
AnchorPoint: "Anchor-3" 855 -630 basechar 0
AnchorPoint: "Anchor-2" 855 1230 basechar 0
LayerCount: 2
Fore
SplineSet
1449 214 m 0,0,1
 1484 227 1484 227 1513 252 c 0,2,3
 1526 262 1526 262 1568 305 c 0,4,5
 1627 365 1627 365 1630 420 c 0,6,7
 1635 503 1635 503 1509 588 c 0,8,9
 1362 682 1362 682 1299 721 c 1,10,11
 1165 819 1165 819 1165 944 c 0,12,13
 1165 1065 1165 1065 1345 1182 c 0,14,15
 1487 1274 1487 1274 1712 1354 c 2,16,-1
 1991 1450 l 2,17,18
 1991 1448 1991 1448 1995 1440 c 128,-1,19
 1999 1432 1999 1432 1999 1431 c 0,20,21
 1999 1312 1999 1312 1872 1242 c 0,22,23
 1821 1214 1821 1214 1578 1134 c 0,24,25
 1365 1064 1365 1064 1252 980 c 1,26,27
 1271 946 1271 946 1411 861 c 0,28,29
 1567 767 1567 767 1637 689 c 0,30,31
 1709 606 1709 606 1753 522 c 0,32,33
 1782 465 1782 465 1802 344 c 0,34,35
 1820 238 1820 238 1833 227 c 0,36,37
 1841 220 1841 220 1877.5 212 c 128,-1,38
 1914 204 1914 204 1945 204 c 2,39,-1
 1996 203 l 1,40,-1
 1996 0 l 1,41,-1
 1967 0 l 2,42,43
 1893 0 1893 0 1828 42 c 0,44,45
 1740 98 1740 98 1652 267 c 1,46,-1
 1561 97 l 1,47,48
 1509 18 1509 18 1385 -13 c 0,49,50
 1231 -50 1231 -50 865 -50 c 0,51,52
 700 -50 700 -50 591 -25 c 0,53,54
 252 53 252 53 252 344 c 0,55,56
 252 410 252 410 280 497 c 0,57,58
 315 605 315 605 371 651 c 1,59,60
 375 622 375 622 375 608 c 0,61,62
 375 585 375 585 371 559 c 0,63,64
 360 494 360 494 360 473 c 0,65,66
 360 322 360 322 491 232 c 0,67,68
 629 139 629 139 844 139 c 0,69,70
 995 139 995 139 1134 153 c 0,71,72
 1333 172 1333 172 1449 214 c 0,0,1
EndSplineSet
EndChar

StartChar: afii52305
Encoding: 64400 64400 134
Width: 865
GlyphClass: 2
Flags: W
AnchorPoint: "Anchor-3" 270 -555 basechar 0
AnchorPoint: "Anchor-2" 345 1500 basechar 0
LayerCount: 2
Fore
SplineSet
816 1382 m 0,0,1
 816 1263 816 1263 689 1193 c 0,2,3
 638 1165 638 1165 395 1085 c 0,4,5
 182 1015 182 1015 69 931 c 1,6,7
 88 897 88 897 227 812 c 0,8,9
 382 717 382 717 452 640 c 0,10,11
 567 511 567 511 567 342 c 0,12,13
 567 199 567 199 480 101 c 0,14,15
 389 0 389 0 246 0 c 2,16,-1
 -22 0 l 1,17,-1
 -22 203 l 1,18,-1
 141 203 l 2,19,20
 245 203 245 203 360 237 c 0,21,22
 496 277 496 277 496 332 c 0,23,24
 496 419 496 419 363 508 c 0,25,26
 279 561 279 561 115 672 c 1,27,28
 -18 770 -18 770 -18 895 c 0,29,30
 -18 1015 -18 1015 162 1133 c 0,31,32
 304 1224 304 1224 528 1305 c 0,33,34
 622 1337 622 1337 808 1401 c 1,35,36
 808 1397 808 1397 812 1390 c 128,-1,37
 816 1383 816 1383 816 1382 c 0,0,1
EndSplineSet
EndChar

StartChar: afii52306
Encoding: 64401 64401 135
Width: 1217
GlyphClass: 2
Flags: W
AnchorPoint: "Anchor-3" 435 -600 basechar 0
AnchorPoint: "Anchor-2" 375 1530 basechar 0
LayerCount: 2
Fore
SplineSet
1245 0 m 1,0,-1
 1058 0 l 2,1,2
 945 0 945 0 882 42 c 0,3,4
 840 70 840 70 760 174 c 0,5,6
 655 307 655 307 568 395 c 1,7,-1
 533 395 l 1,8,9
 533 53 533 53 330 11 c 0,10,11
 279 0 279 0 129 0 c 2,12,-1
 -25 0 l 1,13,-1
 -25 203 l 1,14,-1
 46 203 l 2,15,16
 437 203 437 203 437 378 c 0,17,18
 437 472 437 472 323 532 c 0,19,20
 126 637 126 637 112 650 c 0,21,22
 -3 746 -3 746 -3 921 c 0,23,24
 -3 993 -3 993 161 1121 c 0,25,26
 315 1243 315 1243 479 1315 c 2,27,-1
 741 1431 l 2,28,29
 879 1492 879 1492 934 1515 c 0,30,31
 1014 1546 1014 1546 1042 1546 c 0,32,33
 1058 1546 1058 1546 1058 1536 c 0,34,35
 1058 1421 1058 1421 948 1350 c 0,36,37
 902 1320 902 1320 657 1221 c 0,38,39
 431 1130 431 1130 245 1015 c 0,40,41
 214 998 214 998 165 969 c 0,42,43
 84 916 84 916 84 885 c 0,44,45
 84 861 84 861 158 825 c 0,46,47
 223 794 223 794 349.5 730 c 128,-1,48
 476 666 476 666 608 566 c 0,49,50
 722 479 722 479 819 386 c 2,51,-1
 959 255 l 1,52,53
 1021 203 1021 203 1068 203 c 2,54,-1
 1245 203 l 1,55,-1
 1245 0 l 1,0,-1
EndSplineSet
EndChar

StartChar: afii57509
Encoding: 1711 1711 136
Width: 1687
GlyphClass: 2
Flags: W
AnchorPoint: "Anchor-3" 645 -555 basechar 0
AnchorPoint: "Anchor-2" 555 1350 basechar 0
LayerCount: 2
Fore
SplineSet
910 1327 m 1,0,1
 974 1379 974 1379 1175 1467 c 2,2,-1
 1344 1541 l 2,3,4
 1434 1582 1434 1582 1470 1596 c 0,5,6
 1520 1617 1520 1617 1540 1617 c 0,7,8
 1550 1617 1550 1617 1550 1610 c 0,9,10
 1550 1536 1550 1536 1478 1490 c 0,11,12
 1449 1470 1449 1470 1289 1406 c 0,13,14
 1060 1313 1060 1313 914 1224 c 1,15,-1
 910 1327 l 1,0,1
1145 263 m 0,16,17
 1015 228 1015 228 808 228 c 0,18,19
 484 228 484 228 308 276 c 0,20,21
 277 283 277 283 252 293 c 1,22,23
 244 277 244 277 225 193 c 0,24,25
 220 169 220 169 207 109 c 1,26,27
 207 41 207 41 469 14 c 0,28,29
 553 4 553 4 619 4 c 0,30,31
 937 4 937 4 1071 28 c 0,32,33
 1231 56 1231 56 1306 146 c 0,34,35
 1390 244 1390 244 1390 396 c 0,36,37
 1390 564 1390 564 1274 693 c 0,38,39
 1204 771 1204 771 1050 867 c 0,40,41
 910 952 910 952 890 984 c 1,42,43
 1004 1068 1004 1068 1217 1138 c 0,44,45
 1460 1219 1460 1219 1511 1247 c 0,46,47
 1638 1317 1638 1317 1638 1436 c 0,48,49
 1638 1438 1638 1438 1634 1445 c 128,-1,50
 1630 1452 1630 1452 1630 1456 c 2,51,-1
 1351 1359 l 2,52,53
 1126 1278 1126 1278 984 1187 c 0,54,55
 804 1070 804 1070 804 948 c 0,56,57
 804 823 804 823 937 725 c 1,58,59
 1019 672 1019 672 1184 563 c 0,60,61
 1287 493 1287 493 1287 388 c 0,62,63
 1287 357 1287 357 1229 311 c 0,64,65
 1177 272 1177 272 1145 263 c 0,16,17
EndSplineSet
Substitution2: "'medi' Medial Forms in Arabic lookup 3 subtable" afii62966
Substitution2: "'fina' Terminal Forms in Arabic lookup 2 subtable" afii62967
Substitution2: "'init' Initial Forms in Arabic lookup 1 subtable" afii62965
EndChar

StartChar: afii62967
Encoding: 64403 64403 137
Width: 1956
GlyphClass: 2
Flags: W
AnchorPoint: "Anchor-3" 885 -570 basechar 0
AnchorPoint: "Anchor-2" 765 1320 basechar 0
LayerCount: 2
Fore
SplineSet
1285 1333 m 1,0,1
 1350 1383 1350 1383 1550 1471 c 2,2,-1
 1719 1547 l 2,3,4
 1810 1588 1810 1588 1845 1602 c 0,5,6
 1897 1621 1897 1621 1915 1621 c 0,7,8
 1926 1621 1926 1621 1926 1614 c 0,9,10
 1926 1540 1926 1540 1854 1494 c 0,11,12
 1824 1476 1824 1476 1666 1411 c 0,13,14
 1435 1317 1435 1317 1289 1228 c 1,15,-1
 1285 1333 l 1,0,1
1449 214 m 0,16,17
 1333 172 1333 172 1134 153 c 0,18,19
 995 139 995 139 844 139 c 0,20,21
 629 139 629 139 491 232 c 0,22,23
 360 322 360 322 360 473 c 0,24,25
 360 494 360 494 371 559 c 0,26,27
 375 585 375 585 375 608 c 0,28,29
 375 622 375 622 371 651 c 1,30,31
 315 605 315 605 280 497 c 0,32,33
 252 410 252 410 252 344 c 0,34,35
 252 53 252 53 591 -25 c 0,36,37
 700 -50 700 -50 865 -50 c 0,38,39
 1231 -50 1231 -50 1385 -13 c 0,40,41
 1509 18 1509 18 1561 97 c 1,42,-1
 1652 267 l 1,43,44
 1740 98 1740 98 1828 42 c 0,45,46
 1893 0 1893 0 1967 0 c 2,47,-1
 1996 0 l 1,48,-1
 1996 203 l 1,49,-1
 1945 204 l 2,50,51
 1914 204 1914 204 1877.5 212 c 128,-1,52
 1841 220 1841 220 1833 227 c 0,53,54
 1820 238 1820 238 1802 344 c 0,55,56
 1782 465 1782 465 1753 522 c 0,57,58
 1709 606 1709 606 1637 689 c 0,59,60
 1567 767 1567 767 1411 861 c 0,61,62
 1271 946 1271 946 1252 980 c 1,63,64
 1365 1064 1365 1064 1578 1134 c 0,65,66
 1821 1214 1821 1214 1872 1242 c 0,67,68
 1999 1312 1999 1312 1999 1431 c 0,69,70
 1999 1432 1999 1432 1995 1440 c 128,-1,71
 1991 1448 1991 1448 1991 1450 c 2,72,-1
 1712 1354 l 2,73,74
 1487 1274 1487 1274 1345 1182 c 0,75,76
 1165 1065 1165 1065 1165 944 c 0,77,78
 1165 819 1165 819 1299 721 c 1,79,80
 1362 682 1362 682 1509 588 c 0,81,82
 1635 503 1635 503 1630 420 c 0,83,84
 1627 365 1627 365 1568 305 c 0,85,86
 1526 262 1526 262 1513 252 c 0,87,88
 1484 227 1484 227 1449 214 c 0,16,17
EndSplineSet
EndChar

StartChar: afii62965
Encoding: 64404 64404 138
Width: 977
GlyphClass: 2
Flags: W
AnchorPoint: "Anchor-3" 300 -570 basechar 0
AnchorPoint: "Anchor-2" 360 1695 basechar 0
LayerCount: 2
Fore
SplineSet
92 1282 m 1,0,1
 157 1333 157 1333 358 1421 c 2,2,-1
 528 1497 l 2,3,4
 617 1537 617 1537 652 1551 c 0,5,6
 704 1571 704 1571 722 1571 c 0,7,8
 734 1571 734 1571 734 1564 c 0,9,10
 734 1490 734 1490 662 1443 c 0,11,12
 631 1425 631 1425 473 1361 c 0,13,14
 244 1267 244 1267 98 1177 c 1,15,-1
 92 1282 l 1,0,1
816 1382 m 0,16,17
 816 1263 816 1263 689 1193 c 0,18,19
 638 1165 638 1165 395 1085 c 0,20,21
 182 1015 182 1015 69 931 c 1,22,23
 88 897 88 897 227 812 c 0,24,25
 382 717 382 717 452 640 c 0,26,27
 567 511 567 511 567 342 c 0,28,29
 567 199 567 199 480 101 c 0,30,31
 389 0 389 0 246 0 c 2,32,-1
 -22 0 l 1,33,-1
 -22 203 l 1,34,-1
 141 203 l 2,35,36
 245 203 245 203 360 237 c 0,37,38
 496 277 496 277 496 332 c 0,39,40
 496 419 496 419 363 508 c 0,41,42
 279 561 279 561 115 672 c 1,43,44
 -18 770 -18 770 -18 895 c 0,45,46
 -18 1015 -18 1015 162 1133 c 0,47,48
 304 1224 304 1224 528 1305 c 0,49,50
 622 1337 622 1337 808 1401 c 1,51,52
 808 1397 808 1397 812 1390 c 128,-1,53
 816 1383 816 1383 816 1382 c 0,16,17
EndSplineSet
EndChar

StartChar: afii62966
Encoding: 64405 64405 139
Width: 1211
GlyphClass: 2
Flags: W
AnchorPoint: "Anchor-3" 405 -570 basechar 0
AnchorPoint: "Anchor-2" 435 1755 basechar 0
LayerCount: 2
Fore
SplineSet
134 1322 m 1,0,1
 286 1441 286 1441 531 1548 c 2,2,-1
 718 1632 l 2,3,4
 818 1676 818 1676 858 1693 c 0,5,6
 916 1715 916 1715 935 1715 c 0,7,8
 948 1715 948 1715 948 1707 c 0,9,10
 948 1624 948 1624 868 1574 c 0,11,12
 834 1551 834 1551 658 1480 c 0,13,14
 379 1368 379 1368 133 1217 c 1,15,-1
 134 1322 l 1,0,1
1245 0 m 1,16,-1
 1058 0 l 2,17,18
 945 0 945 0 882 42 c 0,19,20
 840 70 840 70 760 174 c 0,21,22
 655 307 655 307 568 395 c 1,23,-1
 533 395 l 1,24,25
 533 53 533 53 330 11 c 0,26,27
 279 0 279 0 129 0 c 2,28,-1
 -25 0 l 1,29,-1
 -25 203 l 1,30,-1
 46 203 l 2,31,32
 437 203 437 203 437 378 c 0,33,34
 437 472 437 472 323 532 c 0,35,36
 126 637 126 637 112 650 c 0,37,38
 -3 746 -3 746 -3 921 c 0,39,40
 -3 993 -3 993 161 1121 c 0,41,42
 315 1243 315 1243 479 1315 c 2,43,-1
 741 1431 l 2,44,45
 879 1492 879 1492 934 1515 c 0,46,47
 1014 1546 1014 1546 1042 1546 c 0,48,49
 1058 1546 1058 1546 1058 1536 c 0,50,51
 1058 1421 1058 1421 948 1350 c 0,52,53
 902 1320 902 1320 657 1221 c 0,54,55
 431 1130 431 1130 245 1015 c 0,56,57
 214 998 214 998 165 969 c 0,58,59
 84 916 84 916 84 885 c 0,60,61
 84 861 84 861 158 825 c 0,62,63
 223 794 223 794 349.5 730 c 128,-1,64
 476 666 476 666 608 566 c 0,65,66
 722 479 722 479 819 386 c 2,67,-1
 959 255 l 1,68,69
 1021 203 1021 203 1068 203 c 2,70,-1
 1245 203 l 1,71,-1
 1245 0 l 1,16,-1
EndSplineSet
EndChar

StartChar: afii57555
Encoding: 1740 1740 140
Width: 1595
GlyphClass: 2
Flags: W
AnchorPoint: "Anchor-3" 690 -1065 basechar 0
AnchorPoint: "Anchor-2" 765 945 basechar 0
LayerCount: 2
Fore
SplineSet
1546 720 m 1,0,1
 1540 694 1540 694 1536 679 c 0,2,3
 1519 612 1519 612 1518 602 c 1,4,5
 1362 602 1362 602 1205 546 c 0,6,7
 1000 472 1000 472 1000 343 c 0,8,9
 1000 235 1000 235 1127 210 c 0,10,11
 1152 206 1152 206 1364 174 c 1,12,13
 1492 141 1492 141 1492 25 c 0,14,15
 1492 -333 1492 -333 939 -493 c 0,16,17
 759 -545 759 -545 637 -545 c 0,18,19
 440 -545 440 -545 322 -447 c 0,20,21
 197 -342 197 -342 197 -147 c 0,22,23
 197 -20 197 -20 256 150 c 0,24,25
 323 342 323 342 413 399 c 1,26,27
 423 393 423 393 433 384 c 0,28,29
 434 378 434 378 434 365 c 0,30,31
 434 339 434 339 403 283 c 0,32,33
 363 210 363 210 346 165 c 0,34,35
 315 80 315 80 315 -11 c 0,36,37
 315 -167 315 -167 419 -252 c 0,38,39
 515 -332 515 -332 673 -332 c 0,40,41
 735 -332 735 -332 897 -291 c 0,42,43
 1088 -244 1088 -244 1214 -188 c 0,44,45
 1376 -116 1376 -116 1376 -50 c 0,46,47
 1376 -3 1376 -3 1249 7 c 0,48,49
 1070 21 1070 21 1012 45 c 0,50,51
 883 99 883 99 883 253 c 0,52,53
 883 311 883 311 967 449 c 0,54,55
 1061 605 1061 605 1173 708 c 0,56,57
 1312 837 1312 837 1428 837 c 0,58,59
 1546 837 1546 837 1546 720 c 1,0,1
EndSplineSet
Substitution2: "'medi' Medial Forms in Arabic lookup 3 subtable" afii62832
Substitution2: "'fina' Terminal Forms in Arabic lookup 2 subtable" afii52364
Substitution2: "'init' Initial Forms in Arabic lookup 1 subtable" uniFBFE
EndChar

StartChar: afii52364
Encoding: 64509 64509 141
Width: 1551
GlyphClass: 2
Flags: W
AnchorPoint: "Anchor-3" 630 -1200 basechar 0
AnchorPoint: "Anchor-2" 675 630 basechar 0
LayerCount: 2
Fore
SplineSet
1583 0 m 1,0,-1
 1326 0 l 2,1,2
 1277 0 1277 0 1233 -22 c 1,3,4
 1196 -48 1196 -48 1189 -52 c 1,5,6
 1225 -87 1225 -87 1310 -113 c 2,7,-1
 1445 -154 l 2,8,9
 1508 -174 1508 -174 1508 -220 c 0,10,11
 1508 -259 1508 -259 1436 -353 c 0,12,13
 1200 -665 1200 -665 725 -665 c 0,14,15
 308 -665 308 -665 224 -441 c 0,16,17
 202 -381 202 -381 202 -293 c 0,18,19
 202 -277 202 -277 216 -224 c 0,20,21
 267 -36 267 -36 385 97 c 1,22,23
 400 91 400 91 417 87 c 1,24,-1
 417 45 l 1,25,26
 385 -6 385 -6 351 -81 c 0,27,28
 308 -176 308 -176 308 -224 c 0,29,30
 308 -360 308 -360 484 -420 c 0,31,32
 605 -462 605 -462 774 -462 c 0,33,34
 1100 -462 1100 -462 1348 -333 c 1,35,36
 1317 -280 1317 -280 1226 -260 c 0,37,38
 1176 -251 1176 -251 1077 -231 c 0,39,40
 1004 -214 1004 -214 1004 -160 c 1,41,42
 1011 -136 1011 -136 1029 -88 c 0,43,44
 1119 126 1119 126 1348 203 c 1,45,-1
 1583 203 l 1,46,-1
 1583 0 l 1,0,-1
EndSplineSet
EndChar

StartChar: afii62945
Encoding: 65557 -1 147
Width: 1526
GlyphClass: 3
Flags: W
LayerCount: 2
Fore
SplineSet
1477 361 m 0,0,1
 1477 244 1477 244 1432 144 c 0,2,3
 1376 20 1376 20 1278 20 c 0,4,5
 1184 20 1184 20 1079 181 c 1,6,7
 1060 164 1060 164 962 74 c 0,8,9
 879 0 879 0 806 0 c 0,10,11
 735 0 735 0 679 50 c 0,12,13
 641 84 641 84 588 171 c 1,14,15
 559 153 559 153 502 120 c 128,-1,16
 445 87 445 87 393 87 c 0,17,18
 330 87 330 87 251 136 c 0,19,20
 190 172 190 172 190 220 c 0,21,22
 190 241 190 241 210 290 c 0,23,24
 280 461 280 461 438 535 c 0,25,26
 556 589 556 589 556 669 c 0,27,28
 556 675 556 675 556 686 c 0,29,30
 554 697 554 697 554 703 c 0,31,32
 554 773 554 773 654 825 c 1,33,34
 655 804 655 804 673 624 c 0,35,36
 714 246 714 246 858 246 c 0,37,38
 994 246 994 246 994 370 c 1,39,-1
 917 885 l 1,40,41
 944 963 944 963 955 984 c 0,42,43
 977 1030 977 1030 1026 1079 c 1,44,45
 1049 1035 1049 1035 1075 879 c 0,46,47
 1116 638 1116 638 1127 592 c 0,48,49
 1163 420 1163 420 1210 340 c 0,50,51
 1221 318 1221 318 1246 288 c 0,52,53
 1289 237 1289 237 1322 237 c 0,54,55
 1368 237 1368 237 1368 314 c 2,56,-1
 1368 333 l 2,57,58
 1368 456 1368 456 1281 811 c 2,59,-1
 1249 937 l 1,60,61
 1249 976 1249 976 1326 1070 c 1,62,63
 1341 1049 1341 1049 1375 941 c 0,64,65
 1477 622 1477 622 1477 361 c 0,0,1
545 382 m 0,66,67
 545 392 545 392 539 402.5 c 128,-1,68
 533 413 533 413 532 417 c 1,69,-1
 490 417 l 1,70,71
 468 400 468 400 419 353 c 1,72,73
 447 337 447 337 459 321 c 1,74,75
 484 321 484 321 514.5 339.5 c 128,-1,76
 545 358 545 358 545 382 c 0,66,67
EndSplineSet
EndChar

StartChar: afii64184
Encoding: 65010 65010 148
Width: 1526
GlyphClass: 3
Flags: W
AnchorPoint: "Anchor-1" 1380 -285 baselig 0
AnchorPoint: "Anchor-0" 1410 1260 baselig 0
AnchorPoint: "Anchor-1" 930 -390 baselig 1
AnchorPoint: "Anchor-0" 975 1125 baselig 1
AnchorPoint: "Anchor-1" 405 -465 baselig 2
AnchorPoint: "Anchor-0" 450 870 baselig 2
LayerCount: 2
Fore
SplineSet
1477 361 m 0,0,1
 1477 244 1477 244 1432 144 c 0,2,3
 1376 20 1376 20 1278 20 c 0,4,5
 1184 20 1184 20 1079 181 c 1,6,7
 1060 164 1060 164 962 74 c 0,8,9
 879 0 879 0 806 0 c 0,10,11
 735 0 735 0 679 50 c 0,12,13
 641 84 641 84 606 173 c 1,14,15
 559 153 559 153 502 120 c 128,-1,16
 445 87 445 87 393 87 c 0,17,18
 330 87 330 87 251 136 c 0,19,20
 190 172 190 172 190 220 c 0,21,22
 190 241 190 241 210 290 c 0,23,24
 280 461 280 461 438 535 c 1,25,26
 515 577 515 577 535 597 c 1,27,28
 545 697 545 697 545 703 c 0,29,30
 545 773 545 773 654 825 c 1,31,32
 655 804 655 804 673 624 c 0,33,34
 714 246 714 246 858 246 c 0,35,36
 994 246 994 246 994 370 c 1,37,-1
 917 885 l 1,38,39
 944 963 944 963 955 984 c 0,40,41
 977 1030 977 1030 1026 1079 c 1,42,43
 1049 1035 1049 1035 1075 879 c 0,44,45
 1116 638 1116 638 1127 592 c 0,46,47
 1163 420 1163 420 1210 340 c 0,48,49
 1221 318 1221 318 1246 288 c 0,50,51
 1289 237 1289 237 1322 237 c 0,52,53
 1368 237 1368 237 1368 314 c 2,54,-1
 1368 333 l 2,55,56
 1368 456 1368 456 1281 811 c 2,57,-1
 1249 937 l 1,58,59
 1249 976 1249 976 1326 1070 c 1,60,61
 1341 1049 1341 1049 1375 941 c 0,62,63
 1477 622 1477 622 1477 361 c 0,0,1
559 381 m 0,64,65
 559 391 559 391 545 469 c 1,66,67
 468 420 468 420 427 374.5 c 128,-1,68
 386 329 386 329 386 291 c 1,69,70
 412 291 412 291 485.5 324 c 128,-1,71
 559 357 559 357 559 381 c 0,64,65
820 1379 m 1,72,-1
 820 1366 l 2,73,74
 820 1296 820 1296 830 1281 c 0,75,76
 847 1257 847 1257 872 1257 c 0,77,78
 916 1257 916 1257 944 1324 c 0,79,80
 948 1336 948 1336 955 1389 c 0,81,82
 958 1403 958 1403 962 1438 c 1,83,-1
 986 1445 l 1,84,85
 1002 1407 1002 1407 1011 1365 c 0,86,87
 1021 1327 1021 1327 1061 1323 c 0,88,89
 1102 1320 1102 1320 1123 1408 c 0,90,91
 1130 1436 1130 1436 1137 1499 c 1,92,-1
 1162 1512 l 1,93,94
 1166 1457 1166 1457 1166 1421 c 0,95,96
 1166 1236 1166 1236 1102 1212 c 0,97,98
 1082 1205 1082 1205 1060 1205 c 0,99,100
 1029 1205 1029 1205 1002 1219 c 0,101,102
 993 1224 993 1224 980 1235 c 1,103,104
 960 1200 960 1200 945 1182 c 0,105,106
 899 1127 899 1127 853 1127 c 0,107,108
 777 1127 777 1127 777 1238 c 0,109,110
 777 1301 777 1301 797 1368 c 1,111,-1
 820 1379 l 1,72,-1
993 1565 m 1,112,-1
 941 1490 l 1,113,114
 941 1525 941 1525 934.5 1610 c 128,-1,115
 928 1695 928 1695 907 1784 c 1,116,-1
 979 1865 l 1,117,118
 1023 1651 1023 1651 993 1565 c 1,112,-1
EndSplineSet
Ligature2: "'rlig' Required Ligatures in Arabic lookup 5 subtable" afii62817 afii62818 uniFC63 afii62828
Ligature2: "'rlig' Required Ligatures in Arabic lookup 5 subtable" afii62817 afii62818 afii57457 uni0670 afii62828
EndChar

StartChar: afii57415.001
Encoding: 1575 1575 162
Width: 360
GlyphClass: 2
Flags: W
AnchorPoint: "Anchor-3" 270 -375 basechar 0
AnchorPoint: "Anchor-2" 180 1485 basechar 0
LayerCount: 2
Fore
SplineSet
311 337 m 1,0,1
 311 221 311 221 302 164 c 0,2,3
 288 74 288 74 248 0 c 1,4,-1
 217 0 l 1,5,6
 195 38 195 38 196 129 c 0,7,8
 195 451 195 451 165 823.5 c 128,-1,9
 135 1196 135 1196 135 1204 c 0,10,11
 212 1427 212 1427 272 1415 c 1,12,-1
 311 337 l 1,0,1
EndSplineSet
Substitution2: "'fina' Terminal Forms in Arabic lookup 2 subtable" afii62760
EndChar

StartChar: afii62760.001
Encoding: 65558 -1 163
Width: 533
GlyphClass: 2
Flags: W
LayerCount: 2
Fore
SplineSet
204 573 m 0,0,1
 204 1051 204 1051 158 1268 c 0,2,3
 151 1292 151 1292 140 1337 c 1,4,5
 169 1415 169 1415 270 1511 c 1,6,7
 276 1498 276 1498 293 1268 c 0,8,9
 300 1172 300 1172 300 1102 c 2,10,-1
 300 878 l 2,11,12
 300 760 300 760 314 624 c 0,13,14
 360 203 360 203 493 203 c 2,15,-1
 594 203 l 1,16,-1
 594 0 l 1,17,-1
 493 0 l 2,18,19
 402 0 402 0 332 102 c 1,20,21
 273 216 273 216 260 237 c 1,22,23
 228 322 228 322 221 357 c 0,24,25
 204 431 204 431 204 573 c 0,0,1
EndSplineSet
EndChar

StartChar: afii57421
Encoding: 1581 1581 182
Width: 1547
GlyphClass: 2
Flags: W
AnchorPoint: "Anchor-3" 750 -1605 basechar 0
AnchorPoint: "Anchor-2" 795 960 basechar 0
LayerCount: 2
Fore
SplineSet
1716 -902 m 1,0,1
 1603 -984 1603 -984 1378 -1050 c 0,2,3
 1159 -1113 1159 -1113 1011 -1113 c 0,4,5
 683 -1113 683 -1113 468 -972 c 0,6,7
 216 -805 216 -805 216 -493 c 0,8,9
 216 -209 216 -209 410 48 c 0,10,11
 533 211 533 211 721 321 c 1,12,13
 671 365 671 365 603 365 c 0,14,15
 594 365 594 365 571.5 364 c 128,-1,16
 549 363 549 363 538 363 c 0,17,18
 451 363 451 363 402 342 c 1,19,-1
 326 297 l 1,20,21
 304 297 304 297 293 308 c 1,22,-1
 293 349 l 1,23,24
 344 447 344 447 361 472 c 0,25,26
 431 574 431 574 582 574 c 0,27,28
 627 574 627 574 739 556 c 0,29,30
 882 532 882 532 984 521 c 0,31,32
 1165 503 1165 503 1417 495 c 1,33,-1
 1393 458 l 2,34,35
 1334 361 1334 361 1295 333 c 0,36,37
 1266 312 1266 312 1207 312 c 0,38,39
 1110 312 1110 312 1053 302 c 0,40,41
 932 279 932 279 762 199 c 0,42,43
 580 116 580 116 468 -36 c 0,44,45
 347 -199 347 -199 347 -389 c 0,46,47
 347 -659 347 -659 578 -794 c 0,48,49
 766 -902 766 -902 1057 -902 c 0,50,51
 1190 -902 1190 -902 1571 -862 c 2,52,-1
 1716 -848 l 1,53,-1
 1716 -902 l 1,0,1
EndSplineSet
Substitution2: "'medi' Medial Forms in Arabic lookup 3 subtable" afii62775
Substitution2: "'fina' Terminal Forms in Arabic lookup 2 subtable" afii62776
Substitution2: "'init' Initial Forms in Arabic lookup 1 subtable" afii62774
EndChar

StartChar: afii62776
Encoding: 65186 65186 183
Width: 1525
GlyphClass: 2
Flags: W
AnchorPoint: "Anchor-3" 795 -1605 basechar 0
AnchorPoint: "Anchor-2" 885 960 basechar 0
LayerCount: 2
Fore
SplineSet
1677 -854 m 0,0,1
 1677 -876 1677 -876 1593 -925 c 0,2,3
 1345 -1070 1345 -1070 1000 -1070 c 0,4,5
 372 -1070 372 -1070 242 -685 c 0,6,7
 211 -591 211 -591 211 -461 c 0,8,9
 211 -157 211 -157 386 69 c 0,10,11
 505 221 505 221 703 340 c 1,12,13
 645 395 645 395 517 395 c 0,14,15
 442 395 442 395 396 372 c 1,16,17
 357 346 357 346 319 321 c 1,18,19
 298 321 298 321 292 328.5 c 128,-1,20
 286 336 286 336 274 340 c 1,21,22
 364 588 364 588 564 588 c 0,23,24
 623 588 623 588 735 567 c 2,25,-1
 963 524 l 2,26,27
 997 520 997 520 1042.5 518.5 c 128,-1,28
 1088 517 1088 517 1140.5 517.5 c 128,-1,29
 1193 518 1193 518 1250.5 522 c 128,-1,30
 1308 526 1308 526 1366 532 c 1,31,32
 1421 519 1421 519 1294 346 c 1,33,34
 1182 329 1182 329 1092 312 c 1,35,-1
 1100 280 l 1,36,37
 1145 225 1145 225 1172 213 c 0,38,39
 1191 203 1191 203 1245 203 c 2,40,-1
 1569 203 l 1,41,-1
 1569 0 l 1,42,-1
 1121 0 l 2,43,44
 983 0 983 0 983 174 c 0,45,46
 983 230 983 230 1007 288 c 1,47,48
 991 298 991 298 977 298 c 0,49,50
 899 298 899 298 757 230 c 0,51,52
 329 20 329 20 329 -351 c 0,53,54
 329 -711 329 -711 731 -823 c 0,55,56
 893 -868 893 -868 1110 -868 c 0,57,58
 1338 -868 1338 -868 1670 -825 c 1,59,60
 1677 -829 1677 -829 1677 -854 c 0,0,1
EndSplineSet
EndChar

StartChar: afii62774
Encoding: 65187 65187 184
Width: 1327
GlyphClass: 2
Flags: W
AnchorPoint: "Anchor-3" 450 -525 basechar 0
AnchorPoint: "Anchor-2" 645 1050 basechar 0
LayerCount: 2
Fore
SplineSet
1224 298 m 1,0,-1
 882 298 l 2,1,2
 815 298 815 298 680 221 c 0,3,4
 463 97 463 97 423 78 c 0,5,6
 258 0 258 0 122 0 c 2,7,-1
 -27 0 l 1,8,-1
 -27 203 l 1,9,-1
 122 203 l 2,10,11
 286 203 286 203 519 322 c 0,12,13
 588 356 588 356 615 377 c 1,14,15
 475 476 475 476 318 476 c 0,16,17
 276 476 276 476 102 449 c 1,18,-1
 90 475 l 1,19,20
 90 540 90 540 176 620 c 0,21,22
 245 685 245 685 337 685 c 0,23,24
 379 685 379 685 498 641 c 0,25,26
 549 623 549 623 711 557 c 0,27,28
 830 510 830 510 861 504 c 0,29,30
 939 489 939 489 1070 483 c 0,31,32
 1226 475 1226 475 1299 478 c 1,33,-1
 1224 298 l 1,0,-1
EndSplineSet
EndChar

StartChar: afii62775
Encoding: 65188 65188 185
Width: 1385
GlyphClass: 2
Flags: W
AnchorPoint: "Anchor-3" 555 -630 basechar 0
AnchorPoint: "Anchor-2" 690 1005 basechar 0
LayerCount: 2
Fore
SplineSet
1434 0 m 1,0,-1
 1152 0 l 2,1,2
 944 0 944 0 944 155 c 0,3,4
 944 200 944 200 962 267 c 1,5,6
 953 272 953 272 943.5 276 c 128,-1,7
 934 280 934 280 895 280 c 0,8,9
 832 280 832 280 686 209 c 0,10,11
 465 99 465 99 399 74 c 0,12,13
 214 0 214 0 71 0 c 2,14,-1
 -25 0 l 1,15,-1
 -25 203 l 1,16,-1
 21 203 l 2,17,18
 225 203 225 203 438 286 c 0,19,20
 505 311 505 311 616 365 c 1,21,22
 567 400 567 400 491 431 c 0,23,24
 385 477 385 477 301 477 c 0,25,26
 235 477 235 477 190 449 c 0,27,28
 174 440 174 440 155 436.5 c 128,-1,29
 136 433 136 433 122.5 437.5 c 128,-1,30
 109 442 109 442 104.5 455 c 128,-1,31
 100 468 100 468 113 491 c 0,32,33
 181 602 181 602 192 613 c 0,34,35
 253 685 253 685 339 685 c 0,36,37
 409 685 409 685 535 627 c 0,38,39
 613 591 613 591 773 520 c 1,40,41
 911 465 911 465 1032 465 c 2,42,-1
 1316 468 l 2,43,44
 1355 469 1355 469 1277 299 c 1,45,46
 1148 295 1148 295 1127 295 c 2,47,-1
 1089 292 l 2,48,49
 1086 288 1086 288 1079 274 c 0,50,51
 1079 272 1079 272 1077 267 c 0,52,53
 1077 235 1077 235 1124 217 c 0,54,55
 1158 203 1158 203 1183 203 c 2,56,-1
 1434 203 l 1,57,-1
 1434 0 l 1,0,-1
EndSplineSet
EndChar

StartChar: afii57423
Encoding: 1583 1583 190
Width: 899
GlyphClass: 2
Flags: W
AnchorPoint: "Anchor-3" 345 -465 basechar 0
AnchorPoint: "Anchor-2" 495 1080 basechar 0
LayerCount: 2
Fore
SplineSet
850 309 m 0,0,1
 850 70 850 70 580 -1 c 0,2,3
 486 -25 486 -25 369 -25 c 0,4,5
 184 -25 184 -25 184 48 c 2,6,-1
 184 62 l 2,7,8
 184 70 184 70 185 77 c 0,9,10
 188 119 188 119 199 178 c 0,11,12
 206 214 206 214 206 242 c 1,13,14
 210 242 210 242 218 248.5 c 128,-1,15
 226 255 226 255 230 255 c 0,16,17
 254 241 254 241 272 234 c 0,18,19
 328 213 328 213 383 213 c 0,20,21
 485 213 485 213 612 249 c 0,22,23
 763 293 763 293 763 347 c 0,24,25
 763 445 763 445 486 598 c 0,26,27
 397 647 397 647 388 654 c 1,28,29
 388 739 388 739 465 853 c 1,30,31
 850 696 850 696 850 309 c 0,0,1
EndSplineSet
Substitution2: "'fina' Terminal Forms in Arabic lookup 2 subtable" afii62780
PairPos2: "'kern' Horizontal Kerning in Arabic lookup 0 subtable" afii57410 dx=0 dy=0 dh=0 dv=0 dx=0 dy=0 dh=-200 dv=0
PairPos2: "'kern' Horizontal Kerning in Arabic lookup 0 subtable" afii57434 dx=0 dy=0 dh=0 dv=0 dx=0 dy=0 dh=-100 dv=0
PairPos2: "'kern' Horizontal Kerning in Arabic lookup 0 subtable" afii57433 dx=0 dy=0 dh=0 dv=0 dx=0 dy=0 dh=-100 dv=0
PairPos2: "'kern' Horizontal Kerning in Arabic lookup 0 subtable" afii57422 dx=0 dy=0 dh=0 dv=0 dx=0 dy=0 dh=-80 dv=0
PairPos2: "'kern' Horizontal Kerning in Arabic lookup 0 subtable" afii57421 dx=0 dy=0 dh=0 dv=0 dx=0 dy=0 dh=-80 dv=0
PairPos2: "'kern' Horizontal Kerning in Arabic lookup 0 subtable" afii57420 dx=0 dy=0 dh=0 dv=0 dx=0 dy=0 dh=-80 dv=0
PairPos2: "'kern' Horizontal Kerning in Arabic lookup 0 subtable" afii62965 dx=0 dy=0 dh=0 dv=0 dx=0 dy=0 dh=-200 dv=0
PairPos2: "'kern' Horizontal Kerning in Arabic lookup 0 subtable" afii57509 dx=0 dy=0 dh=0 dv=0 dx=0 dy=0 dh=-200 dv=0
PairPos2: "'kern' Horizontal Kerning in Arabic lookup 0 subtable" afii52305 dx=0 dy=0 dh=0 dv=0 dx=0 dy=0 dh=-200 dv=0
PairPos2: "'kern' Horizontal Kerning in Arabic lookup 0 subtable" afii57567 dx=0 dy=0 dh=0 dv=0 dx=0 dy=0 dh=-200 dv=0
PairPos2: "'kern' Horizontal Kerning in Arabic lookup 0 subtable" afii57507 dx=0 dy=0 dh=0 dv=0 dx=0 dy=0 dh=-80 dv=0
EndChar

StartChar: afii62780
Encoding: 65194 65194 191
Width: 1193
GlyphClass: 2
Flags: W
AnchorPoint: "Anchor-3" 450 -480 basechar 0
AnchorPoint: "Anchor-2" 660 1335 basechar 0
LayerCount: 2
Fore
SplineSet
1233 0 m 1,0,-1
 1081 0 l 2,1,2
 1018 0 1018 0 966 90 c 1,3,4
 934 162 934 162 902 237 c 1,5,6
 864 207 864 207 799 130 c 0,7,8
 745 63 745 63 693 38 c 0,9,10
 615 0 615 0 475 0 c 0,11,12
 234 0 234 0 234 125 c 0,13,14
 234 160 234 160 245 193 c 0,15,16
 276 290 276 290 279 321 c 1,17,18
 294 326 294 326 311 332 c 0,19,20
 321 332 321 332 339 298 c 0,21,22
 358 258 358 258 382 244 c 0,23,24
 435 211 435 211 550 211 c 0,25,26
 706 211 706 211 776 262 c 0,27,28
 857 321 857 321 857 468 c 0,29,30
 857 564 857 564 780 956 c 1,31,32
 780 986 780 986 889 1092 c 1,33,34
 903 1061 903 1061 917 955 c 0,35,36
 938 784 938 784 948 715 c 0,37,38
 974 540 974 540 1013 377 c 0,39,40
 1022 325 1022 325 1041.5 264 c 128,-1,41
 1061 203 1061 203 1103 203 c 2,42,-1
 1233 203 l 1,43,-1
 1233 0 l 1,0,-1
EndSplineSet
PairPos2: "'kern' Horizontal Kerning in Arabic lookup 0 subtable" afii57410 dx=0 dy=0 dh=0 dv=0 dx=0 dy=0 dh=-200 dv=0
PairPos2: "'kern' Horizontal Kerning in Arabic lookup 0 subtable" afii57434 dx=0 dy=0 dh=0 dv=0 dx=0 dy=0 dh=-100 dv=0
PairPos2: "'kern' Horizontal Kerning in Arabic lookup 0 subtable" afii57433 dx=0 dy=0 dh=0 dv=0 dx=0 dy=0 dh=-100 dv=0
PairPos2: "'kern' Horizontal Kerning in Arabic lookup 0 subtable" afii57422 dx=0 dy=0 dh=0 dv=0 dx=0 dy=0 dh=-80 dv=0
PairPos2: "'kern' Horizontal Kerning in Arabic lookup 0 subtable" afii57421 dx=0 dy=0 dh=0 dv=0 dx=0 dy=0 dh=-80 dv=0
PairPos2: "'kern' Horizontal Kerning in Arabic lookup 0 subtable" afii57420 dx=0 dy=0 dh=0 dv=0 dx=0 dy=0 dh=-80 dv=0
PairPos2: "'kern' Horizontal Kerning in Arabic lookup 0 subtable" afii62965 dx=0 dy=0 dh=0 dv=0 dx=0 dy=0 dh=-200 dv=0
PairPos2: "'kern' Horizontal Kerning in Arabic lookup 0 subtable" afii57509 dx=0 dy=0 dh=0 dv=0 dx=0 dy=0 dh=-200 dv=0
PairPos2: "'kern' Horizontal Kerning in Arabic lookup 0 subtable" afii52305 dx=0 dy=0 dh=0 dv=0 dx=0 dy=0 dh=-200 dv=0
PairPos2: "'kern' Horizontal Kerning in Arabic lookup 0 subtable" afii57567 dx=0 dy=0 dh=0 dv=0 dx=0 dy=0 dh=-200 dv=0
PairPos2: "'kern' Horizontal Kerning in Arabic lookup 0 subtable" afii57507 dx=0 dy=0 dh=0 dv=0 dx=0 dy=0 dh=-80 dv=0
EndChar

StartChar: afii57425
Encoding: 1585 1585 194
Width: 784
GlyphClass: 2
Flags: W
AnchorPoint: "Anchor-3" 240 -1005 basechar 0
AnchorPoint: "Anchor-2" 390 840 basechar 0
LayerCount: 2
Fore
SplineSet
735 104 m 0,0,1
 735 -125 735 -125 595 -325 c 0,2,3
 440 -545 440 -545 220 -545 c 0,4,5
 143 -545 143 -545 38 -498 c 0,6,7
 -56 -458 -56 -458 -98 -417 c 1,8,-1
 -98 -386 l 1,9,10
 -60 -386 -60 -386 0 -396 c 0,11,12
 136 -416 136 -416 161 -416 c 0,13,14
 196 -416 196 -416 223 -406 c 0,15,16
 255 -393 255 -393 346 -330 c 0,17,18
 651 -120 651 -120 651 22 c 0,19,20
 651 70 651 70 526 270 c 0,21,22
 484 339 484 339 480 342 c 1,23,24
 480 360 480 360 518.5 425.5 c 128,-1,25
 557 491 557 491 571 491 c 0,26,27
 630 491 630 491 685 344 c 0,28,29
 735 210 735 210 735 104 c 0,0,1
EndSplineSet
Substitution2: "'fina' Terminal Forms in Arabic lookup 2 subtable" afii62782
PairPos2: "'kern' Horizontal Kerning in Arabic lookup 0 subtable" afii57415 dx=0 dy=0 dh=0 dv=0 dx=0 dy=0 dh=-50 dv=0
PairPos2: "'kern' Horizontal Kerning in Arabic lookup 0 subtable" uni0675 dx=0 dy=0 dh=0 dv=0 dx=0 dy=0 dh=-50 dv=0
PairPos2: "'kern' Horizontal Kerning in Arabic lookup 0 subtable" uni0672 dx=0 dy=0 dh=0 dv=0 dx=0 dy=0 dh=-50 dv=0
PairPos2: "'kern' Horizontal Kerning in Arabic lookup 0 subtable" afii62831 dx=0 dy=0 dh=0 dv=0 dx=0 dy=0 dh=150 dv=0
PairPos2: "'kern' Horizontal Kerning in Arabic lookup 0 subtable" afii57444 dx=0 dy=0 dh=0 dv=0 dx=0 dy=0 dh=100 dv=0
PairPos2: "'kern' Horizontal Kerning in Arabic lookup 0 subtable" afii57410 dx=0 dy=0 dh=0 dv=0 dx=0 dy=0 dh=-280 dv=0
PairPos2: "'kern' Horizontal Kerning in Arabic lookup 0 subtable" afii57434 dx=0 dy=0 dh=0 dv=0 dx=0 dy=0 dh=-100 dv=0
PairPos2: "'kern' Horizontal Kerning in Arabic lookup 0 subtable" afii57433 dx=0 dy=0 dh=0 dv=0 dx=0 dy=0 dh=-100 dv=0
PairPos2: "'kern' Horizontal Kerning in Arabic lookup 0 subtable" afii62761 dx=0 dy=0 dh=0 dv=0 dx=0 dy=0 dh=150 dv=0
PairPos2: "'kern' Horizontal Kerning in Arabic lookup 0 subtable" afii57413 dx=0 dy=0 dh=0 dv=0 dx=0 dy=0 dh=200 dv=0
PairPos2: "'kern' Horizontal Kerning in Arabic lookup 0 subtable" afii57411 dx=0 dy=0 dh=0 dv=0 dx=0 dy=0 dh=-50 dv=0
PairPos2: "'kern' Horizontal Kerning in Arabic lookup 0 subtable" afii62965 dx=0 dy=0 dh=0 dv=0 dx=0 dy=0 dh=-280 dv=0
PairPos2: "'kern' Horizontal Kerning in Arabic lookup 0 subtable" afii57509 dx=0 dy=0 dh=0 dv=0 dx=0 dy=0 dh=-280 dv=0
PairPos2: "'kern' Horizontal Kerning in Arabic lookup 0 subtable" afii52305 dx=0 dy=0 dh=0 dv=0 dx=0 dy=0 dh=-280 dv=0
PairPos2: "'kern' Horizontal Kerning in Arabic lookup 0 subtable" afii57567 dx=0 dy=0 dh=0 dv=0 dx=0 dy=0 dh=-280 dv=0
PairPos2: "'kern' Horizontal Kerning in Arabic lookup 0 subtable" afii62956 dx=0 dy=0 dh=0 dv=0 dx=0 dy=0 dh=150 dv=0
EndChar

StartChar: afii62782
Encoding: 65198 65198 195
Width: 913
GlyphClass: 2
Flags: W
AnchorPoint: "Anchor-3" 240 -1140 basechar 0
AnchorPoint: "Anchor-2" 525 660 basechar 0
LayerCount: 2
Fore
SplineSet
949 0 m 1,0,-1
 865 0 l 2,1,2
 797 0 797 0 776 -22 c 0,3,4
 762 -38 762 -38 738 -115 c 0,5,6
 707 -218 707 -218 659 -312 c 0,7,8
 578 -472 578 -472 426 -575 c 0,9,10
 329 -640 329 -640 244 -640 c 0,11,12
 175 -640 175 -640 82 -594.5 c 128,-1,13
 -11 -549 -11 -549 -57 -494 c 1,14,15
 -27 -469 -27 -469 -3 -469 c 0,16,17
 8 -469 8 -469 29 -476 c 0,18,19
 80 -491 80 -491 125 -491 c 0,20,21
 273 -491 273 -491 462 -346 c 0,22,23
 659 -192 659 -192 659 -48 c 0,24,25
 659 -4 659 -4 617 50 c 0,26,27
 585 90 585 90 522 167 c 0,28,29
 522 172 522 172 566 250 c 128,-1,30
 610 328 610 328 617 335 c 1,31,32
 734 249 734 249 767.5 226 c 128,-1,33
 801 203 801 203 865 203 c 2,34,-1
 949 203 l 1,35,-1
 949 0 l 1,0,-1
EndSplineSet
PairPos2: "'kern' Horizontal Kerning in Arabic lookup 0 subtable" afii57415 dx=0 dy=0 dh=0 dv=0 dx=0 dy=0 dh=-100 dv=0
PairPos2: "'kern' Horizontal Kerning in Arabic lookup 0 subtable" afii62831 dx=0 dy=0 dh=0 dv=0 dx=0 dy=0 dh=80 dv=0
PairPos2: "'kern' Horizontal Kerning in Arabic lookup 0 subtable" afii62817 dx=0 dy=0 dh=0 dv=0 dx=0 dy=0 dh=-70 dv=0
PairPos2: "'kern' Horizontal Kerning in Arabic lookup 0 subtable" afii57444 dx=0 dy=0 dh=0 dv=0 dx=0 dy=0 dh=40 dv=0
PairPos2: "'kern' Horizontal Kerning in Arabic lookup 0 subtable" afii57410 dx=0 dy=0 dh=0 dv=0 dx=0 dy=0 dh=-280 dv=0
PairPos2: "'kern' Horizontal Kerning in Arabic lookup 0 subtable" afii57443 dx=0 dy=0 dh=0 dv=0 dx=0 dy=0 dh=-70 dv=0
PairPos2: "'kern' Horizontal Kerning in Arabic lookup 0 subtable" afii57434 dx=0 dy=0 dh=0 dv=0 dx=0 dy=0 dh=-80 dv=0
PairPos2: "'kern' Horizontal Kerning in Arabic lookup 0 subtable" afii57433 dx=0 dy=0 dh=0 dv=0 dx=0 dy=0 dh=-80 dv=0
PairPos2: "'kern' Horizontal Kerning in Arabic lookup 0 subtable" afii62761 dx=0 dy=0 dh=0 dv=0 dx=0 dy=0 dh=80 dv=0
PairPos2: "'kern' Horizontal Kerning in Arabic lookup 0 subtable" afii57413 dx=0 dy=0 dh=0 dv=0 dx=0 dy=0 dh=120 dv=0
PairPos2: "'kern' Horizontal Kerning in Arabic lookup 0 subtable" afii62965 dx=0 dy=0 dh=0 dv=0 dx=0 dy=0 dh=-280 dv=0
PairPos2: "'kern' Horizontal Kerning in Arabic lookup 0 subtable" afii57509 dx=0 dy=0 dh=0 dv=0 dx=0 dy=0 dh=-280 dv=0
PairPos2: "'kern' Horizontal Kerning in Arabic lookup 0 subtable" afii52305 dx=0 dy=0 dh=0 dv=0 dx=0 dy=0 dh=-280 dv=0
PairPos2: "'kern' Horizontal Kerning in Arabic lookup 0 subtable" afii57567 dx=0 dy=0 dh=0 dv=0 dx=0 dy=0 dh=-280 dv=0
PairPos2: "'kern' Horizontal Kerning in Arabic lookup 0 subtable" afii62956 dx=0 dy=0 dh=0 dv=0 dx=0 dy=0 dh=80 dv=0
EndChar

StartChar: afii57427
Encoding: 1587 1587 198
Width: 2264
GlyphClass: 2
Flags: W
AnchorPoint: "Anchor-3" 1470 -945 basechar 0
AnchorPoint: "Anchor-2" 1665 885 basechar 0
LayerCount: 2
Fore
SplineSet
2215 389 m 0,0,1
 2215 265 2215 265 2173 181 c 0,2,3
 2120 73 2120 73 2008 73 c 0,4,5
 1943 73 1943 73 1898 92 c 0,6,7
 1870 105 1870 105 1820 146 c 1,8,9
 1757 84 1757 84 1695 24 c 1,10,11
 1638 -14 1638 -14 1414 -14 c 0,12,13
 1378 -14 1378 -14 1366 -94 c 0,14,15
 1343 -242 1343 -242 1330 -287 c 0,16,17
 1288 -424 1288 -424 1189 -528 c 0,18,19
 1152 -566 1152 -566 1123 -589 c 0,20,21
 952 -724 952 -724 686 -724 c 0,22,23
 503 -724 503 -724 389 -630 c 0,24,25
 269 -531 269 -531 269 -351 c 0,26,27
 269 -262 269 -262 322 -130 c 0,28,29
 382 17 382 17 451 48 c 1,30,-1
 470 38 l 1,31,-1
 470 -14 l 1,32,33
 365 -171 365 -171 365 -266 c 0,34,35
 365 -381 365 -381 507 -456 c 0,36,37
 624 -518 624 -518 750 -518 c 0,38,39
 1142 -518 1142 -518 1239 -265 c 0,40,41
 1264 -196 1264 -196 1264 -119 c 2,42,-1
 1264 -98 l 1,43,44
 1259 -48 1259 -48 1251 6 c 128,-1,45
 1243 60 1243 60 1211 101 c 0,46,47
 1158 165 1158 165 1158 189 c 0,48,49
 1158 228 1158 228 1203 277 c 0,50,51
 1238 316 1238 316 1252 340 c 1,52,53
 1299 274 1299 274 1333 244 c 0,54,55
 1389 189 1389 189 1499 189 c 0,56,57
 1639 189 1639 189 1721 256 c 0,58,59
 1765 293 1765 293 1813 379 c 0,60,61
 1849 447 1849 447 1880 447 c 0,62,63
 1900 447 1900 447 1917 400 c 0,64,65
 1940 336 1940 336 1960 312 c 0,66,67
 1998 266 1998 266 2068 266 c 0,68,69
 2108 266 2108 266 2108 314 c 0,70,71
 2108 337 2108 337 2088 366.5 c 128,-1,72
 2068 396 2068 396 2068 414 c 0,73,74
 2068 482 2068 482 2163 574 c 1,75,76
 2215 525 2215 525 2215 389 c 0,0,1
EndSplineSet
Substitution2: "'medi' Medial Forms in Arabic lookup 3 subtable" afii62785
Substitution2: "'fina' Terminal Forms in Arabic lookup 2 subtable" afii62786
Substitution2: "'init' Initial Forms in Arabic lookup 1 subtable" afii62784
EndChar

StartChar: afii62786
Encoding: 65202 65202 199
Width: 2265
GlyphClass: 2
Flags: W
AnchorPoint: "Anchor-3" 1515 -870 basechar 0
AnchorPoint: "Anchor-2" 1725 885 basechar 0
LayerCount: 2
Fore
SplineSet
2300 0 m 1,0,-1
 2226 0 l 2,1,2
 2187 0 2187 0 2170 29.5 c 128,-1,3
 2153 59 2153 59 2118 119 c 1,4,5
 2082 105 2082 105 2029 45 c 0,6,7
 1988 0 1988 0 1928 0 c 0,8,9
 1851 0 1851 0 1826 39 c 0,10,11
 1768 129 1768 129 1757 139 c 1,12,13
 1749 133 1749 133 1677 66 c 0,14,15
 1645 35 1645 35 1628 24 c 0,16,17
 1602 6 1602 6 1569.5 -1 c 128,-1,18
 1537 -8 1537 -8 1502 -8 c 0,19,20
 1478 -8 1478 -8 1411 0 c 1,21,22
 1376 -8 1376 -8 1368 -84 c 0,23,24
 1352 -216 1352 -216 1305 -332 c 0,25,26
 1156 -707 1156 -707 689 -707 c 0,27,28
 526 -707 526 -707 407 -617 c 0,29,30
 277 -518 277 -518 277 -361 c 0,31,32
 277 -186 277 -186 437 62 c 1,33,34
 448 57 448 57 459 55 c 0,35,36
 479 48 479 48 479 28 c 1,37,38
 385 -143 385 -143 385 -252 c 0,39,40
 385 -375 385 -375 510 -445 c 0,41,42
 612 -501 612 -501 746 -501 c 0,43,44
 1154 -501 1154 -501 1239 -263 c 0,45,46
 1261 -200 1261 -200 1261 -104 c 0,47,48
 1261 21 1261 21 1225 90 c 1,49,-1
 1147 200 l 1,50,51
 1177 251 1177 251 1190 270 c 0,52,53
 1239 342 1239 342 1257 342 c 0,54,55
 1264 342 1264 342 1288 307 c 0,56,57
 1317 263 1317 263 1352 239 c 0,58,59
 1408 203 1408 203 1492 203 c 0,60,61
 1646 203 1646 203 1725 298 c 0,62,63
 1732 311 1732 311 1756 335 c 0,64,65
 1786 365 1786 365 1799 365 c 0,66,67
 1833 365 1833 365 1841 322 c 0,68,69
 1861 227 1861 227 1952 227 c 0,70,71
 2002 227 2002 227 2045 280 c 1,72,73
 2078 329 2078 329 2108 377 c 1,74,75
 2143 358 2143 358 2164 276 c 0,76,77
 2183 203 2183 203 2216 203 c 2,78,-1
 2300 203 l 1,79,-1
 2300 0 l 1,0,-1
EndSplineSet
EndChar

StartChar: afii62784
Encoding: 65203 65203 200
Width: 1217
GlyphClass: 2
Flags: W
AnchorPoint: "Anchor-3" 540 -585 basechar 0
AnchorPoint: "Anchor-2" 585 855 basechar 0
LayerCount: 2
Fore
SplineSet
1168 358 m 0,0,1
 1168 245 1168 245 1121 158 c 0,2,3
 1064 52 1064 52 960 52 c 0,4,5
 907 52 907 52 850 78 c 0,6,7
 827 90 827 90 764 125 c 1,8,9
 699 42 699 42 647 18 c 0,10,11
 608 -1 608 -1 532 -1 c 0,12,13
 522 -1 522 -1 505 0 c 0,14,15
 489 0 489 0 479 0 c 2,16,-1
 472 0 l 2,17,18
 386 0 386 0 328 36 c 1,19,-1
 231 118 l 1,20,21
 99 0 99 0 50 0 c 2,22,-1
 -36 0 l 1,23,-1
 -36 203 l 1,24,-1
 50 203 l 2,25,26
 133 203 133 203 188 270 c 0,27,28
 200 288 200 288 262 377 c 1,29,30
 288 365 288 365 346 276 c 0,31,32
 392 203 392 203 494 203 c 0,33,34
 606 203 606 203 676 263 c 0,35,36
 711 294 711 294 762 375 c 0,37,38
 799 437 799 437 832 437 c 0,39,40
 860 437 860 437 862 406 c 0,41,42
 875 314 875 314 1008 244 c 1,43,-1
 1037 244 l 1,44,45
 1050 259 1050 259 1050 287 c 0,46,47
 1050 314 1050 314 1029 346 c 128,-1,48
 1008 378 1008 378 1008 392 c 0,49,50
 1008 409 1008 409 1044 472 c 0,51,52
 1084 540 1084 540 1109 540 c 0,53,54
 1168 540 1168 540 1168 358 c 0,0,1
EndSplineSet
EndChar

StartChar: afii62785
Encoding: 65204 65204 201
Width: 1359
GlyphClass: 2
Flags: W
AnchorPoint: "Anchor-3" 570 -690 basechar 0
AnchorPoint: "Anchor-2" 675 795 basechar 0
LayerCount: 2
Fore
SplineSet
1396 0 m 1,0,-1
 1210 0 l 2,1,2
 1173 0 1173 0 1130.5 59 c 128,-1,3
 1088 118 1088 118 1081 118 c 0,4,5
 1072 118 1072 118 1017 63 c 128,-1,6
 962 8 962 8 896 8 c 0,7,8
 819 8 819 8 766 63 c 128,-1,9
 713 118 713 118 700 118 c 0,10,11
 696 118 696 118 636.5 59 c 128,-1,12
 577 0 577 0 503 0 c 0,13,14
 405 0 405 0 332 59 c 128,-1,15
 259 118 259 118 260 118 c 1,16,17
 98 0 98 0 52 0 c 2,18,-1
 -34 0 l 1,19,-1
 -34 203 l 1,20,-1
 125 203 l 2,21,22
 171 203 171 203 222 290 c 128,-1,23
 273 377 273 377 298 377 c 0,24,25
 315 377 315 377 332 335 c 0,26,27
 356 280 356 280 379 258 c 0,28,29
 423 216 423 216 503 216 c 0,30,31
 584 216 584 216 629 286 c 0,32,33
 657 329 657 329 700 396 c 1,34,35
 724 377 724 377 759 314 c 0,36,37
 812 216 812 216 896 216 c 0,38,39
 965 216 965 216 1015 296.5 c 128,-1,40
 1065 377 1065 377 1091 377 c 256,41,42
 1117 377 1117 377 1150.5 290 c 128,-1,43
 1184 203 1184 203 1225 203 c 2,44,-1
 1396 203 l 1,45,-1
 1396 0 l 1,0,-1
EndSplineSet
EndChar

StartChar: afii57429
Encoding: 1589 1589 206
Width: 2688
GlyphClass: 2
Flags: W
AnchorPoint: "Anchor-3" 1560 -945 basechar 0
AnchorPoint: "Anchor-2" 1830 1005 basechar 0
LayerCount: 2
Fore
SplineSet
2478 400 m 1,0,1
 2457 417 2457 417 2418 448 c 0,2,3
 2381 475 2381 475 2303 475 c 0,4,5
 2187 475 2187 475 2078 393 c 0,6,7
 2045 370 2045 370 1900 228 c 1,8,-1
 1953 228 l 2,9,10
 1971 228 1971 228 2068 244 c 0,11,12
 2401 300 2401 300 2478 400 c 1,0,1
1428 3 m 1,13,14
 1407 -46 1407 -46 1379 -196 c 0,15,16
 1354 -336 1354 -336 1315 -412 c 0,17,18
 1212 -613 1212 -613 934 -683 c 0,19,20
 843 -706 843 -706 742 -706 c 0,21,22
 561 -706 561 -706 442 -606 c 0,23,24
 314 -501 314 -501 314 -325 c 0,25,26
 314 -241 314 -241 349 -154 c 0,27,28
 378 -84 378 -84 473 80 c 1,29,30
 517 80 517 80 517 43 c 0,31,32
 517 39 517 39 464.5 -76.5 c 128,-1,33
 412 -192 412 -192 412 -232 c 0,34,35
 412 -323 412 -323 504 -402 c 0,36,37
 619 -500 619 -500 809 -500 c 0,38,39
 1214 -500 1214 -500 1287 -235 c 0,40,41
 1301 -181 1301 -181 1301 -101 c 0,42,43
 1301 25 1301 25 1246 107 c 128,-1,44
 1191 189 1191 189 1191 197 c 0,45,46
 1191 251 1191 251 1289 346 c 1,47,48
 1316 312 1316 312 1372 246 c 0,49,50
 1417 197 1417 197 1547 197 c 0,51,52
 1576 197 1576 197 1632 196 c 0,53,54
 1690 196 1690 196 1719 196 c 0,55,56
 1729 196 1729 196 1730 197 c 2,57,-1
 1852 337 l 2,58,59
 2187 718 2187 718 2444 718 c 0,60,61
 2538 718 2538 718 2591 650 c 0,62,63
 2639 587 2639 587 2639 491 c 0,64,65
 2639 220 2639 220 2276 99 c 0,66,67
 1980 1 1980 1 1824 1 c 0,68,69
 1764 1 1764 1 1750 -7 c 0,70,71
 1719 -32 1719 -32 1666 -168 c 1,72,-1
 1635 -168 l 1,73,74
 1627 -139 1627 -139 1627 -104 c 0,75,76
 1627 -92 1627 -92 1629.5 -71 c 128,-1,77
 1632 -50 1632 -50 1632 -39 c 0,78,79
 1632 -7 1632 -7 1547 -7 c 2,80,-1
 1530 -7 l 2,81,82
 1474 -7 1474 -7 1428 3 c 1,13,14
EndSplineSet
Substitution2: "'medi' Medial Forms in Arabic lookup 3 subtable" afii62791
Substitution2: "'fina' Terminal Forms in Arabic lookup 2 subtable" afii62792
Substitution2: "'init' Initial Forms in Arabic lookup 1 subtable" afii62790
EndChar

StartChar: afii62792
Encoding: 65210 65210 207
Width: 2722
GlyphClass: 2
Flags: W
AnchorPoint: "Anchor-3" 1680 -795 basechar 0
AnchorPoint: "Anchor-2" 1815 1095 basechar 0
LayerCount: 2
Fore
SplineSet
2499 396 m 1,0,1
 2411 486 2411 486 2320 486 c 0,2,3
 2176 486 2176 486 1999 308 c 0,4,5
 1964 273 1964 273 1918 217 c 1,6,-1
 2059 217 l 1,7,8
 2101 235 2101 235 2200.5 257 c 128,-1,9
 2300 279 2300 279 2346 297 c 0,10,11
 2443 337 2443 337 2499 396 c 1,0,1
1757 228 m 1,12,-1
 1889 368 l 2,13,14
 2230 728 2230 728 2454 728 c 0,15,16
 2647 728 2647 728 2647 496 c 0,17,18
 2647 344 2647 344 2575 269 c 1,19,20
 2478 200 2478 200 2430 161 c 1,21,22
 2435 161 2435 161 2443 157 c 128,-1,23
 2451 153 2451 153 2454 153 c 2,24,-1
 2635 204 l 1,25,-1
 2762 204 l 1,26,-1
 2762 1 l 1,27,-1
 1844 1 l 2,28,29
 1777 1 1777 1 1744 -57 c 1,30,-1
 1695 -169 l 1,31,32
 1649 -144 1649 -144 1649 -87 c 0,33,34
 1649 -73 1649 -73 1650.5 -46.5 c 128,-1,35
 1652 -20 1652 -20 1652 -7 c 1,36,37
 1611 -4 1611 -4 1557 -3 c 0,38,39
 1449 1 1449 1 1429 1 c 1,40,41
 1429 -328 1429 -328 1249 -518 c 0,42,43
 1064 -714 1064 -714 738 -714 c 0,44,45
 564 -714 564 -714 448 -613 c 0,46,47
 326 -507 326 -507 326 -335 c 0,48,49
 326 -260 326 -260 385 -125 c 128,-1,50
 444 10 444 10 498 63 c 1,51,52
 507 63 507 63 517 62 c 0,53,54
 531 56 531 56 531 29 c 0,55,56
 531 14 531 14 477.5 -94 c 128,-1,57
 424 -202 424 -202 424 -255 c 0,58,59
 424 -370 424 -370 561 -447 c 0,60,61
 679 -512 679 -512 802 -512 c 0,62,63
 868 -512 868 -512 974 -487 c 0,64,65
 1315 -407 1315 -407 1315 -225 c 2,66,-1
 1315 21 l 2,67,68
 1315 38 1315 38 1260 109.5 c 128,-1,69
 1205 181 1205 181 1205 199 c 1,70,71
 1226 234 1226 234 1239 251 c 0,72,73
 1280 311 1280 311 1315 342 c 1,74,75
 1400 242 1400 242 1408 234 c 0,76,77
 1450 195 1450 195 1561 195 c 2,78,-1
 1593 195 l 2,79,80
 1711 195 1711 195 1757 228 c 1,12,-1
EndSplineSet
EndChar

StartChar: afii62790
Encoding: 65211 65211 208
Width: 1569
GlyphClass: 2
Flags: W
AnchorPoint: "Anchor-3" 525 -735 basechar 0
AnchorPoint: "Anchor-2" 735 990 basechar 0
LayerCount: 2
Fore
SplineSet
1520 497 m 0,0,1
 1520 224 1520 224 1145 87 c 0,2,3
 1061 56 1061 56 931 35 c 0,4,5
 844 22 844 22 725 11 c 0,6,7
 685 8 685 8 645 7 c 1,8,9
 615 1 615 1 594 -36 c 2,10,-1
 525 -160 l 1,11,-1
 503 -160 l 1,12,13
 491 -111 491 -111 491 -85 c 256,14,15
 491 -59 491 -59 503 -10 c 1,16,17
 381 24 381 24 309 57 c 1,18,-1
 231 108 l 1,19,20
 199 81 199 81 155 55 c 0,21,22
 70 0 70 0 11 0 c 2,23,-1
 -21 0 l 1,24,-1
 -21 203 l 1,25,-1
 43 203 l 2,26,27
 101 203 101 203 178 290 c 128,-1,28
 255 377 255 377 277 377 c 0,29,30
 304 377 304 377 319 332 c 0,31,32
 340 272 340 272 365 249 c 0,33,34
 414 204 414 204 525 203 c 0,35,36
 550 203 550 203 575 203 c 0,37,38
 598 202 598 202 599 202 c 0,39,40
 605 202 605 202 609 203 c 0,41,42
 647 249 647 249 722 339 c 0,43,44
 1037 708 1037 708 1313 708 c 0,45,46
 1520 708 1520 708 1520 497 c 0,0,1
1351 395 m 1,47,48
 1309 434 1309 434 1288 445 c 0,49,50
 1243 470 1243 470 1177 470 c 0,51,52
 1063 470 1063 470 937 379 c 0,53,54
 840 309 840 309 781 223 c 1,55,56
 843 241 843 241 976.5 260 c 128,-1,57
 1110 279 1110 279 1176 298 c 0,58,59
 1312 339 1312 339 1351 395 c 1,47,48
EndSplineSet
EndChar

StartChar: afii62791
Encoding: 65212 65212 209
Width: 1690
GlyphClass: 2
Flags: W
AnchorPoint: "Anchor-3" 555 -810 basechar 0
AnchorPoint: "Anchor-2" 660 1020 basechar 0
LayerCount: 2
Fore
SplineSet
1730 0 m 1,0,-1
 1047 0 l 2,1,2
 752 0 752 0 713 -17 c 0,3,4
 697 -22 697 -22 620 -151 c 1,5,-1
 577 -151 l 1,6,-1
 577 0 l 1,7,8
 435 0 435 0 405 14 c 0,9,10
 393 18 393 18 263 129 c 1,11,12
 105 -1 105 -1 106 -1 c 1,13,14
 99 -1 99 -1 84 -1 c 0,15,16
 70 0 70 0 62 0 c 2,17,-1
 -34 0 l 1,18,-1
 -34 203 l 1,19,-1
 50 203 l 2,20,21
 172 203 172 203 234 280 c 0,22,23
 242 293 242 293 269 346 c 0,24,25
 284 377 284 377 314 377 c 0,26,27
 332 377 332 377 353 335 c 0,28,29
 378 279 378 279 406 255 c 0,30,31
 456 211 456 211 546 211 c 0,32,33
 643 211 643 211 783 342 c 0,34,35
 864 417 864 417 1042 584 c 1,36,37
 1208 715 1208 715 1364 715 c 0,38,39
 1456 715 1456 715 1519.5 655.5 c 128,-1,40
 1583 596 1583 596 1583 504 c 0,41,42
 1583 445 1583 445 1551 357 c 0,43,44
 1515 259 1515 259 1473 234 c 0,45,46
 1453 223 1453 223 1424 204 c 0,47,48
 1371 171 1371 171 1371 157 c 0,49,50
 1371 151 1371 151 1385 151 c 2,51,-1
 1616 203 l 1,52,-1
 1730 203 l 1,53,-1
 1730 0 l 1,0,-1
1424 395 m 1,54,55
 1415 407 1415 407 1411 419 c 1,56,57
 1309 482 1309 482 1261 482 c 0,58,59
 1100 482 1100 482 965 339 c 2,60,61
 965 339 965 339 844 211 c 1,62,-1
 993 211 l 1,63,64
 1021 228 1021 228 1107 246 c 0,65,66
 1204 267 1204 267 1236 280 c 0,67,68
 1336 321 1336 321 1424 395 c 1,54,55
EndSplineSet
EndChar

StartChar: afii57431
Encoding: 1591 1591 214
Width: 1536
GlyphClass: 2
Flags: W
AnchorPoint: "Anchor-3" 780 -585 basechar 0
AnchorPoint: "Anchor-2" 1095 1560 basechar 0
LayerCount: 2
Fore
SplineSet
1487 497 m 0,0,1
 1487 234 1487 234 1091 98 c 0,2,3
 806 1 806 1 483 1 c 0,4,5
 372 1 372 1 326 20 c 1,6,7
 263 81 263 81 190 140 c 1,8,-1
 190 195 l 1,9,10
 393 195 393 195 465 207 c 0,11,12
 587 227 587 227 634 305 c 0,13,14
 673 371 673 371 673 504 c 0,15,16
 673 731 673 731 644 946 c 0,17,18
 623 1098 623 1098 587 1249 c 2,19,-1
 556 1373 l 1,20,21
 556 1399 556 1399 599 1453 c 0,22,23
 631 1492 631 1492 664 1532 c 1,24,25
 694 1516 694 1516 749 1428 c 0,26,27
 766 1403 766 1403 799 1343 c 1,28,29
 799 1323 799 1323 780 1305 c 0,30,31
 736 1266 736 1266 736 1145 c 0,32,33
 736 1096 736 1096 750 1014 c 0,34,35
 760 962 760 962 771 837 c 1,36,-1
 778 451 l 1,37,38
 867 528 867 528 1057 661 c 1,39,40
 1158 715 1158 715 1249 715 c 0,41,42
 1334 715 1334 715 1400 669 c 0,43,44
 1487 608 1487 608 1487 497 c 0,0,1
1336 419 m 1,45,46
 1253 493 1253 493 1147 493 c 0,47,48
 1001 493 1001 493 876 374 c 0,49,50
 815 315 815 315 757 256 c 1,51,52
 794 251 794 251 834 246 c 1,53,54
 1009 288 1009 288 1336 419 c 1,45,46
EndSplineSet
Substitution2: "'medi' Medial Forms in Arabic lookup 3 subtable" afii62797
Substitution2: "'fina' Terminal Forms in Arabic lookup 2 subtable" afii62798
Substitution2: "'init' Initial Forms in Arabic lookup 1 subtable" afii62796
EndChar

StartChar: afii62798
Encoding: 65218 65218 215
Width: 1574
GlyphClass: 2
Flags: W
AnchorPoint: "Anchor-3" 840 -570 basechar 0
AnchorPoint: "Anchor-2" 1170 1395 basechar 0
LayerCount: 2
Fore
SplineSet
1606 0 m 1,0,-1
 1509 0 l 2,1,2
 1424 0 1424 0 1338 8 c 2,3,-1
 1166 24 l 2,4,5
 1057 35 1057 35 1028 32 c 2,6,-1
 476 -8 l 2,7,8
 389 -14 389 -14 307 41 c 0,9,10
 227 91 227 91 204 181 c 1,11,12
 251 200 251 200 435 217 c 0,13,14
 596 232 596 232 630 266 c 0,15,16
 696 329 696 329 696 536 c 0,17,18
 696 966 696 966 602 1288 c 0,19,20
 575 1382 575 1382 568 1386 c 1,21,22
 568 1400 568 1400 620 1456 c 0,23,24
 661 1498 661 1498 686 1530 c 1,25,26
 727 1509 727 1509 773 1436 c 0,27,28
 815 1372 815 1372 815 1350 c 0,29,30
 815 1341 815 1341 782 1290 c 128,-1,31
 749 1239 749 1239 749 1179 c 0,32,33
 749 1163 749 1163 770 1011 c 2,34,-1
 792 854 l 1,35,36
 792 778 792 778 798 610 c 0,37,38
 799 546 799 546 805 449 c 1,39,40
 848 493 848 493 897 536 c 0,41,42
 1120 727 1120 727 1274 727 c 0,43,44
 1369 727 1369 727 1438 669 c 0,45,46
 1509 608 1509 608 1509 514 c 0,47,48
 1509 407 1509 407 1460 333 c 0,49,50
 1438 298 1438 298 1358 224 c 1,51,52
 1428 203 1428 203 1509 203 c 2,53,-1
 1606 203 l 1,54,-1
 1606 0 l 1,0,-1
1358 427 m 1,55,56
 1284 504 1284 504 1170 504 c 0,57,58
 990 504 990 504 783 246 c 1,59,60
 885 246 885 246 979.5 272 c 128,-1,61
 1074 298 1074 298 1109 309 c 0,62,63
 1218 346 1218 346 1358 427 c 1,55,56
EndSplineSet
EndChar

StartChar: afii62796
Encoding: 65219 65219 216
Width: 1060
GlyphClass: 2
Flags: W
AnchorPoint: "Anchor-3" 420 -510 basechar 0
AnchorPoint: "Anchor-2" 690 1395 basechar 0
LayerCount: 2
Fore
SplineSet
1011 487 m 0,0,1
 1011 150 1011 150 434 31 c 0,2,3
 280 0 280 0 204 0 c 2,4,-1
 -35 0 l 1,5,-1
 -35 203 l 1,6,-1
 49 203 l 2,7,8
 160 203 160 203 196 323 c 0,9,10
 217 389 217 389 217 532 c 0,11,12
 217 934 217 934 130 1267 c 0,13,14
 120 1305 120 1305 99 1378 c 0,15,16
 99 1385 99 1385 147 1446 c 0,17,18
 203 1518 203 1518 204 1520 c 0,19,20
 230 1508 230 1508 283.5 1435 c 128,-1,21
 337 1362 337 1362 337 1337 c 0,22,23
 337 1336 337 1336 303 1273.5 c 128,-1,24
 269 1211 269 1211 269 1149 c 1,25,-1
 283 1049 l 1,26,27
 294 937 294 937 326 759 c 1,28,-1
 326 427 l 1,29,30
 361 459 361 459 433 525 c 0,31,32
 638 708 638 708 811 708 c 0,33,34
 902 708 902 708 956.5 644 c 128,-1,35
 1011 580 1011 580 1011 487 c 0,0,1
860 419 m 1,36,37
 801 470 801 470 700 470 c 0,38,39
 606 470 606 470 503 420 c 0,40,41
 371 354 371 354 304 237 c 1,42,-1
 346 237 l 1,43,-1
 477 263 l 2,44,45
 610 291 610 291 692 321 c 0,46,47
 815 365 815 365 860 419 c 1,36,37
EndSplineSet
EndChar

StartChar: afii62797
Encoding: 65220 65220 217
Width: 1061
GlyphClass: 2
Flags: W
AnchorPoint: "Anchor-3" 450 -525 basechar 0
AnchorPoint: "Anchor-2" 750 1350 basechar 0
LayerCount: 2
Fore
SplineSet
1102 0 m 1,0,-1
 -21 0 l 1,1,-1
 -21 203 l 1,2,-1
 43 203 l 2,3,4
 203 203 203 203 203 540 c 0,5,6
 203 960 203 960 115 1267 c 2,7,-1
 84 1378 l 1,8,9
 108 1411 108 1411 123 1429 c 0,10,11
 169 1490 169 1490 203 1520 c 1,12,13
 214 1508 214 1508 269 1432 c 0,14,15
 332 1343 332 1343 332 1327 c 1,16,17
 259 1252 259 1252 259 1149 c 1,18,19
 276 1068 276 1068 287 981 c 0,20,21
 295 930 295 930 300 780 c 2,22,-1
 312 427 l 1,23,-1
 430 529 l 2,24,25
 641 708 641 708 797 708 c 0,26,27
 885 708 885 708 946 642.5 c 128,-1,28
 1007 577 1007 577 1007 487 c 0,29,30
 1007 342 1007 342 876 203 c 1,31,-1
 1102 203 l 1,32,-1
 1102 0 l 1,0,-1
855 419 m 1,33,34
 755 480 755 480 679 480 c 0,35,36
 490 480 490 480 287 237 c 1,37,-1
 374 237 l 1,38,39
 403 251 403 251 517 276 c 0,40,41
 640 304 640 304 701 326 c 0,42,43
 806 364 806 364 855 419 c 1,33,34
EndSplineSet
EndChar

StartChar: afii57433
Encoding: 1593 1593 222
Width: 1277
GlyphClass: 2
Flags: W
AnchorPoint: "Anchor-3" 570 -1710 basechar 0
AnchorPoint: "Anchor-2" 540 1185 basechar 0
LayerCount: 2
Fore
SplineSet
1561 -979 m 1,0,1
 1403 -1095 1403 -1095 1127 -1148 c 0,2,3
 1015 -1170 1015 -1170 942 -1170 c 0,4,5
 647 -1170 647 -1170 433 -1008 c 0,6,7
 199 -830 199 -830 199 -543 c 0,8,9
 199 -202 199 -202 487 181 c 1,10,11
 472 196 472 196 400 237 c 0,12,13
 297 295 297 295 297 399 c 0,14,15
 297 455 297 455 332 550 c 0,16,17
 435 830 435 830 606 830 c 0,18,19
 680 830 680 830 749 785 c 0,20,21
 795 757 795 757 819 724 c 1,22,23
 791 694 791 694 673 671 c 0,24,25
 531 641 531 641 486 620 c 0,26,27
 392 578 392 578 392 491 c 0,28,29
 392 462 392 462 459 416 c 0,30,31
 539 361 539 361 638 361 c 0,32,33
 700 361 700 361 760 389 c 1,34,35
 850 444 850 444 1040 542 c 1,36,-1
 1067 532 l 1,37,-1
 1067 504 l 1,38,39
 1042 414 1042 414 843 273 c 0,40,41
 581 84 581 84 497 -7 c 0,42,43
 318 -203 318 -203 318 -442 c 0,44,45
 318 -813 318 -813 797 -927 c 0,46,47
 969 -969 969 -969 1176 -969 c 0,48,49
 1379 -969 1379 -969 1484 -934 c 1,50,-1
 1561 -934 l 1,51,-1
 1561 -979 l 1,0,1
EndSplineSet
Substitution2: "'medi' Medial Forms in Arabic lookup 3 subtable" afii62803
Substitution2: "'fina' Terminal Forms in Arabic lookup 2 subtable" afii62804
Substitution2: "'init' Initial Forms in Arabic lookup 1 subtable" afii62802
EndChar

StartChar: afii62804
Encoding: 65226 65226 223
Width: 1175
GlyphClass: 2
Flags: W
AnchorPoint: "Anchor-3" 630 -1560 basechar 0
AnchorPoint: "Anchor-2" 675 960 basechar 0
LayerCount: 2
Fore
SplineSet
1574 -900 m 1,0,1
 1504 -977 1504 -977 1240 -1033 c 0,2,3
 1009 -1082 1009 -1082 813 -1082 c 0,4,5
 546 -1082 546 -1082 375 -920 c 0,6,7
 200 -753 200 -753 200 -487 c 0,8,9
 200 -281 200 -281 321 -55 c 0,10,11
 430 148 430 148 588 280 c 1,12,13
 564 323 564 323 561 328 c 1,14,15
 536 329 536 329 448 365 c 1,16,-1
 448 395 l 1,17,18
 483 477 483 477 528 524 c 0,19,20
 616 610 616 610 759 610 c 0,21,22
 850 610 850 610 925 567 c 0,23,24
 1015 515 1015 515 1015 431 c 0,25,26
 1015 368 1015 368 966 328 c 0,27,28
 946 312 946 312 910 280 c 1,29,30
 965 203 965 203 1140 203 c 2,31,-1
 1207 203 l 1,32,-1
 1207 0 l 1,33,-1
 1068 0 l 2,34,35
 1004 0 1004 0 931 55 c 0,36,37
 910 70 910 70 820 157 c 0,38,39
 764 211 764 211 736 211 c 256,40,41
 708 211 708 211 608 130 c 0,42,43
 298 -122 298 -122 298 -428 c 0,44,45
 298 -798 298 -798 755 -885 c 0,46,47
 893 -911 893 -911 1075 -911 c 0,48,49
 1210 -911 1210 -911 1319 -897 c 2,50,-1
 1574 -868 l 1,51,-1
 1574 -900 l 1,0,1
EndSplineSet
EndChar

StartChar: afii62802
Encoding: 65227 65227 224
Width: 921
GlyphClass: 2
Flags: W
AnchorPoint: "Anchor-3" 375 -540 basechar 0
AnchorPoint: "Anchor-2" 465 1200 basechar 0
LayerCount: 2
Fore
SplineSet
872 405 m 1,0,1
 841 346 841 346 650 252 c 2,2,-1
 483 169 l 1,3,4
 157 0 157 0 -4 0 c 2,5,-1
 -36 0 l 1,6,-1
 -36 203 l 1,7,-1
 8 203 l 2,8,9
 46 203 46 203 144 256 c 1,10,11
 81 354 81 354 81 431 c 0,12,13
 81 561 81 561 217.5 702.5 c 128,-1,14
 354 844 354 844 483 844 c 0,15,16
 559 844 559 844 617 805 c 0,17,18
 627 798 627 798 722 715 c 1,19,-1
 722 665 l 1,20,21
 696 665 696 665 666 671 c 0,22,23
 601 685 601 685 581 685 c 0,24,25
 508 685 508 685 384 644 c 0,26,27
 239 598 239 598 239 552 c 0,28,29
 239 486 239 486 333 428 c 0,30,31
 417 377 417 377 487 377 c 256,32,33
 557 377 557 377 840 524 c 1,34,-1
 872 524 l 1,35,-1
 872 405 l 1,0,1
EndSplineSet
EndChar

StartChar: afii62803
Encoding: 65228 65228 225
Width: 930
GlyphClass: 2
Flags: W
AnchorPoint: "Anchor-3" 495 -585 basechar 0
AnchorPoint: "Anchor-2" 510 1035 basechar 0
LayerCount: 2
Fore
SplineSet
969 0 m 1,0,-1
 827 0 l 2,1,2
 769 0 769 0 706 50 c 0,3,4
 696 59 696 59 609 144 c 0,5,6
 557 193 557 193 526 193 c 0,7,8
 500 193 500 193 437 144 c 0,9,10
 346 70 346 70 315 50 c 0,11,12
 237 0 237 0 168 0 c 2,13,-1
 -27 0 l 1,14,-1
 -27 203 l 1,15,-1
 50 203 l 2,16,17
 171 203 171 203 235 218 c 0,18,19
 322 239 322 239 391 298 c 1,20,21
 342 351 342 351 288 378 c 0,22,23
 220 412 220 412 220 419 c 0,24,25
 227 445 227 445 234 473 c 1,26,27
 298 630 298 630 526 630 c 0,28,29
 627 630 627 630 710 595 c 0,30,31
 820 549 820 549 820 462 c 0,32,33
 820 409 820 409 777 364 c 0,34,35
 764 350 764 350 701 288 c 1,36,37
 774 203 774 203 876 203 c 2,38,-1
 969 203 l 1,39,-1
 969 0 l 1,0,-1
EndSplineSet
EndChar

StartChar: afii57443
Encoding: 1603 1603 238
Width: 1463
GlyphClass: 2
Flags: W
AnchorPoint: "Anchor-3" 645 -540 basechar 0
AnchorPoint: "Anchor-2" 585 1275 basechar 0
LayerCount: 2
Fore
SplineSet
1400 1354 m 0,0,1
 1400 1351 1400 1351 1363 1291 c 0,2,3
 1322 1226 1322 1226 1316 1179 c 1,4,-1
 1389 455 l 1,5,6
 1392 361 1392 361 1376.5 286.5 c 128,-1,7
 1361 212 1361 212 1306 147 c 0,8,9
 1231 57 1231 57 1071 29 c 0,10,11
 937 6 937 6 619 6 c 0,12,13
 553 6 553 6 469 15 c 0,14,15
 207 42 207 42 207 111 c 1,16,17
 220 171 220 171 225 195 c 0,18,19
 244 279 244 279 252 294 c 1,20,21
 277 284 277 284 308 277 c 0,22,23
 484 230 484 230 808 230 c 0,24,25
 1015 230 1015 230 1145 265 c 0,26,27
 1177 273 1177 273 1229 312 c 0,28,29
 1287 358 1287 358 1287 389 c 0,30,31
 1287 407 1287 407 1284 424 c 1,32,-1
 1285 424 l 1,33,-1
 1165 1366 l 1,34,35
 1175 1421 1175 1421 1197 1445 c 0,36,37
 1230 1478 1230 1478 1251 1530 c 1,38,-1
 1286 1530 l 1,39,40
 1400 1378 1400 1378 1400 1354 c 0,0,1
556 545 m 1,41,-1
 499 557 l 1,42,43
 584 616 584 616 608 629 c 1,44,-1
 569 700 l 2,45,46
 549 738 549 738 549 763 c 0,47,48
 549 805 549 805 615 861 c 0,49,50
 682 917 682 917 724 917 c 0,51,52
 745 917 745 917 777 888 c 0,53,54
 810 860 810 860 810 839 c 0,55,56
 810 822 810 822 775 751 c 1,57,58
 742 836 742 836 653 804 c 1,59,60
 644 790 644 790 644 777 c 0,61,62
 644 707 644 707 724 685 c 0,63,64
 763 674 763 674 861 674 c 1,65,66
 861 671 861 671 839 609 c 1,67,-1
 711 580 l 1,68,-1
 556 545 l 1,41,-1
EndSplineSet
Substitution2: "'medi' Medial Forms in Arabic lookup 3 subtable" afii52306
Substitution2: "'fina' Terminal Forms in Arabic lookup 2 subtable" afii62816
Substitution2: "'init' Initial Forms in Arabic lookup 1 subtable" afii52305
EndChar

StartChar: afii62816
Encoding: 65242 65242 239
Width: 1810
GlyphClass: 2
Flags: W
AnchorPoint: "Anchor-3" 735 -600 basechar 0
AnchorPoint: "Anchor-2" 885 1365 basechar 0
LayerCount: 2
Fore
SplineSet
1097 182 m 0,0,1
 1194 191 1194 191 1284 209.5 c 128,-1,2
 1374 228 1374 228 1419 321 c 0,3,4
 1453 398 1453 398 1453 573 c 0,5,6
 1453 1049 1453 1049 1408 1267 c 0,7,8
 1402 1291 1402 1291 1391 1337 c 1,9,10
 1421 1414 1421 1414 1521 1509 c 1,11,-1
 1530 1441 l 1,12,13
 1554 1225 1554 1225 1554 1102 c 2,14,-1
 1554 685 l 1,15,-1
 1551 524 l 2,16,17
 1551 337 1551 337 1577 287 c 0,18,19
 1619 207 1619 207 1782 203 c 2,20,-1
 1884 202 l 1,21,-1
 1884 0 l 1,22,-1
 1726 0 l 2,23,24
 1633 0 1633 0 1573 113 c 2,25,-1
 1509 237 l 1,26,27
 1488 213 1488 213 1434.5 120.5 c 128,-1,28
 1381 28 1381 28 1286 0 c 1,29,30
 1116 -30 1116 -30 897 -35 c 128,-1,31
 678 -40 678 -40 554 -3 c 1,32,33
 215 82 215 82 215 373 c 0,34,35
 215 439 215 439 243 526 c 0,36,37
 278 634 278 634 334 680 c 1,38,39
 338 651 338 651 338 637 c 0,40,41
 338 614 338 614 334 588 c 0,42,43
 323 523 323 523 323 502 c 0,44,45
 323 351 323 351 454 261 c 0,46,47
 589 168 589 168 804 168 c 0,48,49
 958 168 958 168 1097 182 c 0,0,1
728 594 m 1,50,-1
 671 606 l 1,51,52
 756 665 756 665 780 678 c 1,53,-1
 741 749 l 2,54,55
 721 787 721 787 721 812 c 0,56,57
 721 854 721 854 787 910 c 0,58,59
 854 966 854 966 896 966 c 0,60,61
 917 966 917 966 949 937 c 0,62,63
 982 909 982 909 982 888 c 0,64,65
 982 871 982 871 947 800 c 1,66,67
 914 885 914 885 825 853 c 1,68,69
 816 839 816 839 816 826 c 0,70,71
 816 756 816 756 896 734 c 0,72,73
 935 723 935 723 1033 723 c 1,74,75
 1033 720 1033 720 1011 658 c 1,76,-1
 883 629 l 1,77,-1
 728 594 l 1,50,-1
EndSplineSet
EndChar

StartChar: afii57444
Encoding: 1604 1604 242
Width: 1200
GlyphClass: 2
Flags: W
AnchorPoint: "Anchor-3" 585 -1020 basechar 0
AnchorPoint: "Anchor-2" 900 1410 basechar 0
LayerCount: 2
Fore
SplineSet
1151 1062 m 1,0,1
 1141 1049 1141 1049 1113 1016 c 0,2,3
 1075 969 1075 969 1075 874 c 0,4,5
 1075 822 1075 822 1092 698 c 2,6,-1
 1126 446 l 1,7,8
 1142 279 1142 279 1142 139 c 0,9,10
 1142 -153 1142 -153 998 -313 c 0,11,12
 848 -478 848 -478 560 -478 c 0,13,14
 399 -478 399 -478 280 -380 c 0,15,16
 155 -275 155 -275 155 -117 c 0,17,18
 155 -96 155 -96 186 10 c 0,19,20
 280 327 280 327 349 327 c 0,21,22
 356 327 356 327 379 314 c 1,23,24
 379 300 379 300 385 295 c 128,-1,25
 391 290 391 290 391 290 c 1,26,27
 262 127 262 127 262 -9 c 0,28,29
 262 -128 262 -128 364 -198 c 0,30,31
 455 -260 455 -260 578 -260 c 0,32,33
 932 -260 932 -260 1022 -62 c 0,34,35
 1049 -2 1049 -2 1049 65 c 0,36,37
 1049 99 1049 99 1044 106 c 1,38,39
 1044 306 1044 306 1011 556 c 0,40,41
 986 751 986 751 949 929 c 0,42,43
 920 1073 920 1073 914 1081 c 1,44,45
 914 1107 914 1107 959.5 1172 c 128,-1,46
 1005 1237 1005 1237 1028 1237 c 1,47,48
 1067 1209 1067 1209 1089 1188 c 0,49,50
 1151 1123 1151 1123 1151 1062 c 1,0,1
EndSplineSet
Substitution2: "'medi' Medial Forms in Arabic lookup 3 subtable" afii62818
Substitution2: "'fina' Terminal Forms in Arabic lookup 2 subtable" afii62819
Substitution2: "'init' Initial Forms in Arabic lookup 1 subtable" afii62817
EndChar

StartChar: afii62817
Encoding: 65247 65247 243
Width: 519
GlyphClass: 2
Flags: W
AnchorPoint: "Anchor-3" 165 -585 basechar 0
AnchorPoint: "Anchor-2" 270 1710 basechar 0
LayerCount: 2
Fore
SplineSet
470 1354 m 0,0,1
 470 1351 470 1351 433 1291 c 0,2,3
 392 1226 392 1226 386 1179 c 1,4,-1
 459 455 l 1,5,6
 459 280 459 280 437 192 c 0,7,8
 395 38 395 38 273 10 c 0,9,10
 230 0 230 0 66 0 c 2,11,-1
 -21 0 l 1,12,-1
 -21 203 l 1,13,-1
 88 203 l 2,14,15
 216 203 216 203 272 228 c 0,16,17
 361 267 361 267 361 382 c 1,18,-1
 235 1366 l 1,19,20
 245 1421 245 1421 267 1445 c 0,21,22
 300 1478 300 1478 321 1530 c 1,23,-1
 356 1530 l 1,24,25
 470 1378 470 1378 470 1354 c 0,0,1
EndSplineSet
EndChar

StartChar: afii62818
Encoding: 65248 65248 244
Width: 750
GlyphClass: 2
Flags: W
AnchorPoint: "Anchor-3" 330 -525 basechar 0
AnchorPoint: "Anchor-2" 360 1590 basechar 0
LayerCount: 2
Fore
SplineSet
791 0 m 1,0,-1
 633 0 l 2,1,2
 540 0 540 0 480 113 c 2,3,-1
 416 237 l 1,4,5
 395 213 395 213 347 126 c 0,6,7
 279 0 279 0 193 0 c 2,8,-1
 -22 0 l 1,9,-1
 -22 203 l 1,10,-1
 125 203 l 2,11,12
 274 203 274 203 326 321 c 0,13,14
 360 398 360 398 360 573 c 0,15,16
 360 1049 360 1049 315 1267 c 0,17,18
 309 1291 309 1291 298 1337 c 1,19,20
 328 1414 328 1414 428 1509 c 1,21,-1
 437 1441 l 1,22,23
 461 1225 461 1225 461 1102 c 2,24,-1
 461 876 l 2,25,26
 461 769 461 769 461 685 c 2,27,-1
 458 524 l 2,28,29
 458 337 458 337 484 287 c 0,30,31
 526 207 526 207 689 203 c 2,32,-1
 791 202 l 1,33,-1
 791 0 l 1,0,-1
EndSplineSet
EndChar

StartChar: afii57445
Encoding: 1605 1605 245
Width: 864
GlyphClass: 2
Flags: W
AnchorPoint: "Anchor-3" 465 -1575 basechar 0
AnchorPoint: "Anchor-2" 465 765 basechar 0
LayerCount: 2
Fore
SplineSet
815 143 m 0,0,1
 815 -7 815 -7 661 -42 c 1,2,3
 564 -49 564 -49 372 -70 c 1,4,5
 217 -92 217 -92 217 -237 c 1,6,7
 223 -260 223 -260 255 -414 c 0,8,9
 301 -634 301 -634 328 -785 c 0,10,11
 365 -1012 365 -1012 365 -1107 c 0,12,13
 365 -1196 365 -1196 336 -1299 c 1,14,15
 302 -1274 302 -1274 277 -1117 c 2,16,-1
 227 -816 l 2,17,18
 207 -697 207 -697 140 -456 c 0,19,20
 119 -382 119 -382 119 -316 c 0,21,22
 119 -185 119 -185 181 6 c 0,23,24
 238 183 238 183 314 308 c 0,25,26
 403 459 403 459 480 459 c 0,27,28
 619 459 619 459 760 262 c 0,29,30
 815 185 815 185 815 143 c 0,0,1
536 171 m 1,31,32
 486 217 486 217 479 221 c 0,33,34
 458 230 458 230 419 245 c 1,35,36
 395 213 395 213 356 143 c 1,37,-1
 356 116 l 1,38,39
 447 143 447 143 536 171 c 1,31,32
EndSplineSet
Substitution2: "'medi' Medial Forms in Arabic lookup 3 subtable" afii62821
Substitution2: "'fina' Terminal Forms in Arabic lookup 2 subtable" afii62822
Substitution2: "'init' Initial Forms in Arabic lookup 1 subtable" afii62820
EndChar

StartChar: afii62822
Encoding: 65250 65250 246
Width: 1102
GlyphClass: 2
Flags: W
AnchorPoint: "Anchor-3" 765 -960 basechar 0
AnchorPoint: "Anchor-2" 585 675 basechar 0
LayerCount: 2
Fore
SplineSet
1141 0 m 1,0,-1
 1056 0 l 2,1,2
 1009 0 1009 0 955 15 c 0,3,4
 829 52 829 52 815 52 c 0,5,6
 792 52 792 52 784 45 c 1,7,8
 784 -202 784 -202 675 -202 c 0,9,10
 613 -202 613 -202 573 -122 c 0,11,12
 568 -115 568 -115 517 27 c 0,13,14
 487 108 487 108 454 108 c 0,15,16
 398 108 398 108 330 59 c 0,17,18
 252 1 252 1 252 -69 c 0,19,20
 252 -120 252 -120 279 -288 c 0,21,22
 319 -536 319 -536 330 -613 c 0,23,24
 358 -818 358 -818 358 -946 c 2,25,-1
 358 -970 l 2,26,27
 358 -1026 358 -1026 339 -1070 c 1,28,29
 297 -1039 297 -1039 249 -799 c 0,30,31
 213 -613 213 -613 181 -365 c 0,32,33
 154 -160 154 -160 154 -123 c 0,34,35
 154 151 154 151 358 274 c 0,36,37
 405 300 405 300 497 353 c 1,38,39
 552 419 552 419 588 419 c 0,40,41
 606 419 606 419 685 364 c 0,42,43
 791 288 791 288 847 260 c 0,44,45
 955 203 955 203 1042 203 c 2,46,-1
 1141 203 l 1,47,-1
 1141 0 l 1,0,-1
673 36 m 1,48,-1
 686 85 l 1,49,50
 672 129 672 129 658 154 c 0,51,52
 636 200 636 200 613 207 c 0,53,54
 591 213 591 213 568 195.5 c 128,-1,55
 545 178 545 178 538 154 c 0,56,57
 532 133 532 133 612 53 c 1,58,-1
 673 36 l 1,48,-1
EndSplineSet
EndChar

StartChar: afii62820
Encoding: 65251 65251 247
Width: 776
GlyphClass: 2
Flags: W
AnchorPoint: "Anchor-3" 270 -570 basechar 0
AnchorPoint: "Anchor-2" 390 1050 basechar 0
LayerCount: 2
Fore
SplineSet
727 304 m 0,0,1
 727 224 727 224 683 164 c 0,2,3
 636 97 636 97 559 97 c 0,4,5
 508 97 508 97 452 127 c 0,6,7
 332 193 332 193 297 193 c 0,8,9
 270 193 270 193 230 144 c 2,10,-1
 154 50 l 1,11,12
 104 0 104 0 52 0 c 2,13,-1
 -25 0 l 1,14,-1
 -25 203 l 1,15,-1
 35 203 l 2,16,17
 153 203 153 203 230 322 c 1,18,19
 272 398 272 398 360 545 c 0,20,21
 434 665 434 665 532 665 c 0,22,23
 676 665 676 665 714 463 c 0,24,25
 727 393 727 393 727 304 c 0,0,1
575 332 m 1,26,-1
 575 382 l 1,27,28
 508 480 508 480 472 480 c 0,29,30
 449 480 449 480 431 457 c 128,-1,31
 413 434 413 434 413 412 c 0,32,33
 413 388 413 388 511 332 c 1,34,-1
 575 332 l 1,26,-1
EndSplineSet
EndChar

StartChar: afii57446
Encoding: 1606 1606 248
Width: 1141
GlyphClass: 2
Flags: W
AnchorPoint: "Anchor-3" 525 -1230 basechar 0
AnchorPoint: "Anchor-2" 465 1035 basechar 0
LayerCount: 2
Fore
SplineSet
652 671 m 0,0,1
 652 640 652 640 568 517 c 1,2,3
 533 540 533 540 491 573 c 0,4,5
 417 627 417 627 417 645 c 0,6,7
 417 654 417 654 430 673 c 0,8,9
 469 735 469 735 493 806 c 1,10,-1
 525 806 l 1,11,12
 539 794 539 794 612 734 c 0,13,14
 652 701 652 701 652 671 c 0,0,1
1092 -108 m 0,15,16
 1092 -210 1092 -210 1053 -319 c 0,17,18
 931 -652 931 -652 560 -652 c 0,19,20
 379 -652 379 -652 267 -556 c 0,21,22
 148 -454 148 -454 148 -276 c 0,23,24
 148 -99 148 -99 298 119 c 1,25,26
 311 116 311 116 323 113 c 1,27,28
 333 105 333 105 333 83 c 0,29,30
 333 64 333 64 289.5 -48 c 128,-1,31
 246 -160 246 -160 246 -181 c 0,32,33
 246 -267 246 -267 318 -335 c 0,34,35
 405 -417 405 -417 560 -417 c 0,36,37
 700 -417 700 -417 834 -360 c 0,38,39
 1008 -288 1008 -288 1008 -169 c 0,40,41
 1008 -101 1008 -101 963 13 c 0,42,43
 938 76 938 76 879 197 c 0,44,45
 834 290 834 290 834 301 c 256,46,47
 834 312 834 312 862 385 c 128,-1,48
 890 458 890 458 900 476 c 1,49,50
 928 452 928 452 958 407 c 0,51,52
 1092 206 1092 206 1092 -108 c 0,15,16
EndSplineSet
Substitution2: "'medi' Medial Forms in Arabic lookup 3 subtable" afii62824
Substitution2: "'fina' Terminal Forms in Arabic lookup 2 subtable" afii62825
Substitution2: "'init' Initial Forms in Arabic lookup 1 subtable" afii62823
EndChar

StartChar: afii62825
Encoding: 65254 65254 249
Width: 1407
GlyphClass: 2
Flags: W
AnchorPoint: "Anchor-3" 660 -1125 basechar 0
AnchorPoint: "Anchor-2" 675 930 basechar 0
LayerCount: 2
Fore
SplineSet
808 654 m 1,0,-1
 722 500 l 1,1,2
 685 512 685 512 627 546 c 0,3,4
 563 585 563 585 563 602 c 0,5,6
 563 613 563 613 578 641 c 0,7,8
 636 741 636 741 647 767 c 1,9,10
 664 763 664 763 732 718 c 0,11,12
 808 671 808 671 808 654 c 1,0,-1
1439 7 m 1,13,-1
 1371 7 l 2,14,15
 1274 7 1274 7 1267 -69 c 0,16,17
 1249 -237 1249 -237 1141 -419 c 0,18,19
 1053 -570 1053 -570 883 -637 c 0,20,21
 755 -687 755 -687 594 -687 c 0,22,23
 409 -687 409 -687 301 -594 c 0,24,25
 186 -494 186 -494 186 -314 c 0,26,27
 186 -231 186 -231 210 -161 c 0,28,29
 242 -62 242 -62 337 84 c 1,30,31
 340 81 340 81 359.5 69 c 128,-1,32
 379 57 379 57 379 48 c 1,33,34
 283 -144 283 -144 283 -228 c 0,35,36
 283 -473 283 -473 664 -473 c 0,37,38
 900 -473 900 -473 1012 -400 c 0,39,40
 1149 -312 1149 -312 1149 -92 c 0,41,42
 1149 87 1149 87 1078 136 c 0,43,44
 1044 160 1044 160 1044 202 c 0,45,46
 1044 220 1044 220 1079 276 c 0,47,48
 1119 340 1119 340 1145 340 c 0,49,50
 1175 340 1175 340 1260 252 c 0,51,52
 1301 211 1301 211 1341 211 c 2,53,-1
 1439 211 l 1,54,-1
 1439 7 l 1,13,-1
EndSplineSet
EndChar

StartChar: afii62828
Encoding: 65258 65258 253
Width: 785
GlyphClass: 2
Flags: W
AnchorPoint: "Anchor-3" 270 -420 basechar 0
AnchorPoint: "Anchor-2" 375 1020 basechar 0
LayerCount: 2
Fore
SplineSet
830 0 m 1,0,-1
 687 0 l 2,1,2
 613 0 613 0 585 104 c 1,3,4
 534 259 534 259 526 280 c 1,5,6
 427 171 427 171 372 171 c 0,7,8
 297 171 297 171 221 199 c 0,9,10
 120 235 120 235 120 298 c 0,11,12
 120 444 120 444 382 630 c 0,13,14
 418 652 418 652 481 696 c 1,15,16
 478 687 478 687 478 745 c 1,17,18
 473 809 473 809 550 890 c 1,19,20
 585 832 585 832 595 630 c 0,21,22
 606 402 606 402 623 343 c 0,23,24
 664 203 664 203 788 203 c 2,25,-1
 830 203 l 1,26,-1
 830 0 l 1,0,-1
505 410 m 0,27,28
 505 422 505 422 498 485 c 128,-1,29
 491 548 491 548 491 561 c 1,30,31
 472 561 472 561 405.5 513 c 128,-1,32
 339 465 339 465 306 416 c 1,33,-1
 434 395 l 2,34,35
 505 386 505 386 505 410 c 0,27,28
EndSplineSet
EndChar

StartChar: afii57448
Encoding: 1608 1608 254
Width: 907
GlyphClass: 2
Flags: W
AnchorPoint: "Anchor-3" 330 -1110 basechar 0
AnchorPoint: "Anchor-2" 615 885 basechar 0
LayerCount: 2
Fore
SplineSet
857 224 m 0,0,1
 857 56 857 56 782 -120.5 c 128,-1,2
 707 -297 707 -297 584 -409 c 0,3,4
 444 -538 444 -538 283 -538 c 0,5,6
 235 -538 235 -538 150 -500 c 0,7,8
 39 -451 39 -451 -32 -368 c 1,9,-1
 -32 -333 l 1,10,11
 7 -339 7 -339 132 -372 c 0,12,13
 182 -385 182 -385 214 -385 c 0,14,15
 489 -385 489 -385 750 8 c 1,16,-1
 750 85 l 1,17,18
 668 41 668 41 631 41 c 0,19,20
 470 41 470 41 470 228 c 0,21,22
 470 329 470 329 536 452 c 0,23,24
 608 587 608 587 679 587 c 0,25,26
 780 587 780 587 826 447 c 0,27,28
 857 350 857 350 857 224 c 0,0,1
741 265 m 1,29,30
 722 329 722 329 711 343 c 0,31,32
 693 368 693 368 631 384 c 1,33,34
 612 330 612 330 612 325 c 0,35,36
 612 255 612 255 679 255 c 0,37,38
 701 255 701 255 741 265 c 1,29,30
EndSplineSet
Substitution2: "'fina' Terminal Forms in Arabic lookup 2 subtable" afii62829
PairPos2: "'kern' Horizontal Kerning in Arabic lookup 0 subtable" afii62831 dx=0 dy=0 dh=0 dv=0 dx=0 dy=0 dh=100 dv=0
PairPos2: "'kern' Horizontal Kerning in Arabic lookup 0 subtable" afii57444 dx=0 dy=0 dh=0 dv=0 dx=0 dy=0 dh=80 dv=0
PairPos2: "'kern' Horizontal Kerning in Arabic lookup 0 subtable" afii57410 dx=0 dy=0 dh=0 dv=0 dx=0 dy=0 dh=-280 dv=0
PairPos2: "'kern' Horizontal Kerning in Arabic lookup 0 subtable" afii62761 dx=0 dy=0 dh=0 dv=0 dx=0 dy=0 dh=100 dv=0
PairPos2: "'kern' Horizontal Kerning in Arabic lookup 0 subtable" afii57413 dx=0 dy=0 dh=0 dv=0 dx=0 dy=0 dh=130 dv=0
PairPos2: "'kern' Horizontal Kerning in Arabic lookup 0 subtable" afii62965 dx=0 dy=0 dh=0 dv=0 dx=0 dy=0 dh=-280 dv=0
PairPos2: "'kern' Horizontal Kerning in Arabic lookup 0 subtable" afii57509 dx=0 dy=0 dh=0 dv=0 dx=0 dy=0 dh=-280 dv=0
PairPos2: "'kern' Horizontal Kerning in Arabic lookup 0 subtable" afii52305 dx=0 dy=0 dh=0 dv=0 dx=0 dy=0 dh=-280 dv=0
PairPos2: "'kern' Horizontal Kerning in Arabic lookup 0 subtable" afii57567 dx=0 dy=0 dh=0 dv=0 dx=0 dy=0 dh=-280 dv=0
PairPos2: "'kern' Horizontal Kerning in Arabic lookup 0 subtable" afii62956 dx=0 dy=0 dh=0 dv=0 dx=0 dy=0 dh=100 dv=0
EndChar

StartChar: afii62829
Encoding: 65262 65262 255
Width: 1001
GlyphClass: 2
Flags: W
AnchorPoint: "Anchor-3" 285 -1155 basechar 0
AnchorPoint: "Anchor-2" 675 900 basechar 0
LayerCount: 2
Fore
SplineSet
1037 0 m 1,0,-1
 862 0 l 1,1,2
 844 -53 844 -53 808 -160 c 1,3,4
 739 -337 739 -337 627 -459 c 0,5,6
 479 -620 479 -620 293 -620 c 0,7,8
 148 -620 148 -620 -13 -461 c 1,9,-1
 -13 -427 l 1,10,11
 -8 -427 -8 -427 -2 -422 c 128,-1,12
 4 -417 4 -417 8 -417 c 0,13,14
 88 -461 88 -461 227 -461 c 0,15,16
 416 -461 416 -461 553 -336 c 0,17,18
 651 -245 651 -245 760 -45 c 1,19,-1
 760 -8 l 1,20,21
 673 1 673 1 588 11 c 1,22,23
 489 36 489 36 489 155 c 0,24,25
 489 242 489 242 560 375 c 0,26,27
 638 524 638 524 715 524 c 0,28,29
 798 524 798 524 865 286 c 0,30,31
 872 258 872 258 886 203 c 1,32,-1
 1037 203 l 1,33,-1
 1037 0 l 1,0,-1
756 205 m 1,34,35
 734 263 734 263 723.5 281 c 128,-1,36
 713 299 713 299 693 312 c 1,37,38
 670 318 670 318 653.5 309.5 c 128,-1,39
 637 301 637 301 626.5 285 c 128,-1,40
 616 269 616 269 611.5 249.5 c 128,-1,41
 607 230 607 230 608 216 c 0,42,43
 610 209 610 209 622.5 204 c 128,-1,44
 635 199 635 199 653.5 197 c 128,-1,45
 672 195 672 195 696 196 c 128,-1,46
 720 197 720 197 745 203 c 2,47,-1
 756 205 l 1,34,35
EndSplineSet
PairPos2: "'kern' Horizontal Kerning in Arabic lookup 0 subtable" afii62831 dx=0 dy=0 dh=0 dv=0 dx=0 dy=0 dh=100 dv=0
PairPos2: "'kern' Horizontal Kerning in Arabic lookup 0 subtable" afii57448 dx=0 dy=0 dh=0 dv=0 dx=0 dy=0 dh=-80 dv=0
PairPos2: "'kern' Horizontal Kerning in Arabic lookup 0 subtable" afii57410 dx=0 dy=0 dh=0 dv=0 dx=0 dy=0 dh=-280 dv=0
PairPos2: "'kern' Horizontal Kerning in Arabic lookup 0 subtable" afii57434 dx=0 dy=0 dh=0 dv=0 dx=0 dy=0 dh=-100 dv=0
PairPos2: "'kern' Horizontal Kerning in Arabic lookup 0 subtable" afii57433 dx=0 dy=0 dh=0 dv=0 dx=0 dy=0 dh=-100 dv=0
PairPos2: "'kern' Horizontal Kerning in Arabic lookup 0 subtable" afii57426 dx=0 dy=0 dh=0 dv=0 dx=0 dy=0 dh=-80 dv=0
PairPos2: "'kern' Horizontal Kerning in Arabic lookup 0 subtable" afii57425 dx=0 dy=0 dh=0 dv=0 dx=0 dy=0 dh=-80 dv=0
PairPos2: "'kern' Horizontal Kerning in Arabic lookup 0 subtable" afii62761 dx=0 dy=0 dh=0 dv=0 dx=0 dy=0 dh=100 dv=0
PairPos2: "'kern' Horizontal Kerning in Arabic lookup 0 subtable" afii57413 dx=0 dy=0 dh=0 dv=0 dx=0 dy=0 dh=120 dv=0
PairPos2: "'kern' Horizontal Kerning in Arabic lookup 0 subtable" afii62965 dx=0 dy=0 dh=0 dv=0 dx=0 dy=0 dh=-280 dv=0
PairPos2: "'kern' Horizontal Kerning in Arabic lookup 0 subtable" afii57509 dx=0 dy=0 dh=0 dv=0 dx=0 dy=0 dh=-280 dv=0
PairPos2: "'kern' Horizontal Kerning in Arabic lookup 0 subtable" afii52305 dx=0 dy=0 dh=0 dv=0 dx=0 dy=0 dh=-280 dv=0
PairPos2: "'kern' Horizontal Kerning in Arabic lookup 0 subtable" afii57567 dx=0 dy=0 dh=0 dv=0 dx=0 dy=0 dh=-280 dv=0
PairPos2: "'kern' Horizontal Kerning in Arabic lookup 0 subtable" afii62956 dx=0 dy=0 dh=0 dv=0 dx=0 dy=0 dh=100 dv=0
EndChar

StartChar: afii62840
Encoding: 65275 65275 268
Width: 1369
GlyphClass: 3
Flags: W
AnchorPoint: "Anchor-1" 990 -435 baselig 0
AnchorPoint: "Anchor-0" 1170 1680 baselig 0
AnchorPoint: "Anchor-1" 585 -435 baselig 1
AnchorPoint: "Anchor-0" 330 1620 baselig 1
LayerCount: 2
Fore
SplineSet
1320 1368 m 1,0,-1
 1260 1280 l 2,1,2
 1232 1236 1232 1236 1232 1200 c 2,3,-1
 1232 934 l 2,4,5
 1232 794 1232 794 1138 475 c 2,6,-1
 1105 361 l 1,7,8
 1149 246 1149 246 1149 139 c 0,9,10
 1149 130 1149 130 1149 113 c 0,11,12
 1151 98 1151 98 1151 90 c 0,13,14
 1151 14 1151 14 1102 -20 c 0,15,16
 1028 -70 1028 -70 820 -70 c 2,17,-1
 756 -70 l 2,18,19
 669 -70 669 -70 652 -60 c 0,20,21
 624 -45 624 -45 624 31 c 0,22,23
 624 87 624 87 713 139 c 0,24,25
 767 168 767 168 876 231 c 0,26,27
 965 286 965 286 965 353 c 0,28,29
 965 370 965 370 900 472 c 0,30,31
 710 771 710 771 462 1040 c 1,32,33
 441 1025 441 1025 419 995 c 1,34,35
 377 1015 377 1015 283 1110 c 0,36,37
 174 1221 174 1221 174 1275 c 0,38,39
 174 1330 174 1330 209 1417 c 0,40,41
 234 1480 234 1480 265 1480 c 0,42,43
 371 1480 371 1480 668 1054 c 0,44,45
 710 994 710 994 1032 518 c 1,46,47
 1057 546 1057 546 1088 664 c 0,48,49
 1116 771 1116 771 1116 806 c 2,50,-1
 1116 1266 l 1,51,52
 1093 1350 1093 1350 1093 1389 c 0,53,54
 1093 1442 1093 1442 1140 1497 c 0,55,56
 1179 1543 1179 1543 1196 1543 c 1,57,58
 1238 1513 1238 1513 1257 1495 c 0,59,60
 1320 1434 1320 1434 1320 1368 c 1,0,-1
1060 146 m 1,61,62
 1047 178 1047 178 1014 209 c 1,63,-1
 948 132 l 1,64,65
 986 139 986 139 1060 146 c 1,61,62
EndSplineSet
Ligature2: "'rlig' Required Ligatures in Arabic lookup 6 subtable" afii62817 afii62760
Substitution2: "'fina' Terminal Forms in Arabic lookup 2 subtable" afii62841
PairPos2: "'kern' Horizontal Kerning in Arabic lookup 0 subtable" afii62831 dx=0 dy=0 dh=0 dv=0 dx=0 dy=0 dh=-100 dv=0
PairPos2: "'kern' Horizontal Kerning in Arabic lookup 0 subtable" afii57450 dx=0 dy=0 dh=0 dv=0 dx=0 dy=0 dh=-100 dv=0
PairPos2: "'kern' Horizontal Kerning in Arabic lookup 0 subtable" afii57449 dx=0 dy=0 dh=0 dv=0 dx=0 dy=0 dh=-100 dv=0
PairPos2: "'kern' Horizontal Kerning in Arabic lookup 0 subtable" afii57448 dx=0 dy=0 dh=0 dv=0 dx=0 dy=0 dh=-200 dv=0
PairPos2: "'kern' Horizontal Kerning in Arabic lookup 0 subtable" afii57446 dx=0 dy=0 dh=0 dv=0 dx=0 dy=0 dh=-100 dv=0
PairPos2: "'kern' Horizontal Kerning in Arabic lookup 0 subtable" afii57445 dx=0 dy=0 dh=0 dv=0 dx=0 dy=0 dh=-200 dv=0
PairPos2: "'kern' Horizontal Kerning in Arabic lookup 0 subtable" afii62811 dx=0 dy=0 dh=0 dv=0 dx=0 dy=0 dh=-100 dv=0
PairPos2: "'kern' Horizontal Kerning in Arabic lookup 0 subtable" afii57442 dx=0 dy=0 dh=0 dv=0 dx=0 dy=0 dh=-100 dv=0
PairPos2: "'kern' Horizontal Kerning in Arabic lookup 0 subtable" afii62808 dx=0 dy=0 dh=0 dv=0 dx=0 dy=0 dh=-100 dv=0
PairPos2: "'kern' Horizontal Kerning in Arabic lookup 0 subtable" afii57441 dx=0 dy=0 dh=0 dv=0 dx=0 dy=0 dh=-100 dv=0
PairPos2: "'kern' Horizontal Kerning in Arabic lookup 0 subtable" afii62805 dx=0 dy=0 dh=0 dv=0 dx=0 dy=0 dh=-100 dv=0
PairPos2: "'kern' Horizontal Kerning in Arabic lookup 0 subtable" afii57434 dx=0 dy=0 dh=0 dv=0 dx=0 dy=0 dh=-200 dv=0
PairPos2: "'kern' Horizontal Kerning in Arabic lookup 0 subtable" afii62802 dx=0 dy=0 dh=0 dv=0 dx=0 dy=0 dh=-100 dv=0
PairPos2: "'kern' Horizontal Kerning in Arabic lookup 0 subtable" afii57433 dx=0 dy=0 dh=0 dv=0 dx=0 dy=0 dh=-200 dv=0
PairPos2: "'kern' Horizontal Kerning in Arabic lookup 0 subtable" afii62799 dx=0 dy=0 dh=0 dv=0 dx=0 dy=0 dh=-100 dv=0
PairPos2: "'kern' Horizontal Kerning in Arabic lookup 0 subtable" afii57432 dx=0 dy=0 dh=0 dv=0 dx=0 dy=0 dh=-100 dv=0
PairPos2: "'kern' Horizontal Kerning in Arabic lookup 0 subtable" afii62796 dx=0 dy=0 dh=0 dv=0 dx=0 dy=0 dh=-100 dv=0
PairPos2: "'kern' Horizontal Kerning in Arabic lookup 0 subtable" afii57431 dx=0 dy=0 dh=0 dv=0 dx=0 dy=0 dh=-100 dv=0
PairPos2: "'kern' Horizontal Kerning in Arabic lookup 0 subtable" afii62793 dx=0 dy=0 dh=0 dv=0 dx=0 dy=0 dh=-100 dv=0
PairPos2: "'kern' Horizontal Kerning in Arabic lookup 0 subtable" afii57430 dx=0 dy=0 dh=0 dv=0 dx=0 dy=0 dh=-100 dv=0
PairPos2: "'kern' Horizontal Kerning in Arabic lookup 0 subtable" afii62790 dx=0 dy=0 dh=0 dv=0 dx=0 dy=0 dh=-100 dv=0
PairPos2: "'kern' Horizontal Kerning in Arabic lookup 0 subtable" afii57429 dx=0 dy=0 dh=0 dv=0 dx=0 dy=0 dh=-100 dv=0
PairPos2: "'kern' Horizontal Kerning in Arabic lookup 0 subtable" afii62787 dx=0 dy=0 dh=0 dv=0 dx=0 dy=0 dh=-100 dv=0
PairPos2: "'kern' Horizontal Kerning in Arabic lookup 0 subtable" afii57428 dx=0 dy=0 dh=0 dv=0 dx=0 dy=0 dh=-100 dv=0
PairPos2: "'kern' Horizontal Kerning in Arabic lookup 0 subtable" afii62784 dx=0 dy=0 dh=0 dv=0 dx=0 dy=0 dh=-100 dv=0
PairPos2: "'kern' Horizontal Kerning in Arabic lookup 0 subtable" afii57427 dx=0 dy=0 dh=0 dv=0 dx=0 dy=0 dh=-100 dv=0
PairPos2: "'kern' Horizontal Kerning in Arabic lookup 0 subtable" afii57426 dx=0 dy=0 dh=0 dv=0 dx=0 dy=0 dh=-200 dv=0
PairPos2: "'kern' Horizontal Kerning in Arabic lookup 0 subtable" afii57425 dx=0 dy=0 dh=0 dv=0 dx=0 dy=0 dh=-200 dv=0
PairPos2: "'kern' Horizontal Kerning in Arabic lookup 0 subtable" afii57424 dx=0 dy=0 dh=0 dv=0 dx=0 dy=0 dh=-100 dv=0
PairPos2: "'kern' Horizontal Kerning in Arabic lookup 0 subtable" afii57423 dx=0 dy=0 dh=0 dv=0 dx=0 dy=0 dh=-100 dv=0
PairPos2: "'kern' Horizontal Kerning in Arabic lookup 0 subtable" afii62777 dx=0 dy=0 dh=0 dv=0 dx=0 dy=0 dh=-100 dv=0
PairPos2: "'kern' Horizontal Kerning in Arabic lookup 0 subtable" afii57422 dx=0 dy=0 dh=0 dv=0 dx=0 dy=0 dh=-200 dv=0
PairPos2: "'kern' Horizontal Kerning in Arabic lookup 0 subtable" afii62774 dx=0 dy=0 dh=0 dv=0 dx=0 dy=0 dh=-100 dv=0
PairPos2: "'kern' Horizontal Kerning in Arabic lookup 0 subtable" afii57421 dx=0 dy=0 dh=0 dv=0 dx=0 dy=0 dh=-200 dv=0
PairPos2: "'kern' Horizontal Kerning in Arabic lookup 0 subtable" afii62771 dx=0 dy=0 dh=0 dv=0 dx=0 dy=0 dh=-100 dv=0
PairPos2: "'kern' Horizontal Kerning in Arabic lookup 0 subtable" afii57420 dx=0 dy=0 dh=0 dv=0 dx=0 dy=0 dh=-200 dv=0
PairPos2: "'kern' Horizontal Kerning in Arabic lookup 0 subtable" afii57419 dx=0 dy=0 dh=0 dv=0 dx=0 dy=0 dh=-100 dv=0
PairPos2: "'kern' Horizontal Kerning in Arabic lookup 0 subtable" afii57418 dx=0 dy=0 dh=0 dv=0 dx=0 dy=0 dh=-100 dv=0
PairPos2: "'kern' Horizontal Kerning in Arabic lookup 0 subtable" afii62761 dx=0 dy=0 dh=0 dv=0 dx=0 dy=0 dh=-100 dv=0
PairPos2: "'kern' Horizontal Kerning in Arabic lookup 0 subtable" afii57416 dx=0 dy=0 dh=0 dv=0 dx=0 dy=0 dh=-100 dv=0
PairPos2: "'kern' Horizontal Kerning in Arabic lookup 0 subtable" afii57414 dx=0 dy=0 dh=0 dv=0 dx=0 dy=0 dh=-100 dv=0
PairPos2: "'kern' Horizontal Kerning in Arabic lookup 0 subtable" afii52399 dx=0 dy=0 dh=0 dv=0 dx=0 dy=0 dh=-200 dv=0
PairPos2: "'kern' Horizontal Kerning in Arabic lookup 0 subtable" afii57555 dx=0 dy=0 dh=0 dv=0 dx=0 dy=0 dh=-100 dv=0
PairPos2: "'kern' Horizontal Kerning in Arabic lookup 0 subtable" afii62959 dx=0 dy=0 dh=0 dv=0 dx=0 dy=0 dh=-100 dv=0
PairPos2: "'kern' Horizontal Kerning in Arabic lookup 0 subtable" afii57507 dx=0 dy=0 dh=0 dv=0 dx=0 dy=0 dh=-200 dv=0
PairPos2: "'kern' Horizontal Kerning in Arabic lookup 0 subtable" afii57505 dx=0 dy=0 dh=0 dv=0 dx=0 dy=0 dh=-100 dv=0
PairPos2: "'kern' Horizontal Kerning in Arabic lookup 0 subtable" afii62956 dx=0 dy=0 dh=0 dv=0 dx=0 dy=0 dh=-100 dv=0
PairPos2: "'kern' Horizontal Kerning in Arabic lookup 0 subtable" afii57506 dx=0 dy=0 dh=0 dv=0 dx=0 dy=0 dh=-100 dv=0
EndChar

StartChar: afii62841
Encoding: 65276 65276 269
Width: 1628
GlyphClass: 3
Flags: W
AnchorPoint: "Anchor-1" 1200 -480 baselig 0
AnchorPoint: "Anchor-0" 1140 1560 baselig 0
AnchorPoint: "Anchor-1" 570 -585 baselig 1
AnchorPoint: "Anchor-0" 345 1410 baselig 1
LayerCount: 2
Fore
SplineSet
1407 10 m 0,0,1
 1355 35 1355 35 1324 120 c 0,2,3
 1285 225 1285 225 1256 433 c 2,4,-1
 1190 886 l 1,5,6
 1170 760 1170 760 1163 725 c 0,7,8
 1132 393 1132 393 1015 163 c 1,9,10
 924 3 924 3 802 -80 c 1,11,12
 651 -168 651 -168 329 -199 c 1,13,-1
 335 -150 l 1,14,15
 461 -98 461 -98 542 -56 c 128,-1,16
 623 -14 623 -14 715 48 c 0,17,18
 816 115 816 115 901.5 204.5 c 128,-1,19
 987 294 987 294 984 319 c 0,20,21
 970 438 970 438 832 595 c 0,22,23
 717 725 717 725 589 809 c 0,24,25
 580 816 580 816 560 830 c 0,26,27
 536 847 536 847 517 847 c 0,28,29
 486 847 486 847 451 790 c 0,30,31
 444 785 444 785 434 785 c 0,32,33
 419 785 419 785 374 808 c 0,34,35
 216 883 216 883 203 923 c 1,36,37
 172 986 172 986 172 1060 c 0,38,39
 172 1100 172 1100 186 1148 c 0,40,41
 204 1217 204 1217 235 1208 c 1,42,43
 307 1198 307 1198 466 1099 c 0,44,45
 662 977 662 977 801 822 c 0,46,47
 979 620 979 620 1014 407 c 1,48,-1
 1047 470 l 1,49,50
 1075 560 1075 560 1092 709 c 128,-1,51
 1109 858 1109 858 1114 1133 c 0,52,53
 1115 1177 1115 1177 1126 1267 c 1,54,55
 1146 1344 1146 1344 1205 1390 c 1,56,57
 1254 928 1254 928 1274 788 c 2,58,-1
 1301 582 l 2,59,60
 1303 563 1303 563 1352 284 c 1,61,62
 1369 235 1369 235 1407 211 c 0,63,64
 1420 203 1420 203 1498 203 c 2,65,-1
 1669 203 l 1,66,-1
 1669 0 l 1,67,-1
 1504 0 l 2,68,69
 1435 0 1435 0 1407 10 c 0,0,1
EndSplineSet
Ligature2: "'rlig' Required Ligatures in Arabic lookup 6 subtable" afii62818 afii62760
PairPos2: "'kern' Horizontal Kerning in Arabic lookup 0 subtable" afii57448 dx=0 dy=0 dh=0 dv=0 dx=0 dy=0 dh=-100 dv=0
PairPos2: "'kern' Horizontal Kerning in Arabic lookup 0 subtable" afii57445 dx=0 dy=0 dh=0 dv=0 dx=0 dy=0 dh=-100 dv=0
PairPos2: "'kern' Horizontal Kerning in Arabic lookup 0 subtable" afii57434 dx=0 dy=0 dh=0 dv=0 dx=0 dy=0 dh=-150 dv=0
PairPos2: "'kern' Horizontal Kerning in Arabic lookup 0 subtable" afii57433 dx=0 dy=0 dh=0 dv=0 dx=0 dy=0 dh=-150 dv=0
PairPos2: "'kern' Horizontal Kerning in Arabic lookup 0 subtable" afii57426 dx=0 dy=0 dh=0 dv=0 dx=0 dy=0 dh=-100 dv=0
PairPos2: "'kern' Horizontal Kerning in Arabic lookup 0 subtable" afii57425 dx=0 dy=0 dh=0 dv=0 dx=0 dy=0 dh=-100 dv=0
PairPos2: "'kern' Horizontal Kerning in Arabic lookup 0 subtable" afii57422 dx=0 dy=0 dh=0 dv=0 dx=0 dy=0 dh=-150 dv=0
PairPos2: "'kern' Horizontal Kerning in Arabic lookup 0 subtable" afii57421 dx=0 dy=0 dh=0 dv=0 dx=0 dy=0 dh=-150 dv=0
PairPos2: "'kern' Horizontal Kerning in Arabic lookup 0 subtable" afii57420 dx=0 dy=0 dh=0 dv=0 dx=0 dy=0 dh=-150 dv=0
PairPos2: "'kern' Horizontal Kerning in Arabic lookup 0 subtable" afii52399 dx=0 dy=0 dh=0 dv=0 dx=0 dy=0 dh=-150 dv=0
PairPos2: "'kern' Horizontal Kerning in Arabic lookup 0 subtable" afii57507 dx=0 dy=0 dh=0 dv=0 dx=0 dy=0 dh=-150 dv=0
EndChar

StartChar: afii59759
Encoding: 3663 3663 276
Width: 1233
GlyphClass: 2
Flags: W
LayerCount: 2
Fore
SplineSet
616 983 m 0,0,1
 823 983 823 983 969.5 836.5 c 128,-1,2
 1116 690 1116 690 1116 483 c 0,3,4
 1116 277 1116 277 969.5 130.5 c 128,-1,5
 823 -16 823 -16 616 -16 c 0,6,7
 410 -16 410 -16 263.5 130.5 c 128,-1,8
 117 277 117 277 117 483 c 0,9,10
 117 690 117 690 263.5 836.5 c 128,-1,11
 410 983 410 983 616 983 c 0,0,1
616 147 m 0,12,13
 758 147 758 147 849 242 c 128,-1,14
 940 337 940 337 940 483 c 256,15,16
 940 629 940 629 849 724 c 128,-1,17
 758 819 758 819 616 819 c 0,18,19
 475 819 475 819 384 724 c 128,-1,20
 293 629 293 629 293 483 c 256,21,22
 293 337 293 337 384 242 c 128,-1,23
 475 147 475 147 616 147 c 0,12,13
616 598 m 0,24,25
 664 598 664 598 697.5 565 c 128,-1,26
 731 532 731 532 731 485 c 256,27,28
 731 438 731 438 697.5 404.5 c 128,-1,29
 664 371 664 371 616 371 c 0,30,31
 569 371 569 371 535.5 404.5 c 128,-1,32
 502 438 502 438 502 485 c 256,33,34
 502 532 502 532 535.5 565 c 128,-1,35
 569 598 569 598 616 598 c 0,24,25
EndSplineSet
EndChar

StartChar: afii59760
Encoding: 3664 3664 277
Width: 1233
GlyphClass: 2
Flags: W
LayerCount: 2
Fore
SplineSet
616 924 m 0,0,1
 834 924 834 924 975 794.5 c 128,-1,2
 1116 665 1116 665 1116 453 c 0,3,4
 1116 242 1116 242 975 113 c 128,-1,5
 834 -16 834 -16 616 -16 c 0,6,7
 399 -16 399 -16 258 113 c 128,-1,8
 117 242 117 242 117 453 c 0,9,10
 117 665 117 665 258 794.5 c 128,-1,11
 399 924 399 924 616 924 c 0,0,1
616 150 m 0,12,13
 765 150 765 150 852.5 231 c 128,-1,14
 940 312 940 312 940 453 c 256,15,16
 940 594 940 594 852 677 c 128,-1,17
 764 760 764 760 616 760 c 0,18,19
 469 760 469 760 381 677 c 128,-1,20
 293 594 293 594 293 453 c 0,21,22
 293 310 293 310 381.5 230 c 128,-1,23
 470 150 470 150 616 150 c 0,12,13
EndSplineSet
EndChar

StartChar: glyph279
Encoding: 65559 -1 279
Width: 0
GlyphClass: 2
Flags: W
LayerCount: 2
Fore
SplineSet
36 1831 m 1,0,-1
 36 863 l 1,1,-1
 -36 863 l 1,2,-1
 -36 1831 l 1,3,-1
 36 1831 l 1,0,-1
36 543 m 1,4,-1
 36 -423 l 1,5,-1
 -36 -423 l 1,6,-1
 -36 543 l 1,7,-1
 36 543 l 1,4,-1
EndSplineSet
EndChar

StartChar: glyph280
Encoding: 65560 -1 280
Width: 0
GlyphClass: 2
Flags: W
LayerCount: 2
Fore
SplineSet
-234 -423 m 1,0,-1
 -234 -352 l 1,1,-1
 -36 -352 l 1,2,-1
 -36 1760 l 1,3,-1
 -234 1760 l 1,4,-1
 -234 1831 l 1,5,-1
 234 1831 l 1,6,-1
 234 1760 l 1,7,-1
 36 1760 l 1,8,-1
 36 -352 l 1,9,-1
 234 -352 l 1,10,-1
 234 -423 l 1,11,-1
 -234 -423 l 1,0,-1
EndSplineSet
EndChar

StartChar: glyph281
Encoding: 65561 -1 281
Width: 0
GlyphClass: 2
Flags: W
LayerCount: 2
Fore
SplineSet
224 1646 m 1,0,-1
 36 1504 l 1,1,-1
 36 -423 l 1,2,-1
 -36 -423 l 1,3,-1
 -36 1831 l 1,4,-1
 224 1646 l 1,0,-1
EndSplineSet
EndChar

StartChar: glyph282
Encoding: 65562 -1 282
Width: 0
GlyphClass: 2
Flags: W
LayerCount: 2
Fore
SplineSet
36 1831 m 1,0,-1
 36 -423 l 1,1,-1
 -36 -423 l 1,2,-1
 -36 1504 l 1,3,-1
 -224 1646 l 1,4,-1
 36 1831 l 1,0,-1
EndSplineSet
EndChar

StartChar: glyph283
Encoding: 65563 -1 283
Width: 0
GlyphClass: 2
Flags: W
LayerCount: 2
Fore
SplineSet
36 1831 m 1,0,-1
 36 -352 l 1,1,-1
 234 -352 l 1,2,-1
 234 -423 l 1,3,-1
 -36 -423 l 1,4,-1
 -36 1831 l 1,5,-1
 36 1831 l 1,0,-1
EndSplineSet
EndChar

StartChar: glyph284
Encoding: 65564 -1 284
Width: 0
GlyphClass: 2
Flags: W
LayerCount: 2
Fore
SplineSet
224 1646 m 1,0,-1
 36 1504 l 1,1,-1
 36 -423 l 1,2,-1
 -36 -423 l 1,3,-1
 -36 1504 l 1,4,-1
 -224 1641 l 1,5,-1
 0 1831 l 1,6,-1
 224 1646 l 1,0,-1
EndSplineSet
EndChar

StartChar: uni0670
Encoding: 1648 1648 297
Width: 0
GlyphClass: 4
Flags: W
AnchorPoint: "Anchor-2" 0 0 mark 0
AnchorPoint: "Anchor-0" 0 0 mark 0
LayerCount: 2
Fore
SplineSet
36 98 m 1,0,-1
 -35 -7 l 1,1,2
 -36 42 -36 42 -44.5 161 c 128,-1,3
 -53 280 -53 280 -83 403 c 1,4,-1
 17 515 l 1,5,6
 80 217 80 217 36 98 c 1,0,-1
EndSplineSet
EndChar

StartChar: glyph298
Encoding: 65565 -1 298
Width: 458
GlyphClass: 2
Flags: W
LayerCount: 2
Fore
SplineSet
235 1433 m 2,0,1
 266 1457 266 1457 294 1461.5 c 128,-1,2
 322 1466 322 1466 343 1455 c 128,-1,3
 364 1444 364 1444 377 1419 c 128,-1,4
 390 1394 390 1394 390 1357 c 2,5,-1
 389 1277 l 1,6,-1
 69 1277 l 1,7,-1
 69 1335 l 1,8,-1
 123 1335 l 1,9,-1
 235 1433 l 2,0,1
203 1335 m 1,10,-1
 331 1335 l 1,11,-1
 331 1365 l 2,12,13
 329 1394 329 1394 311 1402 c 128,-1,14
 293 1410 293 1410 263 1388 c 2,15,-1
 203 1335 l 1,10,-1
EndSplineSet
EndChar

StartChar: glyph299
Encoding: 65566 -1 299
Width: 1418
GlyphClass: 2
Flags: W
LayerCount: 2
Fore
SplineSet
1369 116 m 0,0,1
 1369 -192 1369 -192 1161 -379 c 0,2,3
 959 -560 959 -560 647 -560 c 0,4,5
 179 -560 179 -560 179 -151 c 0,6,7
 179 -38 179 -38 239 101 c 0,8,9
 300 234 300 234 382 316 c 1,10,11
 388 314 388 314 395.5 310.5 c 128,-1,12
 403 307 403 307 403 279 c 1,13,14
 295 43 295 43 295 -31 c 0,15,16
 295 -182 295 -182 402 -266 c 0,17,18
 500 -343 500 -343 655 -343 c 0,19,20
 780 -343 780 -343 931 -291 c 128,-1,21
 1082 -239 1082 -239 1180 -162 c 0,22,23
 1292 -74 1292 -74 1292 18 c 0,24,25
 1292 78 1292 78 1249 136 c 1,26,27
 1147 60 1147 60 1074 60 c 0,28,29
 874 60 874 60 874 248 c 0,30,31
 874 335 874 335 945 470 c 0,32,33
 1028 629 1028 629 1116 629 c 0,34,35
 1236 629 1236 629 1310 421 c 0,36,37
 1369 262 1369 262 1369 116 c 0,0,1
1134 330 m 1,38,39
 1117 347 1117 347 1107 356 c 0,40,41
 1078 382 1078 382 1063 382 c 0,42,43
 1039 382 1039 382 1015 316 c 1,44,-1
 1053 309 l 2,45,46
 1064 307 1064 307 1071 307 c 0,47,48
 1084 307 1084 307 1134 330 c 1,38,39
EndSplineSet
EndChar

StartChar: uni06DD
Encoding: 1757 1757 388
Width: 2300
GlyphClass: 2
Flags: W
LayerCount: 2
Fore
SplineSet
2250 715 m 256,0,1
 2250 469 2250 469 2146 249 c 0,2,3
 2046 35 2046 35 1867 -119 c 1,4,5
 1870 -133 1870 -133 1870 -148 c 0,6,7
 1870 -203 1870 -203 1831 -241.5 c 128,-1,8
 1792 -280 1792 -280 1737 -280 c 0,9,10
 1697 -280 1697 -280 1664 -258 c 1,11,12
 1424 -385 1424 -385 1149 -385 c 0,13,14
 876 -385 876 -385 636 -258 c 1,15,16
 603 -280 603 -280 563 -280 c 0,17,18
 508 -280 508 -280 469 -241.5 c 128,-1,19
 430 -203 430 -203 430 -148 c 0,20,21
 430 -133 430 -133 433 -119 c 1,22,23
 254 35 254 35 154 249 c 0,24,25
 50 469 50 469 50 715 c 256,26,27
 50 961 50 961 154 1181 c 0,28,29
 254 1394 254 1394 433 1548 c 1,30,31
 430 1562 430 1562 430 1577 c 0,32,33
 430 1632 430 1632 469 1670.5 c 128,-1,34
 508 1709 508 1709 563 1709 c 0,35,36
 603 1709 603 1709 636 1687 c 1,37,38
 876 1814 876 1814 1151 1814 c 0,39,40
 1424 1814 1424 1814 1664 1687 c 1,41,42
 1697 1709 1697 1709 1737 1709 c 0,43,44
 1792 1709 1792 1709 1831 1670.5 c 128,-1,45
 1870 1632 1870 1632 1870 1577 c 0,46,47
 1870 1562 1870 1562 1867 1548 c 1,48,49
 2046 1394 2046 1394 2146 1181 c 0,50,51
 2250 961 2250 961 2250 715 c 256,0,1
1816 1576 m 0,52,53
 1816 1609 1816 1609 1793 1632 c 128,-1,54
 1770 1655 1770 1655 1738 1655 c 256,55,56
 1706 1655 1706 1655 1682.5 1631.5 c 128,-1,57
 1659 1608 1659 1608 1659 1576 c 256,58,59
 1659 1544 1659 1544 1682 1521 c 128,-1,60
 1705 1498 1705 1498 1738 1498 c 0,61,62
 1770 1498 1770 1498 1793 1521 c 128,-1,63
 1816 1544 1816 1544 1816 1576 c 0,52,53
1602 1595 m 1,64,65
 1390 1704 1390 1704 1151 1704 c 0,66,67
 910 1704 910 1704 698 1595 c 1,68,-1
 1602 1595 l 1,64,65
641 1576 m 256,69,70
 641 1608 641 1608 617.5 1631.5 c 128,-1,71
 594 1655 594 1655 562 1655 c 256,72,73
 530 1655 530 1655 507 1632 c 128,-1,74
 484 1609 484 1609 484 1576 c 0,75,76
 484 1544 484 1544 507 1521 c 128,-1,77
 530 1498 530 1498 562 1498 c 0,78,79
 595 1498 595 1498 618 1521 c 128,-1,80
 641 1544 641 1544 641 1576 c 256,69,70
2140 714 m 0,81,82
 2140 933 2140 933 2048 1131 c 0,83,84
 1960 1321 1960 1321 1801 1460 c 1,85,86
 1772 1444 1772 1444 1737 1444 c 0,87,88
 1681 1444 1681 1444 1642 1485 c 1,89,-1
 658 1485 l 1,90,91
 619 1444 619 1444 563 1444 c 0,92,93
 528 1444 528 1444 499 1460 c 1,94,95
 340 1321 340 1321 252 1131 c 0,96,97
 160 933 160 933 160 714 c 0,98,99
 160 265 160 265 499 -31 c 1,100,101
 528 -15 528 -15 563 -15 c 0,102,103
 619 -15 619 -15 658 -56 c 1,104,-1
 1642 -56 l 1,105,106
 1681 -15 1681 -15 1737 -15 c 0,107,108
 1772 -15 1772 -15 1801 -31 c 1,109,110
 2140 265 2140 265 2140 714 c 0,81,82
1816 -147 m 0,111,112
 1816 -115 1816 -115 1793 -92 c 128,-1,113
 1770 -69 1770 -69 1738 -69 c 0,114,115
 1705 -69 1705 -69 1682 -92 c 128,-1,116
 1659 -115 1659 -115 1659 -147 c 256,117,118
 1659 -179 1659 -179 1682.5 -202.5 c 128,-1,119
 1706 -226 1706 -226 1738 -226 c 256,120,121
 1770 -226 1770 -226 1793 -203 c 128,-1,122
 1816 -180 1816 -180 1816 -147 c 0,111,112
1602 -166 m 1,123,-1
 698 -166 l 1,124,125
 910 -275 910 -275 1151 -275 c 0,126,127
 1390 -275 1390 -275 1602 -166 c 1,123,-1
641 -147 m 256,128,129
 641 -115 641 -115 618 -92 c 128,-1,130
 595 -69 595 -69 562 -69 c 0,131,132
 530 -69 530 -69 507 -92 c 128,-1,133
 484 -115 484 -115 484 -147 c 0,134,135
 484 -180 484 -180 507 -203 c 128,-1,136
 530 -226 530 -226 562 -226 c 256,137,138
 594 -226 594 -226 617.5 -202.5 c 128,-1,139
 641 -179 641 -179 641 -147 c 256,128,129
EndSplineSet
EndChar

StartChar: uni06DE
Encoding: 1758 1758 389
Width: 2221
GlyphClass: 2
Flags: W
LayerCount: 2
Fore
SplineSet
2171 750 m 1,0,-1
 1861 439 l 1,1,-1
 1861 0 l 1,2,-1
 1421 0 l 1,3,-1
 1111 -311 l 1,4,-1
 800 0 l 1,5,-1
 361 0 l 1,6,-1
 361 439 l 1,7,-1
 50 750 l 1,8,-1
 361 1061 l 1,9,-1
 361 1500 l 1,10,-1
 800 1500 l 1,11,-1
 1111 1811 l 1,12,-1
 1421 1500 l 1,13,-1
 1861 1500 l 1,14,-1
 1861 1061 l 1,15,-1
 2171 750 l 1,0,-1
436 364 m 1,16,-1
 436 75 l 1,17,-1
 725 75 l 1,18,-1
 436 364 l 1,16,-1
725 1425 m 1,19,-1
 436 1425 l 1,20,-1
 436 1136 l 1,21,-1
 725 1425 l 1,19,-1
1786 1136 m 1,22,-1
 1786 1425 l 1,23,-1
 1496 1425 l 1,24,-1
 1786 1136 l 1,22,-1
1786 75 m 1,25,-1
 1786 364 l 1,26,-1
 1496 75 l 1,27,-1
 1786 75 l 1,25,-1
906 0 m 1,28,-1
 1111 -205 l 1,29,-1
 1315 0 l 1,30,-1
 906 0 l 1,28,-1
361 955 m 1,31,-1
 156 750 l 1,32,-1
 361 545 l 1,33,-1
 361 955 l 1,31,-1
1315 1500 m 1,34,-1
 1111 1705 l 1,35,-1
 906 1500 l 1,36,-1
 1315 1500 l 1,34,-1
1786 1030 m 1,37,-1
 1390 1425 l 1,38,-1
 831 1425 l 1,39,-1
 436 1030 l 1,40,-1
 436 470 l 1,41,-1
 831 75 l 1,42,-1
 1390 75 l 1,43,-1
 1786 470 l 1,44,-1
 1786 1030 l 1,37,-1
2065 750 m 1,45,-1
 1861 955 l 1,46,-1
 1861 545 l 1,47,-1
 2065 750 l 1,45,-1
1328 750 m 256,48,49
 1328 660 1328 660 1264.5 596 c 128,-1,50
 1201 532 1201 532 1111 532 c 256,51,52
 1021 532 1021 532 957 596 c 128,-1,53
 893 660 893 660 893 750 c 256,54,55
 893 840 893 840 957 903.5 c 128,-1,56
 1021 967 1021 967 1111 967 c 256,57,58
 1201 967 1201 967 1264.5 903.5 c 128,-1,59
 1328 840 1328 840 1328 750 c 256,48,49
1253 750 m 256,60,61
 1253 809 1253 809 1211 850.5 c 128,-1,62
 1169 892 1169 892 1110 892 c 256,63,64
 1051 892 1051 892 1009 850.5 c 128,-1,65
 967 809 967 809 967 750 c 256,66,67
 967 691 967 691 1009 649 c 128,-1,68
 1051 607 1051 607 1110 607 c 256,69,70
 1169 607 1169 607 1211 649 c 128,-1,71
 1253 691 1253 691 1253 750 c 256,60,61
EndSplineSet
EndChar

StartChar: uni06DF
Encoding: 1759 1759 390
Width: 0
GlyphClass: 2
Flags: W
LayerCount: 2
Fore
SplineSet
75 1429 m 256,0,1
 75 1398 75 1398 53 1376 c 128,-1,2
 31 1354 31 1354 0 1354 c 256,3,4
 -31 1354 -31 1354 -53 1376 c 128,-1,5
 -75 1398 -75 1398 -75 1429 c 256,6,7
 -75 1460 -75 1460 -53 1482 c 128,-1,8
 -31 1504 -31 1504 0 1504 c 256,9,10
 31 1504 31 1504 53 1482 c 128,-1,11
 75 1460 75 1460 75 1429 c 256,0,1
EndSplineSet
EndChar

StartChar: uni06E9
Encoding: 1769 1769 391
Width: 1229
GlyphClass: 2
Flags: W
LayerCount: 2
Fore
SplineSet
1179 0 m 1,0,-1
 50 0 l 1,1,-1
 278 261 l 1,2,-1
 278 849 l 1,3,-1
 50 1108 l 1,4,-1
 614 1676 l 1,5,-1
 1179 1108 l 1,6,-1
 951 849 l 1,7,-1
 951 261 l 1,8,-1
 1179 0 l 1,0,-1
1101 1108 m 1,9,-1
 614 1598 l 1,10,-1
 128 1108 l 1,11,-1
 338 871 l 1,12,-1
 338 239 l 1,13,-1
 178 56 l 1,14,-1
 1051 56 l 1,15,-1
 891 239 l 1,16,-1
 891 871 l 1,17,-1
 1101 1108 l 1,9,-1
995 1108 m 1,18,-1
 845 937 l 1,19,-1
 845 131 l 1,20,-1
 384 131 l 1,21,-1
 384 937 l 1,22,-1
 234 1108 l 1,23,-1
 614 1489 l 1,24,-1
 995 1108 l 1,18,-1
922 1108 m 1,25,-1
 614 1416 l 1,26,-1
 307 1108 l 1,27,-1
 433 968 l 1,28,-1
 433 186 l 1,29,-1
 796 186 l 1,30,-1
 796 968 l 1,31,-1
 922 1108 l 1,25,-1
833 1108 m 1,32,-1
 745 1011 l 1,33,-1
 745 267 l 1,34,-1
 484 267 l 1,35,-1
 484 1011 l 1,36,-1
 396 1108 l 1,37,-1
 614 1331 l 1,38,-1
 833 1108 l 1,32,-1
780 1108 m 1,39,-1
 614 1278 l 1,40,-1
 449 1108 l 1,41,-1
 523 1027 l 1,42,-1
 523 309 l 1,43,-1
 705 309 l 1,44,-1
 705 1027 l 1,45,-1
 780 1108 l 1,39,-1
EndSplineSet
EndChar

StartChar: uni06EB
Encoding: 1771 1771 393
Width: 0
GlyphClass: 2
Flags: W
LayerCount: 2
Fore
SplineSet
168 1522 m 1,0,-1
 -1 1354 l 1,1,-1
 -168 1521 l 1,2,-1
 1 1689 l 1,3,-1
 168 1522 l 1,0,-1
104 1522 m 1,4,-1
 0 1626 l 1,5,-1
 -104 1521 l 1,6,-1
 0 1417 l 1,7,-1
 104 1522 l 1,4,-1
EndSplineSet
EndChar

StartChar: comma
Encoding: 44 44 402
Width: 542
Flags: W
LayerCount: 2
Fore
SplineSet
429 40 m 0,0,1
 429 -135 429 -135 276 -267 c 0,2,3
 227 -310 227 -310 211 -310 c 0,4,5
 200 -310 200 -310 175 -292 c 1,6,7
 238 -208 238 -208 320 -56 c 1,8,-1
 320 2 l 1,9,10
 244 2 244 2 213 22 c 0,11,12
 175 48 175 48 175 119 c 0,13,14
 175 235 175 235 287 235 c 0,15,16
 429 235 429 235 429 40 c 0,0,1
EndSplineSet
EndChar

StartChar: afii57407
Encoding: 1567 1567 403
Width: 962
GlyphClass: 2
Flags: W
LayerCount: 2
Fore
SplineSet
851 1045 m 0,0,1
 851 967 851 967 810 906 c 0,2,3
 763 836 763 836 689 836 c 0,4,5
 647 836 647 836 614.5 872 c 128,-1,6
 582 908 582 908 582 953 c 0,7,8
 582 1083 582 1083 727 1079 c 0,9,10
 734 1079 734 1079 757 1078 c 1,11,12
 757 1081 757 1081 761.5 1088 c 128,-1,13
 766 1095 766 1095 766 1100 c 0,14,15
 766 1132 766 1132 698 1177.5 c 128,-1,16
 630 1223 630 1223 595 1223 c 0,17,18
 533 1223 533 1223 481 1186 c 0,19,20
 406 1135 406 1135 406 1030 c 0,21,22
 406 949 406 949 460 854 c 0,23,24
 494 798 494 798 557 683 c 0,25,26
 610 581 610 581 610 459 c 0,27,28
 610 417 610 417 583 266 c 1,29,-1
 535 266 l 1,30,31
 519 276 519 276 506 286 c 1,32,33
 518 332 518 332 518 376 c 0,34,35
 518 469 518 469 437 551 c 0,36,37
 387 602 387 602 286 703 c 1,38,39
 204 809 204 809 204 949 c 0,40,41
 204 1117 204 1117 324 1236 c 0,42,43
 430 1340 430 1340 535 1340 c 0,44,45
 677 1340 677 1340 764 1263 c 128,-1,46
 851 1186 851 1186 851 1045 c 0,0,1
640 51 m 256,47,48
 640 3 640 3 606.5 -28.5 c 128,-1,49
 573 -60 573 -60 523 -60 c 0,50,51
 487 -60 487 -60 452.5 -23.5 c 128,-1,52
 418 13 418 13 418 51 c 0,53,54
 418 88 418 88 451.5 124.5 c 128,-1,55
 485 161 485 161 520 161 c 0,56,57
 569 161 569 161 604.5 130 c 128,-1,58
 640 99 640 99 640 51 c 256,47,48
EndSplineSet
EndChar

StartChar: afii57392
Encoding: 1776 1776 404
Width: 623
Flags: W
LayerCount: 2
Fore
SplineSet
474 368 m 0,0,1
 474 354 474 354 457 293 c 2,2,-1
 422 172 l 2,3,4
 403 102 403 102 400 66 c 1,5,6
 389 59 389 59 379 59 c 1,7,8
 368 65 368 65 322 98 c 0,9,10
 264 139 264 139 226 169 c 0,11,12
 154 226 154 226 145 247 c 1,13,-1
 229 554 l 1,14,-1
 256 554 l 1,15,16
 293 521 293 521 401 446 c 0,17,18
 474 395 474 395 474 368 c 0,0,1
EndSplineSet
EndChar

StartChar: afii57393
Encoding: 1777 1777 405
Width: 907
Flags: W
LayerCount: 2
Fore
SplineSet
673 -30 m 0,0,1
 652 -92 652 -92 614 -92 c 0,2,3
 583 -92 583 -92 572 -4 c 0,4,5
 545 208 545 208 508 376 c 0,6,7
 484 481 484 481 431 592 c 0,8,9
 415 625 415 625 346 754 c 0,10,11
 305 829 305 829 305 853 c 0,12,13
 305 882 305 882 335 968 c 0,14,15
 373 1076 373 1076 415 1118 c 1,16,17
 570 983 570 983 660 521 c 0,18,19
 692 356 692 356 692 266 c 0,20,21
 692 251 692 251 696 219 c 128,-1,22
 700 187 700 187 700 172 c 0,23,24
 700 110 700 110 692 55.5 c 128,-1,25
 684 1 684 1 673 -30 c 0,0,1
EndSplineSet
EndChar

StartChar: afii57394
Encoding: 1778 1778 406
Width: 907
Flags: W
LayerCount: 2
Fore
SplineSet
828 1010 m 0,0,1
 828 826 828 826 761 731 c 0,2,3
 721 674 721 674 637 635 c 0,4,5
 570 602 570 602 570 570 c 1,6,7
 624 312 624 312 624 151 c 0,8,9
 624 64 624 64 617 23 c 0,10,11
 606 -44 606 -44 570 -94 c 1,12,13
 529 -78 529 -78 516 -30 c 1,14,15
 468 251 468 251 421 402 c 0,16,17
 343 655 343 655 216 853 c 0,18,19
 175 916 175 916 174 919 c 0,20,21
 193 961 193 961 208 989 c 0,22,23
 248 1066 248 1066 284 1108 c 1,24,25
 343 1069 343 1069 418 978 c 0,26,27
 462 923 462 923 536 923 c 0,28,29
 652 923 652 923 708 1006 c 0,30,31
 757 1079 757 1079 787 1108 c 1,32,33
 829 1076 829 1076 829 1055 c 0,34,35
 829 1048 829 1048 828 1032 c 0,36,37
 828 1018 828 1018 828 1010 c 0,0,1
EndSplineSet
EndChar

StartChar: afii57395
Encoding: 1779 1779 407
Width: 1176
Flags: W
LayerCount: 2
Fore
SplineSet
1086 900 m 1,0,1
 1026 642 1026 642 884 642 c 0,2,3
 840 642 840 642 720 700 c 1,4,5
 706 700 706 700 625.5 644 c 128,-1,6
 545 588 545 588 545 580 c 0,7,8
 593 446 593 446 593 185 c 0,9,10
 593 174 593 174 593 151 c 0,11,12
 594 130 594 130 594 119 c 0,13,14
 594 -90 594 -90 520 -90 c 0,15,16
 486 -90 486 -90 480 -61 c 0,17,18
 476 -17 476 -17 468 71 c 0,19,20
 432 408 432 408 313 654 c 0,21,22
 288 708 288 708 232 794 c 0,23,24
 197 848 197 848 197 876 c 0,25,26
 197 884 197 884 233 953 c 0,27,28
 275 1034 275 1034 307 1069 c 1,29,30
 481 876 481 876 545 876 c 0,31,32
 604 876 604 876 656 937 c 0,33,34
 676 959 676 959 732 1051 c 0,35,36
 769 1114 769 1114 793 1114 c 0,37,38
 820 1114 820 1114 826 1068 c 0,39,40
 836 1000 836 1000 845 983 c 0,41,42
 868 937 868 937 932 937 c 0,43,44
 990 937 990 937 1007 983 c 0,45,46
 1034 1055 1034 1055 1061 1078 c 1,47,-1
 1088 1078 l 1,48,49
 1105 1032 1105 1032 1105 1026 c 0,50,51
 1100 984 1100 984 1086 900 c 1,0,1
EndSplineSet
EndChar

StartChar: afii62843
Encoding: 1780 1780 408
Width: 907
Flags: W
LayerCount: 2
Fore
SplineSet
760 155 m 0,0,1
 760 132 760 132 721 30 c 0,2,3
 677 -89 677 -89 641 -89 c 0,4,5
 623 -89 623 -89 538 -66 c 0,6,7
 244 16 244 16 244 140 c 0,8,9
 244 222 244 222 354 366 c 0,10,11
 394 416 394 416 446 478 c 1,12,13
 425 498 425 498 361 542 c 0,14,15
 304 582 304 582 281 608 c 0,16,17
 244 649 244 649 244 694 c 0,18,19
 244 725 244 725 260 770 c 0,20,21
 334 982 334 982 611 1150 c 1,22,-1
 649 1150 l 1,23,-1
 649 1112 l 1,24,25
 612 1003 612 1003 564 944 c 0,26,27
 542 918 542 918 493 883 c 0,28,29
 463 862 463 862 463 838 c 0,30,31
 463 811 463 811 518 781 c 0,32,33
 552 763 552 763 620 726 c 0,34,35
 676 694 676 694 676 656 c 0,36,37
 676 604 676 604 614 526 c 0,38,39
 605 514 605 514 499 398 c 0,40,41
 437 331 437 331 437 306 c 256,42,43
 437 281 437 281 536 232 c 0,44,45
 650 176 650 176 749 176 c 1,46,47
 749 174 749 174 754.5 167.5 c 128,-1,48
 760 161 760 161 760 155 c 0,0,1
EndSplineSet
EndChar

StartChar: afii62844
Encoding: 1781 1781 409
Width: 907
Flags: W
LayerCount: 2
Fore
SplineSet
833 556 m 0,0,1
 833 112 833 112 418 112 c 0,2,3
 311 112 311 112 240.5 179.5 c 128,-1,4
 170 247 170 247 170 353 c 0,5,6
 170 456 170 456 238 599 c 0,7,8
 298 727 298 727 374 815 c 0,9,10
 466 918 466 918 541 918 c 0,11,12
 584 918 584 918 638 894 c 0,13,14
 833 810 833 810 833 556 c 0,0,1
697 397 m 1,15,-1
 659 469 l 1,16,17
 554 633 554 633 473 633 c 0,18,19
 420 633 420 633 373 582 c 0,20,21
 337 543 337 543 337 489 c 0,22,23
 337 395 337 395 541 395 c 0,24,25
 590 395 590 395 697 397 c 1,15,-1
EndSplineSet
EndChar

StartChar: afii62845
Encoding: 1782 1782 410
Width: 907
Flags: W
LayerCount: 2
Fore
SplineSet
856 113 m 0,0,1
 856 37 856 37 799 -102 c 1,2,-1
 773 -102 l 1,3,4
 679 -8 679 -8 630 114 c 0,5,6
 590 212 590 212 590 292 c 0,7,8
 590 452 590 452 599 620 c 0,9,10
 600 648 600 648 473 648 c 0,11,12
 371 648 371 648 330 653 c 0,13,14
 149 676 149 676 149 824 c 0,15,16
 149 878 149 878 167 926 c 0,17,18
 178 958 178 958 215 1026 c 1,19,20
 412 920 412 920 524 920 c 0,21,22
 557 920 557 920 644 941 c 0,23,24
 690 952 690 952 724 952 c 1,25,26
 689 746 689 746 689 636 c 0,27,28
 689 476 689 476 732 367 c 0,29,30
 752 317 752 317 812 227 c 0,31,32
 856 163 856 163 856 113 c 0,0,1
EndSplineSet
EndChar

StartChar: afii57399
Encoding: 1783 1783 411
Width: 1176
Flags: W
LayerCount: 2
Fore
SplineSet
1079 883 m 0,0,1
 1079 826 1079 826 1057 794 c 0,2,3
 1031 758 1031 758 980 685 c 1,4,5
 917 584 917 584 836 379 c 0,6,7
 775 221 775 221 728 70 c 2,8,-1
 685 -66 l 2,9,10
 672 -97 672 -97 647 -97 c 0,11,12
 623 -97 623 -97 604 -32 c 0,13,14
 588 24 588 24 558 136 c 0,15,16
 524 254 524 254 479 361 c 0,17,18
 413 512 413 512 347 617 c 0,19,20
 307 680 307 680 256 743 c 0,21,22
 222 784 222 784 222 799 c 0,23,24
 222 836 222 836 260 920 c 0,25,26
 296 1001 296 1001 324 1032 c 1,27,28
 403 972 403 972 479 808 c 0,29,30
 517 722 517 722 593 514 c 0,31,32
 652 348 652 348 682 307 c 1,33,34
 722 370 722 370 772 523 c 0,35,36
 834 718 834 718 868 793 c 0,37,38
 940 952 940 952 1048 1060 c 1,39,40
 1079 1007 1079 1007 1079 883 c 0,0,1
EndSplineSet
EndChar

StartChar: afii57400
Encoding: 1784 1784 412
Width: 1176
Flags: W
LayerCount: 2
Fore
SplineSet
1082 113 m 0,0,1
 1082 97 1082 97 1060 34 c 0,2,3
 1031 -53 1031 -53 989 -113 c 1,4,5
 922 -67 922 -67 835 110 c 0,6,7
 778 228 778 228 703 425 c 2,8,-1
 632 614 l 1,9,10
 610 584 610 584 568 450 c 0,11,12
 514 277 514 277 469 180 c 0,13,14
 389 5 389 5 264 -139 c 1,15,16
 244 -115 244 -115 229 -29 c 0,17,18
 227 -14 227 -14 218 54 c 1,19,20
 218 85 218 85 251 125 c 0,21,22
 311 202 311 202 340 251 c 0,23,24
 430 402 430 402 581 845 c 0,25,26
 618 954 618 954 629 978 c 0,27,28
 644 1009 644 1009 665 1009 c 0,29,30
 691 1009 691 1009 700 978 c 0,31,32
 712 934 712 934 734 846 c 0,33,34
 773 703 773 703 832 558 c 0,35,36
 883 431 883 431 955 311 c 0,37,38
 990 252 990 252 1045 178 c 0,39,40
 1082 128 1082 128 1082 113 c 0,0,1
EndSplineSet
EndChar

StartChar: afii57401
Encoding: 1785 1785 413
Width: 907
Flags: W
LayerCount: 2
Fore
SplineSet
836 139 m 0,0,1
 836 103 836 103 811 29 c 0,2,3
 780 -64 780 -64 775 -86 c 1,4,-1
 743 -86 l 1,5,6
 664 5 664 5 628 120 c 1,7,8
 608 253 608 253 563 428 c 0,9,10
 558 437 558 437 430 461 c 0,11,12
 293 486 293 486 263 504 c 0,13,14
 167 559 167 559 167 682 c 0,15,16
 167 780 167 780 227 902 c 0,17,18
 280 1014 280 1014 354 1094 c 0,19,20
 433 1180 433 1180 492 1180 c 0,21,22
 691 1180 691 1180 691 629 c 0,23,24
 691 512 691 512 728 406 c 0,25,26
 743 362 743 362 798 253 c 0,27,28
 836 178 836 178 836 139 c 0,0,1
528 722 m 1,29,-1
 538 762 l 1,30,31
 488 869 488 869 444 880 c 0,32,33
 415 887 415 887 386.5 868.5 c 128,-1,34
 358 850 358 850 350 820 c 0,35,36
 337 769 337 769 449 742 c 0,37,38
 475 734 475 734 510 732 c 0,39,40
 516 731 516 731 528 722 c 1,29,-1
EndSplineSet
EndChar

StartChar: afii57392.001
Encoding: 1632 1632 414
Width: 623
Flags: W
LayerCount: 2
Fore
SplineSet
474 368 m 0,0,1
 474 354 474 354 457 293 c 2,2,-1
 422 172 l 2,3,4
 403 102 403 102 400 66 c 1,5,6
 389 59 389 59 379 59 c 1,7,8
 368 65 368 65 322 98 c 0,9,10
 264 139 264 139 226 169 c 0,11,12
 154 226 154 226 145 247 c 1,13,-1
 229 554 l 1,14,-1
 256 554 l 1,15,16
 293 521 293 521 401 446 c 0,17,18
 474 395 474 395 474 368 c 0,0,1
EndSplineSet
EndChar

StartChar: afii57393.001
Encoding: 1633 1633 415
Width: 907
Flags: W
LayerCount: 2
Fore
SplineSet
673 -30 m 0,0,1
 652 -92 652 -92 614 -92 c 0,2,3
 583 -92 583 -92 572 -4 c 0,4,5
 545 208 545 208 508 376 c 0,6,7
 484 481 484 481 431 592 c 0,8,9
 415 625 415 625 346 754 c 0,10,11
 305 829 305 829 305 853 c 0,12,13
 305 882 305 882 335 968 c 0,14,15
 373 1076 373 1076 415 1118 c 1,16,17
 570 983 570 983 660 521 c 0,18,19
 692 356 692 356 692 266 c 0,20,21
 692 251 692 251 696 219 c 128,-1,22
 700 187 700 187 700 172 c 0,23,24
 700 110 700 110 692 55.5 c 128,-1,25
 684 1 684 1 673 -30 c 0,0,1
EndSplineSet
EndChar

StartChar: afii57394.001
Encoding: 1634 1634 416
Width: 907
Flags: W
LayerCount: 2
Fore
SplineSet
828 1010 m 0,0,1
 828 826 828 826 761 731 c 0,2,3
 721 674 721 674 637 635 c 0,4,5
 570 602 570 602 570 570 c 1,6,7
 624 312 624 312 624 151 c 0,8,9
 624 64 624 64 617 23 c 0,10,11
 606 -44 606 -44 570 -94 c 1,12,13
 529 -78 529 -78 516 -30 c 1,14,15
 468 251 468 251 421 402 c 0,16,17
 343 655 343 655 216 853 c 0,18,19
 175 916 175 916 174 919 c 0,20,21
 193 961 193 961 208 989 c 0,22,23
 248 1066 248 1066 284 1108 c 1,24,25
 343 1069 343 1069 418 978 c 0,26,27
 462 923 462 923 536 923 c 0,28,29
 652 923 652 923 708 1006 c 0,30,31
 757 1079 757 1079 787 1108 c 1,32,33
 829 1076 829 1076 829 1055 c 0,34,35
 829 1048 829 1048 828 1032 c 0,36,37
 828 1018 828 1018 828 1010 c 0,0,1
EndSplineSet
EndChar

StartChar: afii57395.001
Encoding: 1635 1635 417
Width: 1176
Flags: W
LayerCount: 2
Fore
SplineSet
1086 900 m 1,0,1
 1026 642 1026 642 884 642 c 0,2,3
 840 642 840 642 720 700 c 1,4,5
 706 700 706 700 625.5 644 c 128,-1,6
 545 588 545 588 545 580 c 0,7,8
 593 446 593 446 593 185 c 0,9,10
 593 174 593 174 593 151 c 0,11,12
 594 130 594 130 594 119 c 0,13,14
 594 -90 594 -90 520 -90 c 0,15,16
 486 -90 486 -90 480 -61 c 0,17,18
 476 -17 476 -17 468 71 c 0,19,20
 432 408 432 408 313 654 c 0,21,22
 288 708 288 708 232 794 c 0,23,24
 197 848 197 848 197 876 c 0,25,26
 197 884 197 884 233 953 c 0,27,28
 275 1034 275 1034 307 1069 c 1,29,30
 481 876 481 876 545 876 c 0,31,32
 604 876 604 876 656 937 c 0,33,34
 676 959 676 959 732 1051 c 0,35,36
 769 1114 769 1114 793 1114 c 0,37,38
 820 1114 820 1114 826 1068 c 0,39,40
 836 1000 836 1000 845 983 c 0,41,42
 868 937 868 937 932 937 c 0,43,44
 990 937 990 937 1007 983 c 0,45,46
 1034 1055 1034 1055 1061 1078 c 1,47,-1
 1088 1078 l 1,48,49
 1105 1032 1105 1032 1105 1026 c 0,50,51
 1100 984 1100 984 1086 900 c 1,0,1
EndSplineSet
EndChar

StartChar: afii57396
Encoding: 1636 1636 418
Width: 907
Flags: W
LayerCount: 2
Fore
SplineSet
760 155 m 0,0,1
 760 132 760 132 721 30 c 0,2,3
 677 -89 677 -89 641 -89 c 0,4,5
 623 -89 623 -89 538 -66 c 0,6,7
 244 16 244 16 244 140 c 0,8,9
 244 222 244 222 354 366 c 0,10,11
 394 416 394 416 446 478 c 1,12,13
 425 498 425 498 361 542 c 0,14,15
 304 582 304 582 281 608 c 0,16,17
 244 649 244 649 244 694 c 0,18,19
 244 725 244 725 260 770 c 0,20,21
 334 982 334 982 611 1150 c 1,22,-1
 649 1150 l 1,23,-1
 649 1112 l 1,24,25
 612 1003 612 1003 564 944 c 0,26,27
 542 918 542 918 493 883 c 0,28,29
 463 862 463 862 463 838 c 0,30,31
 463 811 463 811 518 781 c 0,32,33
 552 763 552 763 620 726 c 0,34,35
 676 694 676 694 676 656 c 0,36,37
 676 604 676 604 614 526 c 0,38,39
 605 514 605 514 499 398 c 0,40,41
 437 331 437 331 437 306 c 256,42,43
 437 281 437 281 536 232 c 0,44,45
 650 176 650 176 749 176 c 1,46,47
 749 174 749 174 754.5 167.5 c 128,-1,48
 760 161 760 161 760 155 c 0,0,1
EndSplineSet
EndChar

StartChar: afii57397
Encoding: 1637 1637 419
Width: 907
Flags: W
LayerCount: 2
Fore
SplineSet
833 556 m 0,0,1
 833 112 833 112 418 112 c 0,2,3
 311 112 311 112 240.5 179.5 c 128,-1,4
 170 247 170 247 170 353 c 0,5,6
 170 456 170 456 238 599 c 0,7,8
 298 727 298 727 374 815 c 0,9,10
 466 918 466 918 541 918 c 0,11,12
 584 918 584 918 638 894 c 0,13,14
 833 810 833 810 833 556 c 0,0,1
697 397 m 1,15,-1
 659 469 l 1,16,17
 554 633 554 633 473 633 c 0,18,19
 420 633 420 633 373 582 c 0,20,21
 337 543 337 543 337 489 c 0,22,23
 337 395 337 395 541 395 c 0,24,25
 590 395 590 395 697 397 c 1,15,-1
EndSplineSet
EndChar

StartChar: afii57398
Encoding: 1638 1638 420
Width: 907
Flags: W
LayerCount: 2
Fore
SplineSet
856 113 m 0,0,1
 856 37 856 37 799 -102 c 1,2,-1
 773 -102 l 1,3,4
 679 -8 679 -8 630 114 c 0,5,6
 590 212 590 212 590 292 c 0,7,8
 590 452 590 452 599 620 c 0,9,10
 600 648 600 648 473 648 c 0,11,12
 371 648 371 648 330 653 c 0,13,14
 149 676 149 676 149 824 c 0,15,16
 149 878 149 878 167 926 c 0,17,18
 178 958 178 958 215 1026 c 1,19,20
 412 920 412 920 524 920 c 0,21,22
 557 920 557 920 644 941 c 0,23,24
 690 952 690 952 724 952 c 1,25,26
 689 746 689 746 689 636 c 0,27,28
 689 476 689 476 732 367 c 0,29,30
 752 317 752 317 812 227 c 0,31,32
 856 163 856 163 856 113 c 0,0,1
EndSplineSet
EndChar

StartChar: afii57399.001
Encoding: 1639 1639 421
Width: 1176
Flags: W
LayerCount: 2
Fore
SplineSet
1079 883 m 0,0,1
 1079 826 1079 826 1057 794 c 0,2,3
 1031 758 1031 758 980 685 c 1,4,5
 917 584 917 584 836 379 c 0,6,7
 775 221 775 221 728 70 c 2,8,-1
 685 -66 l 2,9,10
 672 -97 672 -97 647 -97 c 0,11,12
 623 -97 623 -97 604 -32 c 0,13,14
 588 24 588 24 558 136 c 0,15,16
 524 254 524 254 479 361 c 0,17,18
 413 512 413 512 347 617 c 0,19,20
 307 680 307 680 256 743 c 0,21,22
 222 784 222 784 222 799 c 0,23,24
 222 836 222 836 260 920 c 0,25,26
 296 1001 296 1001 324 1032 c 1,27,28
 403 972 403 972 479 808 c 0,29,30
 517 722 517 722 593 514 c 0,31,32
 652 348 652 348 682 307 c 1,33,34
 722 370 722 370 772 523 c 0,35,36
 834 718 834 718 868 793 c 0,37,38
 940 952 940 952 1048 1060 c 1,39,40
 1079 1007 1079 1007 1079 883 c 0,0,1
EndSplineSet
EndChar

StartChar: afii57400.001
Encoding: 1640 1640 422
Width: 1176
Flags: W
LayerCount: 2
Fore
SplineSet
1082 113 m 0,0,1
 1082 97 1082 97 1060 34 c 0,2,3
 1031 -53 1031 -53 989 -113 c 1,4,5
 922 -67 922 -67 835 110 c 0,6,7
 778 228 778 228 703 425 c 2,8,-1
 632 614 l 1,9,10
 610 584 610 584 568 450 c 0,11,12
 514 277 514 277 469 180 c 0,13,14
 389 5 389 5 264 -139 c 1,15,16
 244 -115 244 -115 229 -29 c 0,17,18
 227 -14 227 -14 218 54 c 1,19,20
 218 85 218 85 251 125 c 0,21,22
 311 202 311 202 340 251 c 0,23,24
 430 402 430 402 581 845 c 0,25,26
 618 954 618 954 629 978 c 0,27,28
 644 1009 644 1009 665 1009 c 0,29,30
 691 1009 691 1009 700 978 c 0,31,32
 712 934 712 934 734 846 c 0,33,34
 773 703 773 703 832 558 c 0,35,36
 883 431 883 431 955 311 c 0,37,38
 990 252 990 252 1045 178 c 0,39,40
 1082 128 1082 128 1082 113 c 0,0,1
EndSplineSet
EndChar

StartChar: afii57401.001
Encoding: 1641 1641 423
Width: 907
Flags: W
LayerCount: 2
Fore
SplineSet
836 139 m 0,0,1
 836 103 836 103 811 29 c 0,2,3
 780 -64 780 -64 775 -86 c 1,4,-1
 743 -86 l 1,5,6
 664 5 664 5 628 120 c 1,7,8
 608 253 608 253 563 428 c 0,9,10
 558 437 558 437 430 461 c 0,11,12
 293 486 293 486 263 504 c 0,13,14
 167 559 167 559 167 682 c 0,15,16
 167 780 167 780 227 902 c 0,17,18
 280 1014 280 1014 354 1094 c 0,19,20
 433 1180 433 1180 492 1180 c 0,21,22
 691 1180 691 1180 691 629 c 0,23,24
 691 512 691 512 728 406 c 0,25,26
 743 362 743 362 798 253 c 0,27,28
 836 178 836 178 836 139 c 0,0,1
528 722 m 1,29,-1
 538 762 l 1,30,31
 488 869 488 869 444 880 c 0,32,33
 415 887 415 887 386.5 868.5 c 128,-1,34
 358 850 358 850 350 820 c 0,35,36
 337 769 337 769 449 742 c 0,37,38
 475 734 475 734 510 732 c 0,39,40
 516 731 516 731 528 722 c 1,29,-1
EndSplineSet
EndChar

StartChar: guillemotleft
Encoding: 171 171 424
Width: 836
Flags: W
LayerCount: 2
Fore
SplineSet
442 616 m 1,0,1
 387 507 387 507 387 393 c 0,2,3
 387 255 387 255 518 82 c 1,4,-1
 518 83 l 1,5,6
 538 60 538 60 547.5 44 c 128,-1,7
 557 28 557 28 560 20 c 0,8,9
 560 -5 560 -5 534 -5 c 0,10,11
 528 -5 528 -5 513 1 c 0,12,13
 377 71 377 71 294 168 c 1,14,-1
 294 167 l 1,15,16
 202 276 202 276 202 396 c 0,17,18
 203 448 203 448 222.5 500 c 128,-1,19
 242 552 242 552 280 603 c 0,20,21
 307 640 307 640 344.5 676.5 c 128,-1,22
 382 713 382 713 426 745 c 0,23,24
 499 799 499 799 528 799 c 0,25,26
 563 799 563 799 563 775 c 0,27,28
 563 765 563 765 555 757 c 0,29,30
 528 730 528 730 509 708 c 128,-1,31
 490 686 490 686 477 668.5 c 128,-1,32
 464 651 464 651 455.5 638 c 128,-1,33
 447 625 447 625 441 615 c 2,34,-1
 442 616 l 1,0,1
721 616 m 1,35,36
 666 507 666 507 666 393 c 0,37,38
 666 255 666 255 797 82 c 1,39,-1
 797 83 l 1,40,41
 817 60 817 60 826.5 44 c 128,-1,42
 836 28 836 28 839 20 c 0,43,44
 839 -5 839 -5 813 -5 c 0,45,46
 806 -5 806 -5 793 1 c 0,47,48
 725 36 725 36 670 77 c 128,-1,49
 615 118 615 118 573 168 c 1,50,-1
 573 167 l 1,51,52
 481 276 481 276 481 396 c 0,53,54
 482 448 482 448 501.5 500 c 128,-1,55
 521 552 521 552 559 603 c 0,56,57
 586 640 586 640 623.5 676.5 c 128,-1,58
 661 713 661 713 705 745 c 0,59,60
 778 799 778 799 807 799 c 0,61,62
 842 799 842 799 842 775 c 0,63,64
 842 765 842 765 834 757 c 0,65,66
 807 730 807 730 788 708 c 128,-1,67
 769 686 769 686 756 668.5 c 128,-1,68
 743 651 743 651 734.5 638 c 128,-1,69
 726 625 726 625 720 615 c 2,70,-1
 721 616 l 1,35,36
EndSplineSet
EndChar

StartChar: guillemotright
Encoding: 187 187 425
Width: 836
Flags: W
LayerCount: 2
Fore
SplineSet
573 622 m 1,0,1
 561 641 561 641 537.5 674.5 c 128,-1,2
 514 708 514 708 460 762 c 0,3,4
 452 770 452 770 452 780 c 0,5,6
 452 804 452 804 487 804 c 0,7,8
 514 804 514 804 588 751 c 0,9,10
 631 719 631 719 668 683 c 128,-1,11
 705 647 705 647 732 610 c 0,12,13
 769 559 769 559 788.5 508 c 128,-1,14
 808 457 808 457 809 406 c 0,15,16
 809 287 809 287 718 179 c 1,17,-1
 718 180 l 1,18,19
 636 83 636 83 501 15 c 0,20,21
 487 9 487 9 481 9 c 0,22,23
 455 9 455 9 455 34 c 0,24,25
 458 42 458 42 467.5 57.5 c 128,-1,26
 477 73 477 73 497 96 c 1,27,-1
 497 95 l 1,28,29
 626 266 626 266 626 403 c 0,30,31
 626 515 626 515 572 623 c 1,32,-1
 573 622 l 1,0,1
297 622 m 1,33,34
 285 641 285 641 261.5 674.5 c 128,-1,35
 238 708 238 708 184 762 c 0,36,37
 176 770 176 770 176 780 c 0,38,39
 176 804 176 804 211 804 c 0,40,41
 238 804 238 804 312 751 c 0,42,43
 355 719 355 719 392 683 c 128,-1,44
 429 647 429 647 456 610 c 0,45,46
 493 559 493 559 512.5 508 c 128,-1,47
 532 457 532 457 533 406 c 0,48,49
 533 287 533 287 442 179 c 1,50,-1
 442 180 l 1,51,52
 360 83 360 83 225 15 c 0,53,54
 211 9 211 9 205 9 c 0,55,56
 179 9 179 9 179 34 c 0,57,58
 182 42 182 42 191.5 57.5 c 128,-1,59
 201 73 201 73 221 96 c 1,60,-1
 221 95 l 1,61,62
 350 266 350 266 350 403 c 0,63,64
 350 515 350 515 296 623 c 1,65,-1
 297 622 l 1,33,34
EndSplineSet
EndChar

StartChar: quoteleft
Encoding: 8216 8216 426
Width: 425
Flags: W
LayerCount: 2
Fore
SplineSet
121 1203 m 0,0,1
 122 1268 122 1268 166 1331.5 c 128,-1,2
 210 1395 210 1395 265 1421 c 1,3,-1
 296 1363 l 1,4,5
 280 1354 280 1354 258 1330 c 128,-1,6
 236 1306 236 1306 226 1268 c 1,7,8
 292 1240 292 1240 289 1185 c 0,9,10
 289 1169 289 1169 282.5 1154.5 c 128,-1,11
 276 1140 276 1140 265 1129 c 128,-1,12
 254 1118 254 1118 239 1111.5 c 128,-1,13
 224 1105 224 1105 208 1105 c 0,14,15
 188 1105 188 1105 171.5 1113.5 c 128,-1,16
 155 1122 155 1122 144 1135.5 c 128,-1,17
 133 1149 133 1149 127 1167 c 128,-1,18
 121 1185 121 1185 121 1203 c 0,0,1
EndSplineSet
EndChar

StartChar: quoteright
Encoding: 8217 8217 427
Width: 372
Flags: W
LayerCount: 2
Fore
SplineSet
281 1313 m 0,0,1
 280 1248 280 1248 236 1184.5 c 128,-1,2
 192 1121 192 1121 137 1095 c 1,3,-1
 106 1153 l 1,4,5
 122 1162 122 1162 144 1186 c 128,-1,6
 166 1210 166 1210 176 1248 c 1,7,8
 110 1276 110 1276 113 1331 c 0,9,10
 113 1347 113 1347 119.5 1361.5 c 128,-1,11
 126 1376 126 1376 137 1387 c 128,-1,12
 148 1398 148 1398 162.5 1404.5 c 128,-1,13
 177 1411 177 1411 194 1411 c 0,14,15
 214 1411 214 1411 230 1402.5 c 128,-1,16
 246 1394 246 1394 257.5 1380.5 c 128,-1,17
 269 1367 269 1367 275 1349 c 128,-1,18
 281 1331 281 1331 281 1313 c 0,0,1
EndSplineSet
EndChar

StartChar: afii57451
Encoding: 1611 1611 428
Width: 0
GlyphClass: 4
Flags: W
AnchorPoint: "Anchor-2" 0 0 mark 0
AnchorPoint: "Anchor-0" 0 0 mark 0
LayerCount: 2
Fore
SplineSet
-206 254 m 0,0,1
 -191 271 -191 271 -160 290 c 0,2,3
 -151 295 -151 295 -133 305 c 2,4,-1
 233 469 l 1,5,-1
 227 428 l 2,6,7
 221 380 221 380 188 355 c 1,8,-1
 -235 176 l 1,9,10
 -230 198 -230 198 -227 208 c 0,11,12
 -217 245 -217 245 -206 254 c 0,0,1
-206 74 m 0,13,14
 -191 91 -191 91 -160 110 c 0,15,16
 -151 115 -151 115 -133 125 c 2,17,-1
 233 289 l 1,18,-1
 227 248 l 2,19,20
 221 200 221 200 188 175 c 1,21,-1
 -235 -4 l 1,22,23
 -230 18 -230 18 -227 28 c 0,24,25
 -217 65 -217 65 -206 74 c 0,13,14
EndSplineSet
EndChar

StartChar: afii57454
Encoding: 1614 1614 429
Width: 0
GlyphClass: 4
Flags: W
AnchorPoint: "Anchor-2" 0 0 mark 0
AnchorPoint: "Anchor-0" 0 0 mark 0
LayerCount: 2
Fore
SplineSet
-206 84 m 0,0,1
 -191 101 -191 101 -160 120 c 0,2,3
 -151 125 -151 125 -133 134 c 2,4,-1
 233 299 l 1,5,-1
 227 258 l 2,6,7
 221 210 221 210 188 185 c 1,8,-1
 -235 6 l 1,9,10
 -230 28 -230 28 -227 37 c 0,11,12
 -217 74 -217 74 -206 84 c 0,0,1
EndSplineSet
EndChar

StartChar: afii57455
Encoding: 1615 1615 430
Width: 0
GlyphClass: 4
Flags: W
AnchorPoint: "Anchor-2" 0 0 mark 0
AnchorPoint: "Anchor-0" 0 0 mark 0
LayerCount: 2
Fore
SplineSet
-100 347 m 0,0,1
 -84 398 -84 398 -50 442 c 0,2,3
 -7 494 -7 494 38 494 c 0,4,5
 70 494 70 494 94 458 c 0,6,7
 109 433 109 433 109 396 c 0,8,9
 109 334 109 334 67 247 c 1,10,-1
 100 222 l 1,11,-1
 124 212 l 1,12,-1
 110 106 l 1,13,-1
 16 158 l 1,14,-1
 -13 134 l 1,15,16
 -43 102 -43 102 -64 83 c 0,17,18
 -133 14 -133 14 -198 1 c 0,19,20
 -221 -4 -221 -4 -242 -4 c 0,21,22
 -266 -4 -266 -4 -280 2 c 1,23,-1
 -226 40 l 2,24,25
 -185 66 -185 66 -110 126 c 1,26,27
 -77 160 -77 160 -59 175 c 0,28,29
 -53 181 -53 181 -38 192 c 1,30,31
 -106 234 -106 234 -106 299 c 0,32,33
 -106 320 -106 320 -100 347 c 0,0,1
-2 388 m 0,34,35
 -22 395 -22 395 -33 386 c 128,-1,36
 -44 377 -44 377 -44 368 c 0,37,38
 -44 343 -44 343 -8 307 c 0,39,40
 -6 304 -6 304 13 292 c 0,41,42
 20 286 20 286 26 282 c 1,43,44
 26 341 26 341 16.5 362 c 128,-1,45
 7 383 7 383 -2 388 c 0,34,35
EndSplineSet
EndChar

StartChar: afii57452
Encoding: 1612 1612 431
Width: 0
GlyphClass: 4
Flags: W
AnchorPoint: "Anchor-2" 0 0 mark 0
AnchorPoint: "Anchor-0" 0 0 mark 0
LayerCount: 2
Fore
SplineSet
-100 347 m 0,0,1
 -84 398 -84 398 -50 442 c 0,2,3
 -7 494 -7 494 38 494 c 0,4,5
 70 494 70 494 94 458 c 0,6,7
 109 433 109 433 109 396 c 0,8,9
 109 334 109 334 67 247 c 1,10,-1
 100 222 l 1,11,-1
 124 212 l 1,12,-1
 110 106 l 1,13,-1
 16 158 l 1,14,-1
 -13 134 l 1,15,16
 -43 102 -43 102 -64 83 c 0,17,18
 -133 14 -133 14 -198 1 c 0,19,20
 -221 -4 -221 -4 -242 -4 c 0,21,22
 -266 -4 -266 -4 -280 2 c 1,23,-1
 -226 40 l 2,24,25
 -212 48 -212 48 -196 59 c 1,26,27
 -193 143 -193 143 -294 95 c 1,28,29
 -284 142 -284 142 -252 160 c 128,-1,30
 -220 178 -220 178 -191 178 c 0,31,32
 -139 178 -139 178 -140 101 c 1,33,34
 -126 113 -126 113 -98.5 135 c 128,-1,35
 -71 157 -71 157 -38 192 c 1,36,37
 -106 234 -106 234 -106 299 c 0,38,39
 -106 320 -106 320 -100 347 c 0,0,1
-2 388 m 0,40,41
 -22 395 -22 395 -33 386 c 128,-1,42
 -44 377 -44 377 -44 368 c 0,43,44
 -44 343 -44 343 -8 307 c 0,45,46
 -6 304 -6 304 13 292 c 0,47,48
 20 286 20 286 26 282 c 1,49,50
 26 341 26 341 16.5 362 c 128,-1,51
 7 383 7 383 -2 388 c 0,40,41
EndSplineSet
EndChar

StartChar: afii57456
Encoding: 1616 1616 432
Width: 0
GlyphClass: 4
Flags: W
AnchorPoint: "Anchor-3" 0 0 mark 0
AnchorPoint: "Anchor-1" 0 0 mark 0
LayerCount: 2
Fore
SplineSet
-206 84 m 0,0,1
 -191 101 -191 101 -160 120 c 0,2,3
 -151 125 -151 125 -133 134 c 2,4,-1
 233 299 l 1,5,-1
 227 258 l 2,6,7
 221 210 221 210 188 185 c 1,8,-1
 -235 6 l 1,9,10
 -230 28 -230 28 -227 37 c 0,11,12
 -217 74 -217 74 -206 84 c 0,0,1
EndSplineSet
EndChar

StartChar: afii57457
Encoding: 1617 1617 433
Width: 0
GlyphClass: 4
Flags: W
AnchorPoint: "Anchor-2" 0 0 mark 0
AnchorPoint: "Anchor-0" 0 0 mark 0
LayerCount: 2
Fore
SplineSet
-161 256 m 1,0,-1
 -161 242 l 2,1,2
 -161 172 -161 172 -150 155 c 0,3,4
 -133 132 -133 132 -107 132 c 0,5,6
 -64 132 -64 132 -35 199 c 0,7,8
 -31 211 -31 211 -23 265 c 0,9,10
 -20 278 -20 278 -16 314 c 1,11,-1
 8 322 l 1,12,13
 25 284 25 284 34 240 c 0,14,15
 44 203 44 203 85 199 c 0,16,17
 127 194 127 194 148 284 c 0,18,19
 155 313 155 313 162 378 c 1,20,-1
 187 391 l 1,21,22
 192 335 192 335 192 298 c 0,23,24
 192 109 192 109 127 86 c 0,25,26
 106 78 106 78 84 78 c 0,27,28
 53 78 53 78 25 92 c 0,29,30
 16 97 16 97 2 109 c 1,31,32
 -18 73 -18 73 -34 54 c 0,33,34
 -80 -1 -80 -1 -127 -1 c 0,35,36
 -204 -1 -204 -1 -204 110 c 0,37,38
 -204 176 -204 176 -185 245 c 1,39,-1
 -161 256 l 1,0,-1
EndSplineSet
EndChar

StartChar: afii57458
Encoding: 1618 1618 434
Width: 0
GlyphClass: 4
Flags: W
AnchorPoint: "Anchor-2" 0 0 mark 0
AnchorPoint: "Anchor-0" 0 0 mark 0
LayerCount: 2
Fore
SplineSet
167 209 m 0,0,1
 167 6 167 6 -16 6 c 0,2,3
 -155 6 -155 6 -155 158 c 0,4,5
 -155 240 -155 240 -106 311 c 0,6,7
 -52 390 -52 390 26 390 c 0,8,9
 167 390 167 390 167 209 c 0,0,1
94 208 m 0,10,11
 94 239 94 239 72 264.5 c 128,-1,12
 50 290 50 290 19 290 c 0,13,14
 -13 290 -13 290 -43.5 255 c 128,-1,15
 -74 220 -74 220 -74 185 c 0,16,17
 -74 136 -74 136 -1 136 c 0,18,19
 48 136 48 136 66 144 c 0,20,21
 94 158 94 158 94 208 c 0,10,11
EndSplineSet
EndChar

StartChar: exclam
Encoding: 33 33 437
Width: 581
GlyphClass: 2
Flags: W
LayerCount: 2
Fore
SplineSet
416 1067 m 1,0,-1
 329 256 l 1,1,-1
 262 256 l 1,2,-1
 262 485 l 2,3,4
 262 497 262 497 245 600 c 0,5,6
 222 731 222 731 213 811 c 0,7,8
 196 950 196 950 196 1036 c 0,9,10
 196 1306 196 1306 307 1306 c 0,11,12
 416 1306 416 1306 416 1067 c 1,0,-1
397 58 m 0,13,14
 397 -57 397 -57 297 -57 c 0,15,16
 250 -57 250 -57 218.5 -23 c 128,-1,17
 187 11 187 11 187 58 c 0,18,19
 187 102 187 102 216.5 131.5 c 128,-1,20
 246 161 246 161 292 161 c 0,21,22
 397 161 397 161 397 58 c 0,13,14
EndSplineSet
EndChar

StartChar: afii64060
Encoding: 64830 64830 438
Width: 832
GlyphClass: 2
Flags: W
LayerCount: 2
Fore
SplineSet
641 1067 m 0,0,1
 537 914 537 914 481 796 c 0,2,3
 393 613 393 613 388 304 c 0,4,5
 388 71 388 71 489 -117 c 0,6,7
 520 -174 520 -174 622 -309 c 0,8,9
 684 -391 684 -391 684 -438 c 0,10,11
 684 -469 684 -469 657 -469 c 1,12,13
 642 -457 642 -457 497.5 -350.5 c 128,-1,14
 353 -244 353 -244 273 -86 c 0,15,16
 162 134 162 134 162 372 c 0,17,18
 162 589 162 589 276 807 c 0,19,20
 361 972 361 972 520 1094 c 128,-1,21
 679 1216 679 1216 701 1216 c 256,22,23
 723 1216 723 1216 723 1191 c 1,24,25
 713 1173 713 1173 641 1067 c 0,0,1
EndSplineSet
EndChar

StartChar: afii64061
Encoding: 64831 64831 439
Width: 831
GlyphClass: 2
Flags: W
LayerCount: 2
Fore
SplineSet
156 1067 m 0,0,1
 84 1173 84 1173 74 1191 c 1,2,3
 74 1216 74 1216 96 1216 c 256,4,5
 118 1216 118 1216 277 1094 c 128,-1,6
 436 972 436 972 521 807 c 0,7,8
 635 589 635 589 635 372 c 0,9,10
 635 134 635 134 524 -86 c 0,11,12
 444 -244 444 -244 299.5 -350.5 c 128,-1,13
 155 -457 155 -457 140 -469 c 1,14,15
 113 -469 113 -469 113 -438 c 0,16,17
 113 -391 113 -391 175 -309 c 0,18,19
 277 -174 277 -174 308 -117 c 0,20,21
 409 71 409 71 409 304 c 0,22,23
 404 613 404 613 316 796 c 0,24,25
 260 914 260 914 156 1067 c 0,0,1
EndSplineSet
EndChar

StartChar: afii62821
Encoding: 65252 65252 440
Width: 1126
GlyphClass: 2
Flags: W
AnchorPoint: "Anchor-3" 570 -615 basechar 0
AnchorPoint: "Anchor-2" 585 750 basechar 0
LayerCount: 2
Fore
SplineSet
1158 0 m 1,0,-1
 983 0 l 2,1,2
 931 0 931 0 858 42 c 0,3,4
 843 52 843 52 791 84 c 1,5,6
 791 -62 791 -62 700 -62 c 0,7,8
 633 -62 633 -62 550 -8 c 0,9,10
 515 15 515 15 419 95 c 0,11,12
 351 150 351 150 328 150 c 1,13,14
 311 134 311 134 235 48 c 0,15,16
 192 0 192 0 150 0 c 2,17,-1
 -32 0 l 1,18,-1
 -32 203 l 1,19,-1
 63 203 l 2,20,21
 157 203 157 203 181 210 c 0,22,23
 220 221 220 221 267 270 c 0,24,25
 321 325 321 325 428 437 c 1,26,27
 491 524 491 524 552 524 c 0,28,29
 641 524 641 524 727 441 c 0,30,31
 776 389 776 389 879 287 c 0,32,33
 969 203 969 203 1075 203 c 2,34,-1
 1158 203 l 1,35,-1
 1158 0 l 1,0,-1
638 232 m 0,36,37
 638 304 638 304 599 354 c 0,38,39
 570 395 570 395 552 395 c 0,40,41
 528 395 528 395 487 346 c 0,42,43
 468 322 468 322 451 298 c 1,44,45
 528 213 528 213 633 171 c 1,46,47
 638 210 638 210 638 232 c 0,36,37
EndSplineSet
EndChar

StartChar: uni25CC
Encoding: 9676 9676 441
Width: 911
Flags: W
AnchorPoint: "Anchor-3" 495 -390 basechar 0
AnchorPoint: "Anchor-2" 465 930 basechar 0
LayerCount: 2
Fore
SplineSet
771 629 m 256,0,1
 771 592 771 592 734 592 c 0,2,3
 695 592 695 592 695 629 c 256,4,5
 695 666 695 666 734 666 c 0,6,7
 771 666 771 666 771 629 c 256,0,1
658 703 m 0,8,9
 658 666 658 666 621 666 c 0,10,11
 582 666 582 666 582 703 c 0,12,13
 582 742 582 742 621 742 c 0,14,15
 658 742 658 742 658 703 c 0,8,9
847 516 m 0,16,17
 847 477 847 477 808 477 c 0,18,19
 771 477 771 477 771 516 c 0,20,21
 771 553 771 553 810 553 c 0,22,23
 847 553 847 553 847 516 c 0,16,17
873 384 m 256,24,25
 873 347 873 347 836 347 c 0,26,27
 797 347 797 347 797 384 c 256,28,29
 797 421 797 421 836 421 c 0,30,31
 873 421 873 421 873 384 c 256,24,25
525 731 m 0,32,33
 525 692 525 692 488 692 c 256,34,35
 451 692 451 692 451 731 c 0,36,37
 451 768 451 768 488 768 c 256,38,39
 525 768 525 768 525 731 c 0,32,33
847 251 m 0,40,41
 847 214 847 214 808 214 c 0,42,43
 771 214 771 214 771 251 c 0,44,45
 771 290 771 290 808 290 c 0,46,47
 847 290 847 290 847 251 c 0,40,41
394 703 m 0,48,49
 394 666 394 666 356 666 c 0,50,51
 319 666 319 666 319 703 c 0,52,53
 319 742 319 742 356 742 c 0,54,55
 394 742 394 742 394 703 c 0,48,49
282 629 m 256,56,57
 282 592 282 592 243 592 c 0,58,59
 206 592 206 592 206 627 c 0,60,61
 206 666 206 666 243 666 c 0,62,63
 282 666 282 666 282 629 c 256,56,57
771 138 m 0,64,65
 771 101 771 101 734 101 c 256,66,67
 697 101 697 101 697 138 c 0,68,69
 697 177 697 177 734 177 c 256,70,71
 771 177 771 177 771 138 c 0,64,65
658 64 m 0,72,73
 658 27 658 27 621 27 c 256,74,75
 584 27 584 27 584 64 c 0,76,77
 584 103 584 103 621 103 c 256,78,79
 658 103 658 103 658 64 c 0,72,73
206 516 m 0,80,81
 206 477 206 477 171 477 c 0,82,83
 132 477 132 477 132 516 c 0,84,85
 132 553 132 553 169 553 c 256,86,87
 206 553 206 553 206 516 c 0,80,81
180 384 m 256,88,89
 180 347 180 347 143 347 c 0,90,91
 104 347 104 347 104 384 c 256,92,93
 104 421 104 421 143 421 c 0,94,95
 180 421 180 421 180 384 c 256,88,89
525 38 m 0,96,97
 525 -1 525 -1 488 -1 c 256,98,99
 451 -1 451 -1 451 38 c 0,100,101
 451 75 451 75 488 75 c 256,102,103
 525 75 525 75 525 38 c 0,96,97
394 66 m 0,104,105
 394 27 394 27 356 27 c 0,106,107
 319 27 319 27 319 64 c 0,108,109
 319 103 319 103 356 103 c 0,110,111
 394 103 394 103 394 66 c 0,104,105
206 251 m 0,112,113
 206 214 206 214 169 214 c 256,114,115
 132 214 132 214 132 251 c 0,116,117
 132 290 132 290 169 290 c 256,118,119
 206 290 206 290 206 251 c 0,112,113
282 138 m 0,120,121
 282 101 282 101 245 101 c 0,122,123
 206 101 206 101 206 138 c 0,124,125
 206 177 206 177 243 177 c 0,126,127
 282 177 282 177 282 138 c 0,120,121
EndSplineSet
EndChar

StartChar: afii62819
Encoding: 65246 65246 442
Width: 1429
GlyphClass: 2
Flags: W
AnchorPoint: "Anchor-3" 600 -1290 basechar 0
AnchorPoint: "Anchor-2" 885 1530 basechar 0
LayerCount: 2
Fore
SplineSet
524 -778 m 0,0,1
 398 -778 398 -778 302 -690 c 0,2,3
 189 -587 189 -587 189 -409 c 0,4,5
 189 -311 189 -311 256 -152 c 128,-1,6
 323 7 323 7 393 78 c 1,7,8
 426 49 426 49 426 42 c 0,9,10
 426 3 426 3 386 -70 c 0,11,12
 354 -125 354 -125 323 -178 c 0,13,14
 287 -248 287 -248 287 -322 c 0,15,16
 287 -434 287 -434 393 -503 c 0,17,18
 486 -561 486 -561 605 -561 c 0,19,20
 983 -561 983 -561 1075 -319 c 0,21,22
 1102 -249 1102 -249 1100 -178 c 0,23,24
 1100 -165 1100 -165 1099 -150 c 2,25,-1
 1044 1205 l 1,26,27
 1072 1331 1072 1331 1088 1364 c 0,28,29
 1114 1424 1114 1424 1152 1446 c 1,30,31
 1163 1387 1163 1387 1168 1113 c 0,32,33
 1169 974 1169 974 1173 942 c 0,34,35
 1198 734 1198 734 1200 522 c 0,36,37
 1203 300 1203 300 1231 256 c 0,38,39
 1264 203 1264 203 1408 203 c 2,40,-1
 1473 203 l 1,41,-1
 1473 0 l 1,42,-1
 1323 0 l 2,43,44
 1281 0 1281 0 1253 42 c 0,45,46
 1208 109 1208 109 1184 129 c 1,47,48
 1182 101 1182 101 1182 78 c 0,49,50
 1182 41 1182 41 1183 -22 c 2,51,-1
 1184 -150 l 1,52,-1
 1168 -342 l 1,53,54
 1088 -778 1088 -778 524 -778 c 0,0,1
EndSplineSet
EndChar

StartChar: braceright
Encoding: 125 125 445
Width: 830
GlyphClass: 2
Flags: W
LayerCount: 2
Fore
SplineSet
150 1172 m 1,0,-1
 150 1202 l 1,1,2
 290 1183 290 1183 378.5 1088 c 128,-1,3
 467 993 467 993 467 876 c 0,4,5
 467 815 467 815 448 735 c 128,-1,6
 429 655 429 655 429 611 c 0,7,8
 429 549 429 549 479.5 496.5 c 128,-1,9
 530 444 530 444 621 432 c 1,10,-1
 621 397 l 1,11,12
 530 386 530 386 479.5 332.5 c 128,-1,13
 429 279 429 279 429 219 c 0,14,15
 429 175 429 175 448 93.5 c 128,-1,16
 467 12 467 12 467 -49 c 0,17,18
 467 -162 467 -162 378.5 -258 c 128,-1,19
 290 -354 290 -354 150 -373 c 1,20,-1
 150 -345 l 1,21,22
 248 -319 248 -319 294 -266 c 128,-1,23
 340 -213 340 -213 340 -148 c 0,24,25
 340 -98 340 -98 321 -16.5 c 128,-1,26
 302 65 302 65 302 122 c 0,27,28
 302 208 302 208 365 288.5 c 128,-1,29
 428 369 428 369 551 412 c 1,30,31
 430 457 430 457 366 539 c 128,-1,32
 302 621 302 621 302 707 c 0,33,34
 302 763 302 763 321 845 c 128,-1,35
 340 927 340 927 340 977 c 0,36,37
 340 1042 340 1042 294 1095 c 128,-1,38
 248 1148 248 1148 150 1172 c 1,0,-1
EndSplineSet
EndChar

StartChar: uni0656
Encoding: 1622 1622 452
Width: 0
GlyphClass: 4
Flags: W
AnchorPoint: "Anchor-3" 0 0 mark 0
AnchorPoint: "Anchor-1" 0 0 mark 0
LayerCount: 2
Fore
SplineSet
36 98 m 1,0,-1
 -35 -7 l 1,1,2
 -36 42 -36 42 -44.5 161 c 128,-1,3
 -53 280 -53 280 -83 403 c 1,4,-1
 17 515 l 1,5,6
 80 217 80 217 36 98 c 1,0,-1
EndSplineSet
EndChar

StartChar: E005
Encoding: 65578 -1 470
Width: 476
GlyphClass: 3
Flags: W
LayerCount: 2
Fore
SplineSet
-43 0 m 1,0,-1
 -43 207 l 1,1,-1
 581 207 l 1,2,-1
 581 0 l 1,3,-1
 -43 0 l 1,0,-1
EndSplineSet
EndChar

StartChar: afii57470
Encoding: 1726 1726 480
Width: 935
Flags: W
AnchorPoint: "Anchor-3" 315 -570 basechar 0
AnchorPoint: "Anchor-2" 390 1215 basechar 0
LayerCount: 2
Fore
SplineSet
886 305 m 0,0,1
 886 206 886 206 865 165 c 0,2,3
 834 108 834 108 745 108 c 0,4,5
 685 108 685 108 573.5 150.5 c 128,-1,6
 462 193 462 193 427 193 c 0,7,8
 389 193 389 193 323 144 c 2,9,-1
 202 50 l 1,10,11
 125 0 125 0 52 0 c 2,12,-1
 -35 0 l 1,13,-1
 -35 203 l 1,14,-1
 57 203 l 2,15,16
 185 203 185 203 202 256 c 1,17,18
 178 311 178 311 178 365 c 0,19,20
 178 406 178 406 193 441 c 0,21,22
 202 465 202 465 241 522 c 2,23,-1
 318 634 l 1,24,25
 318 651 318 651 297.5 661.5 c 128,-1,26
 277 672 277 672 277 710 c 0,27,28
 277 759 277 759 311 811 c 0,29,30
 349 868 349 868 396 868 c 0,31,32
 486 868 486 868 617 750 c 0,33,34
 724 657 724 657 791 556 c 0,35,36
 886 414 886 414 886 305 c 0,0,1
801 280 m 1,37,38
 746 363 746 363 678 428 c 0,39,40
 627 475 627 475 595 491 c 1,41,42
 587 441 587 441 578 413 c 0,43,44
 577 405 577 405 553 342 c 1,45,46
 622 311 622 311 652 304 c 0,47,48
 718 288 718 288 736 280 c 1,49,-1
 801 280 l 1,37,38
479 455 m 0,50,51
 479 546 479 546 420 546 c 0,52,53
 389 546 389 546 330 486 c 0,54,55
 304 458 304 458 277 428 c 1,56,57
 305 407 305 407 319 399 c 0,58,59
 342 386 342 386 396 386 c 0,60,61
 479 386 479 386 479 455 c 0,50,51
EndSplineSet
Substitution2: "'medi' Medial Forms in Arabic lookup 3 subtable" afii62827
Substitution2: "'fina' Terminal Forms in Arabic lookup 2 subtable" afii62827
Substitution2: "'init' Initial Forms in Arabic lookup 1 subtable" afii57470
EndChar

StartChar: at
Encoding: 64 64 489
Width: 1594
Flags: W
LayerCount: 2
Fore
SplineSet
1189 809 m 1,0,-1
 1091 472 l 2,1,2
 1036 283 1036 283 1024 232 c 128,-1,3
 1012 181 1012 181 1012 151 c 0,4,5
 1012 125 1012 125 1030 105.5 c 128,-1,6
 1048 86 1048 86 1075 86 c 0,7,8
 1138 86 1138 86 1224 148 c 128,-1,9
 1310 210 1310 210 1372 349 c 128,-1,10
 1434 488 1434 488 1434 637 c 0,11,12
 1434 782 1434 782 1364.5 904.5 c 128,-1,13
 1295 1027 1295 1027 1167.5 1093 c 128,-1,14
 1040 1159 1040 1159 886 1159 c 0,15,16
 690 1159 690 1159 523.5 1055 c 128,-1,17
 357 951 357 951 259 757 c 128,-1,18
 161 563 161 563 161 352 c 0,19,20
 161 158 161 158 246.5 0 c 128,-1,21
 332 -158 332 -158 488 -240.5 c 128,-1,22
 644 -323 644 -323 823 -323 c 0,23,24
 1045 -323 1045 -323 1224.5 -203.5 c 128,-1,25
 1404 -84 1404 -84 1501 146 c 1,26,-1
 1551 146 l 1,27,28
 1476 -86 1476 -86 1275.5 -229.5 c 128,-1,29
 1075 -373 1075 -373 819 -373 c 0,30,31
 617 -373 617 -373 445 -278 c 128,-1,32
 273 -183 273 -183 178 -8.5 c 128,-1,33
 83 166 83 166 83 375 c 0,34,35
 83 598 83 598 187.5 791 c 128,-1,36
 292 984 292 984 480.5 1093 c 128,-1,37
 669 1202 669 1202 880 1202 c 0,38,39
 1056 1202 1056 1202 1196.5 1129.5 c 128,-1,40
 1337 1057 1337 1057 1411 918.5 c 128,-1,41
 1485 780 1485 780 1485 623 c 0,42,43
 1485 468 1485 468 1415.5 316.5 c 128,-1,44
 1346 165 1346 165 1240 96 c 128,-1,45
 1134 27 1134 27 1018 27 c 0,46,47
 953 27 953 27 921 56.5 c 128,-1,48
 889 86 889 86 889 141 c 0,49,50
 889 189 889 189 904 266 c 1,51,52
 780 115 780 115 704 70 c 128,-1,53
 628 25 628 25 571 25 c 0,54,55
 511 25 511 25 465 79 c 128,-1,56
 419 133 419 133 419 222 c 0,57,58
 419 345 419 345 498.5 496.5 c 128,-1,59
 578 648 578 648 709 745 c 0,60,61
 806 814 806 814 884 814 c 0,62,63
 940 814 940 814 978 785 c 128,-1,64
 1016 756 1016 756 1028 698 c 1,65,-1
 1057 791 l 1,66,-1
 1189 809 l 1,0,-1
894 775 m 0,67,68
 830 775 830 775 764 708 c 0,69,70
 669 611 669 611 602 444 c 0,71,72
 551 322 551 322 551 247 c 0,73,74
 551 194 551 194 581.5 161 c 128,-1,75
 612 128 612 128 648 128 c 0,76,77
 698 128 698 128 751.5 165 c 128,-1,78
 805 202 805 202 864.5 279.5 c 128,-1,79
 924 357 924 357 951 434 c 0,80,81
 999 568 999 568 999 653 c 0,82,83
 999 708 999 708 968 741.5 c 128,-1,84
 937 775 937 775 894 775 c 0,67,68
EndSplineSet
EndChar

StartChar: A
Encoding: 65 65 490
Width: 1249
Flags: W
LayerCount: 2
Fore
SplineSet
792 383 m 1,0,-1
 348 383 l 1,1,-1
 271 203 l 2,2,3
 242 136 242 136 242 104 c 0,4,5
 242 77 242 77 267 56.5 c 128,-1,6
 292 36 292 36 373 32 c 1,7,-1
 373 0 l 1,8,-1
 13 0 l 1,9,-1
 13 32 l 1,10,11
 85 44 85 44 107 64 c 0,12,13
 150 105 150 105 202 229 c 2,14,-1
 605 1172 l 1,15,-1
 635 1172 l 1,16,-1
 1033 219 l 2,17,18
 1081 104 1081 104 1120.5 70 c 128,-1,19
 1160 36 1160 36 1230 32 c 1,20,-1
 1230 0 l 1,21,-1
 779 0 l 1,22,-1
 779 32 l 1,23,24
 847 35 847 35 871 54.5 c 128,-1,25
 895 74 895 74 895 102 c 0,26,27
 895 138 895 138 861 219 c 2,28,-1
 792 383 l 1,0,-1
768 445 m 1,29,-1
 573 909 l 1,30,-1
 373 445 l 1,31,-1
 768 445 l 1,29,-1
EndSplineSet
EndChar

StartChar: B
Encoding: 66 66 491
Width: 1154
Flags: W
LayerCount: 2
Fore
SplineSet
800 585 m 1,0,1
 919 560 919 560 978 504 c 0,2,3
 1059 425 1059 425 1059 314 c 0,4,5
 1059 228 1059 228 1005 150 c 128,-1,6
 951 72 951 72 856.5 36 c 128,-1,7
 762 0 762 0 569 0 c 2,8,-1
 29 0 l 1,9,-1
 29 32 l 1,10,-1
 72 32 l 2,11,12
 144 32 144 32 176 77 c 0,13,14
 194 107 194 107 194 203 c 2,15,-1
 194 943 l 2,16,17
 194 1049 194 1049 170 1077 c 0,18,19
 137 1114 137 1114 72 1114 c 2,20,-1
 29 1114 l 1,21,-1
 29 1145 l 1,22,-1
 524 1145 l 2,23,24
 662 1145 662 1145 746 1126 c 0,25,26
 873 1095 873 1095 939.5 1017.5 c 128,-1,27
 1006 940 1006 940 1006 840 c 0,28,29
 1006 754 1006 754 953.5 685.5 c 128,-1,30
 901 617 901 617 800 585 c 1,0,1
357 631 m 1,31,32
 388 624 388 624 428 621.5 c 128,-1,33
 468 619 468 619 516 619 c 0,34,35
 640 619 640 619 701.5 645.5 c 128,-1,36
 763 672 763 672 796.5 726.5 c 128,-1,37
 830 781 830 781 830 847 c 0,38,39
 830 948 830 948 747.5 1018.5 c 128,-1,40
 665 1089 665 1089 509 1089 c 0,41,42
 424 1089 424 1089 357 1070 c 1,43,-1
 357 631 l 1,31,32
357 83 m 1,44,45
 454 60 454 60 550 60 c 0,46,47
 704 60 704 60 784 129 c 128,-1,48
 864 198 864 198 864 299 c 0,49,50
 864 366 864 366 827.5 427.5 c 128,-1,51
 791 489 791 489 709 524.5 c 128,-1,52
 627 560 627 560 506 560 c 0,53,54
 454 560 454 560 416.5 558.5 c 128,-1,55
 379 557 379 557 357 552 c 1,56,-1
 357 83 l 1,44,45
EndSplineSet
EndChar

StartChar: C
Encoding: 67 67 492
Width: 1154
Flags: W
LayerCount: 2
Fore
SplineSet
1042 1172 m 1,0,-1
 1068 782 l 1,1,-1
 1042 782 l 1,2,3
 990 957 990 957 892.5 1034 c 128,-1,4
 795 1111 795 1111 659 1111 c 0,5,6
 545 1111 545 1111 453 1053 c 128,-1,7
 361 995 361 995 308 868 c 128,-1,8
 255 741 255 741 255 553 c 0,9,10
 255 398 255 398 305 284 c 128,-1,11
 355 170 355 170 455.5 109.5 c 128,-1,12
 556 49 556 49 684 49 c 0,13,14
 795 49 795 49 880 96.5 c 128,-1,15
 965 144 965 144 1068 285 c 1,16,-1
 1094 268 l 1,17,18
 1007 116 1007 116 893 44.5 c 128,-1,19
 779 -27 779 -27 620 -27 c 0,20,21
 336 -27 336 -27 180 185 c 0,22,23
 62 342 62 342 62 556 c 0,24,25
 62 727 62 727 139.5 870.5 c 128,-1,26
 217 1014 217 1014 351.5 1093 c 128,-1,27
 486 1172 486 1172 645 1172 c 0,28,29
 770 1172 770 1172 890 1111 c 0,30,31
 926 1092 926 1092 941 1092 c 0,32,33
 964 1092 964 1092 981 1109 c 0,34,35
 1003 1131 1003 1131 1012 1172 c 1,36,-1
 1042 1172 l 1,0,-1
EndSplineSet
EndChar

StartChar: D
Encoding: 68 68 493
Width: 1249
Flags: W
LayerCount: 2
Fore
SplineSet
30 0 m 1,0,-1
 30 32 l 1,1,-1
 73 32 l 2,2,3
 146 32 146 32 176 78 c 0,4,5
 194 106 194 106 194 203 c 2,6,-1
 194 943 l 2,7,8
 194 1049 194 1049 171 1077 c 0,9,10
 137 1114 137 1114 73 1114 c 2,11,-1
 30 1114 l 1,12,-1
 30 1145 l 1,13,-1
 496 1145 l 2,14,15
 753 1145 753 1145 886.5 1086.5 c 128,-1,16
 1020 1028 1020 1028 1102 892.5 c 128,-1,17
 1184 757 1184 757 1184 579 c 0,18,19
 1184 340 1184 340 1038 180 c 0,20,21
 876 0 876 0 541 0 c 2,22,-1
 30 0 l 1,0,-1
357 83 m 1,23,24
 464 60 464 60 537 60 c 0,25,26
 732 60 732 60 861.5 197.5 c 128,-1,27
 991 335 991 335 991 570 c 0,28,29
 991 808 991 808 861.5 944.5 c 128,-1,30
 732 1081 732 1081 530 1081 c 0,31,32
 454 1081 454 1081 357 1057 c 1,33,-1
 357 83 l 1,23,24
EndSplineSet
EndChar

StartChar: E
Encoding: 69 69 494
Width: 1057
Flags: W
LayerCount: 2
Fore
SplineSet
361 1084 m 1,0,-1
 361 631 l 1,1,-1
 613 631 l 2,2,3
 711 631 711 631 745 660 c 0,4,5
 788 699 788 699 793 796 c 1,6,-1
 825 796 l 1,7,-1
 825 398 l 1,8,-1
 793 398 l 1,9,10
 781 482 781 482 770 505 c 0,11,12
 754 535 754 535 719.5 551.5 c 128,-1,13
 685 568 685 568 613 568 c 2,14,-1
 361 568 l 1,15,-1
 361 191 l 2,16,17
 361 115 361 115 368 99 c 128,-1,18
 375 83 375 83 392 72.5 c 128,-1,19
 409 62 409 62 456 62 c 2,20,-1
 651 62 l 2,21,22
 748 62 748 62 791.5 76 c 128,-1,23
 835 90 835 90 876 129 c 0,24,25
 928 181 928 181 983 287 c 1,26,-1
 1017 287 l 1,27,-1
 919 0 l 1,28,-1
 36 0 l 1,29,-1
 36 32 l 1,30,-1
 76 32 l 2,31,32
 116 32 116 32 153 51 c 0,33,34
 180 64 180 64 190 91 c 128,-1,35
 200 118 200 118 200 202 c 2,36,-1
 200 947 l 2,37,38
 200 1055 200 1055 178 1080 c 0,39,40
 147 1114 147 1114 76 1114 c 2,41,-1
 36 1114 l 1,42,-1
 36 1145 l 1,43,-1
 919 1145 l 1,44,-1
 931 895 l 1,45,-1
 898 895 l 1,46,47
 880 985 880 985 858.5 1019 c 128,-1,48
 837 1053 837 1053 795 1070 c 0,49,50
 761 1084 761 1084 676 1084 c 2,51,-1
 361 1084 l 1,0,-1
EndSplineSet
EndChar

StartChar: F
Encoding: 70 70 495
Width: 962
Flags: W
LayerCount: 2
Fore
SplineSet
354 1084 m 1,0,-1
 354 633 l 1,1,-1
 563 633 l 2,2,3
 635 633 635 633 668 664.5 c 128,-1,4
 701 696 701 696 711 790 c 1,5,-1
 743 790 l 1,6,-1
 743 402 l 1,7,-1
 711 402 l 1,8,9
 711 468 711 468 694.5 499.5 c 128,-1,10
 678 531 678 531 649 547 c 128,-1,11
 620 563 620 563 563 563 c 2,12,-1
 354 563 l 1,13,-1
 354 203 l 2,14,15
 354 116 354 116 366 87 c 0,16,17
 373 66 373 66 400 52 c 0,18,19
 437 32 437 32 478 32 c 2,20,-1
 519 32 l 1,21,-1
 519 0 l 1,22,-1
 28 0 l 1,23,-1
 28 32 l 1,24,-1
 68 32 l 2,25,26
 139 32 139 32 171 73 c 0,27,28
 192 99 192 99 192 203 c 2,29,-1
 192 943 l 2,30,31
 192 1029 192 1029 180 1058 c 0,32,33
 172 1079 172 1079 146 1094 c 0,34,35
 109 1114 109 1114 68 1114 c 2,36,-1
 28 1114 l 1,37,-1
 28 1145 l 1,38,-1
 880 1145 l 1,39,-1
 891 894 l 1,40,-1
 862 894 l 1,41,42
 840 973 840 973 810.5 1011 c 128,-1,43
 781 1049 781 1049 738.5 1066.5 c 128,-1,44
 696 1084 696 1084 606 1084 c 2,45,-1
 354 1084 l 1,0,-1
EndSplineSet
EndChar

StartChar: G
Encoding: 71 71 496
Width: 1249
Flags: W
LayerCount: 2
Fore
SplineSet
1063 1172 m 1,0,-1
 1092 810 l 1,1,-1
 1063 810 l 1,2,3
 1017 946 1017 946 947 1014 c 0,4,5
 844 1113 844 1113 684 1113 c 0,6,7
 465 1113 465 1113 350 940 c 0,8,9
 255 793 255 793 255 591 c 0,10,11
 255 428 255 428 318.5 292.5 c 128,-1,12
 382 157 382 157 485 94.5 c 128,-1,13
 588 32 588 32 695 32 c 0,14,15
 758 32 758 32 817 47.5 c 128,-1,16
 876 63 876 63 931 95 c 1,17,-1
 931 425 l 2,18,19
 931 512 931 512 918.5 538 c 128,-1,20
 906 564 906 564 879 578.5 c 128,-1,21
 852 593 852 593 781 593 c 1,22,-1
 781 625 l 1,23,-1
 1225 625 l 1,24,-1
 1225 593 l 1,25,-1
 1204 593 l 2,26,27
 1139 593 1139 593 1113 549 c 0,28,29
 1096 517 1096 517 1096 425 c 2,30,-1
 1096 75 l 1,31,32
 999 23 999 23 904.5 -2 c 128,-1,33
 810 -27 810 -27 695 -27 c 0,34,35
 362 -27 362 -27 190 187 c 0,36,37
 61 347 61 347 61 556 c 0,38,39
 61 707 61 707 133 845 c 0,40,41
 220 1010 220 1010 370 1098 c 0,42,43
 496 1172 496 1172 667 1172 c 0,44,45
 730 1172 730 1172 781 1161.5 c 128,-1,46
 832 1151 832 1151 926 1117 c 0,47,48
 973 1099 973 1099 990 1099 c 0,49,50
 1005 1099 1005 1099 1016.5 1114 c 128,-1,51
 1028 1129 1028 1129 1031 1172 c 1,52,-1
 1063 1172 l 1,0,-1
EndSplineSet
EndChar

StartChar: H
Encoding: 72 72 497
Width: 1249
Flags: W
LayerCount: 2
Fore
SplineSet
356 614 m 1,0,-1
 888 614 l 1,1,-1
 888 942 l 2,2,3
 888 1031 888 1031 876 1058 c 0,4,5
 868 1079 868 1079 842 1094 c 0,6,7
 804 1114 804 1114 764 1114 c 2,8,-1
 725 1114 l 1,9,-1
 725 1145 l 1,10,-1
 1214 1145 l 1,11,-1
 1214 1114 l 1,12,-1
 1173 1114 l 2,13,14
 1134 1114 1134 1114 1096 1095 c 0,15,16
 1069 1080 1069 1080 1059 1054 c 0,17,18
 1049 1025 1049 1025 1049 942 c 2,19,-1
 1049 203 l 2,20,21
 1049 115 1049 115 1061 87 c 0,22,23
 1070 65 1070 65 1096 52 c 0,24,25
 1132 32 1132 32 1173 32 c 2,26,-1
 1214 32 l 1,27,-1
 1214 0 l 1,28,-1
 725 0 l 1,29,-1
 725 32 l 1,30,-1
 764 32 l 2,31,32
 835 32 835 32 867 73 c 0,33,34
 888 99 888 99 888 203 c 2,35,-1
 888 551 l 1,36,-1
 356 551 l 1,37,-1
 356 203 l 2,38,39
 356 115 356 115 367 87 c 0,40,41
 375 66 375 66 402 52 c 0,42,43
 439 32 439 32 479 32 c 2,44,-1
 520 32 l 1,45,-1
 520 0 l 1,46,-1
 30 0 l 1,47,-1
 30 32 l 1,48,-1
 70 32 l 2,49,50
 141 32 141 32 173 73 c 0,51,52
 193 99 193 99 193 203 c 2,53,-1
 193 942 l 2,54,55
 193 1031 193 1031 182 1058 c 0,56,57
 173 1079 173 1079 148 1094 c 0,58,59
 111 1114 111 1114 70 1114 c 2,60,-1
 30 1114 l 1,61,-1
 30 1145 l 1,62,-1
 520 1145 l 1,63,-1
 520 1114 l 1,64,-1
 479 1114 l 2,65,66
 440 1114 440 1114 402 1095 c 0,67,68
 376 1081 376 1081 366 1054 c 0,69,70
 356 1026 356 1026 356 942 c 2,71,-1
 356 614 l 1,0,-1
EndSplineSet
EndChar

StartChar: I
Encoding: 73 73 498
Width: 577
Flags: W
LayerCount: 2
Fore
SplineSet
535 32 m 1,0,-1
 535 0 l 1,1,-1
 43 0 l 1,2,-1
 43 32 l 1,3,-1
 84 32 l 2,4,5
 155 32 155 32 187 73 c 0,6,7
 207 99 207 99 207 203 c 2,8,-1
 207 943 l 2,9,10
 207 1029 207 1029 197 1058 c 0,11,12
 188 1079 188 1079 161 1094 c 0,13,14
 125 1114 125 1114 84 1114 c 2,15,-1
 43 1114 l 1,16,-1
 43 1145 l 1,17,-1
 535 1145 l 1,18,-1
 535 1114 l 1,19,-1
 492 1114 l 2,20,21
 422 1114 422 1114 391 1073 c 0,22,23
 370 1045 370 1045 370 943 c 2,24,-1
 370 203 l 2,25,26
 370 116 370 116 380 87 c 0,27,28
 389 66 389 66 416 52 c 0,29,30
 452 32 452 32 492 32 c 2,31,-1
 535 32 l 1,0,-1
EndSplineSet
EndChar

StartChar: J
Encoding: 74 74 499
Width: 674
Flags: W
LayerCount: 2
Fore
SplineSet
172 1114 m 1,0,-1
 172 1145 l 1,1,-1
 663 1145 l 1,2,-1
 663 1114 l 1,3,-1
 622 1114 l 2,4,5
 551 1114 551 1114 519 1073 c 0,6,7
 499 1045 499 1045 499 943 c 2,8,-1
 499 382 l 2,9,10
 499 253 499 253 471 173 c 128,-1,11
 443 93 443 93 373.5 33 c 128,-1,12
 304 -27 304 -27 206 -27 c 0,13,14
 127 -27 127 -27 81.5 13 c 128,-1,15
 36 53 36 53 36 104 c 0,16,17
 36 145 36 145 57 166 c 0,18,19
 84 192 84 192 122 192 c 0,20,21
 149 192 149 192 170.5 174 c 128,-1,22
 192 156 192 156 225 79 c 0,23,24
 244 34 244 34 275 34 c 0,25,26
 298 34 298 34 317.5 62 c 128,-1,27
 337 90 337 90 337 160 c 2,28,-1
 337 943 l 2,29,30
 337 1029 337 1029 326 1058 c 0,31,32
 318 1079 318 1079 290 1094 c 0,33,34
 254 1114 254 1114 213 1114 c 2,35,-1
 172 1114 l 1,0,-1
EndSplineSet
EndChar

